{"glyphs":{"0":{"ha":731,"x_min":65,"x_max":667,"o":"m 367 -19 q 142 69 219 -19 q 65 306 65 157 l 65 810 q 140 1052 65 964 q 367 1140 215 1140 q 592 1052 517 1140 q 667 810 667 964 l 667 306 q 589 69 667 158 q 367 -19 511 -19 m 367 169 q 449 310 449 169 l 449 806 q 433 910 449 868 q 367 951 417 951 q 299 910 314 951 q 283 806 283 869 l 283 310 q 367 169 283 169 z "},"1":{"ha":717,"x_min":129,"x_max":507,"o":"m 292 903 q 203 868 276 894 q 129 842 144 849 l 129 1001 q 244 1057 176 1019 q 339 1125 311 1094 l 507 1125 l 507 0 l 292 0 l 292 903 z "},"2":{"ha":724,"x_min":74,"x_max":678,"o":"m 74 151 l 346 572 l 363 597 q 440 730 415 676 q 465 847 465 783 q 444 930 465 901 q 385 958 424 958 q 304 914 326 958 q 282 792 282 869 l 282 740 l 74 740 l 74 796 q 148 1047 74 954 q 381 1139 222 1139 q 602 1062 526 1139 q 678 843 678 985 q 658 722 678 779 q 613 621 639 665 q 531 494 586 576 l 314 169 l 649 169 l 649 0 l 74 0 l 74 151 z "},"3":{"ha":717,"x_min":65,"x_max":669,"o":"m 368 -19 q 136 69 207 -19 q 65 321 65 158 l 65 360 l 279 360 l 279 322 q 300 199 281 236 q 371 161 319 161 q 440 199 422 161 q 457 324 457 238 q 431 458 457 414 q 333 503 404 501 q 294 504 329 504 l 294 661 l 329 661 q 429 700 401 661 q 457 828 457 739 q 437 935 457 900 q 365 969 417 969 q 299 932 317 969 q 279 821 281 894 l 279 771 l 65 771 l 65 832 q 144 1060 65 979 q 365 1140 222 1140 q 590 1063 511 1140 q 669 839 669 985 q 629 676 669 742 q 526 593 589 610 q 669 328 669 540 q 597 73 669 165 q 368 -19 525 -19 z "},"4":{"ha":731,"x_min":49,"x_max":694,"o":"m 388 267 l 49 267 l 49 436 l 342 1125 l 582 1125 l 582 429 l 694 429 l 694 267 l 582 267 l 582 0 l 388 0 l 388 267 m 388 429 l 388 907 l 217 429 l 388 429 z "},"5":{"ha":722,"x_min":78,"x_max":668,"o":"m 367 -18 q 189 23 253 -18 q 101 139 125 64 q 78 326 78 214 l 286 326 q 304 185 286 229 q 375 142 322 142 q 436 169 417 142 q 460 245 456 197 q 465 383 465 293 q 447 537 465 486 q 369 588 428 588 q 274 486 294 588 l 89 486 l 104 1125 l 622 1125 l 622 940 l 281 940 l 268 692 q 335 731 288 715 q 436 747 382 747 q 610 654 551 747 q 668 393 668 561 q 644 172 668 260 q 555 33 621 83 q 367 -18 489 -18 z "},"6":{"ha":729,"x_min":72,"x_max":676,"o":"m 375 -15 q 147 85 221 -15 q 72 354 72 185 l 72 754 q 139 1038 72 938 q 374 1139 206 1139 q 590 1068 524 1139 q 658 854 657 997 l 660 835 l 456 835 q 440 944 456 913 q 376 975 425 975 q 323 954 342 975 q 297 885 304 933 q 289 747 289 836 l 289 633 q 347 681 307 664 q 439 699 388 699 q 620 612 564 699 q 676 375 676 525 q 607 87 676 189 q 375 -15 538 -15 m 378 144 q 444 191 426 144 q 461 339 461 238 q 457 449 461 410 q 434 511 453 488 q 376 535 415 535 q 324 519 347 535 q 289 483 301 504 l 289 304 q 378 144 289 144 z "},"7":{"ha":668,"x_min":82,"x_max":597,"o":"m 388 961 l 82 961 l 82 1125 l 597 1125 l 597 985 l 360 0 l 151 0 l 388 961 z "},"8":{"ha":724,"x_min":60,"x_max":663,"o":"m 361 -17 q 60 325 60 -17 q 93 489 60 419 q 192 592 126 558 q 108 692 140 629 q 76 846 76 756 q 150 1062 76 985 q 361 1139 224 1139 q 571 1063 499 1139 q 643 850 643 986 q 613 692 643 756 q 531 592 582 628 q 629 486 596 558 q 663 315 663 414 q 590 71 663 158 q 361 -17 518 -17 m 361 672 q 440 846 440 672 q 421 942 440 907 q 361 978 401 978 q 300 942 321 978 q 279 846 279 907 q 361 672 279 672 m 361 143 q 434 192 415 143 q 453 317 453 242 q 434 449 453 400 q 361 497 415 497 q 288 448 307 497 q 269 317 269 399 q 288 192 269 242 q 361 143 307 143 z "},"9":{"ha":729,"x_min":60,"x_max":665,"o":"m 361 -15 q 145 56 211 -15 q 78 272 79 128 l 78 289 l 281 289 q 297 181 281 213 q 363 149 313 149 q 415 169 397 149 q 439 238 432 190 q 446 376 446 286 l 446 490 q 389 442 428 460 q 299 425 350 425 q 117 517 174 425 q 60 760 60 608 q 363 1139 60 1139 q 592 1043 518 1139 q 665 779 665 947 l 665 369 q 598 86 665 188 q 361 -15 531 -15 m 364 589 q 446 640 415 589 l 446 819 q 428 936 446 893 q 363 979 410 979 q 296 933 313 979 q 279 785 279 886 q 283 674 279 713 q 306 613 288 636 q 364 589 325 589 z "},"\u0000":{"ha":0,"x_min":0,"x_max":0,"o":""},"\r":{"ha":347,"x_min":0,"x_max":0,"o":""}," ":{"ha":347,"x_min":0,"x_max":0,"o":""},"A":{"ha":747,"x_min":29,"x_max":718,"o":"m 247 1125 l 501 1125 l 718 0 l 507 0 l 465 247 l 288 247 l 244 0 l 29 0 l 247 1125 m 443 389 l 375 842 l 308 389 l 443 389 z "},"Á":{"ha":747,"x_min":29,"x_max":718,"o":"m 247 1125 l 501 1125 l 718 0 l 507 0 l 465 247 l 288 247 l 244 0 l 29 0 l 247 1125 m 443 389 l 375 842 l 308 389 l 443 389 m 393 1488 l 607 1488 l 436 1208 l 308 1208 l 393 1488 z "},"Ă":{"ha":747,"x_min":29,"x_max":718,"o":"m 247 1125 l 501 1125 l 718 0 l 507 0 l 465 247 l 288 247 l 244 0 l 29 0 l 247 1125 m 443 389 l 375 842 l 308 389 l 443 389 m 375 1214 q 220 1269 276 1214 q 164 1425 164 1325 l 283 1425 q 304 1348 283 1372 q 375 1324 325 1324 q 445 1349 424 1324 q 467 1425 467 1374 l 585 1425 q 529 1269 585 1325 q 375 1214 474 1214 z "},"Ắ":{"ha":747,"x_min":29,"x_max":718,"o":"m 247 1125 l 501 1125 l 718 0 l 507 0 l 465 247 l 288 247 l 244 0 l 29 0 l 247 1125 m 443 389 l 375 842 l 308 389 l 443 389 m 383 1633 l 560 1633 l 408 1472 l 286 1472 l 383 1633 m 375 1204 q 220 1260 276 1204 q 164 1415 164 1315 l 283 1415 q 304 1338 283 1363 q 375 1314 325 1314 q 445 1339 424 1314 q 467 1415 467 1364 l 585 1415 q 529 1260 585 1315 q 375 1204 474 1204 z "},"Ặ":{"ha":747,"x_min":29,"x_max":718,"o":"m 247 1125 l 501 1125 l 718 0 l 507 0 l 465 247 l 288 247 l 244 0 l 29 0 l 247 1125 m 443 389 l 375 842 l 308 389 l 443 389 m 282 -94 l 465 -94 l 465 -279 l 282 -279 l 282 -94 m 375 1214 q 220 1269 276 1214 q 164 1425 164 1325 l 283 1425 q 304 1348 283 1372 q 375 1324 325 1324 q 445 1349 424 1324 q 467 1425 467 1374 l 585 1425 q 529 1269 585 1325 q 375 1214 474 1214 z "},"Ằ":{"ha":747,"x_min":29,"x_max":718,"o":"m 247 1125 l 501 1125 l 718 0 l 507 0 l 465 247 l 288 247 l 244 0 l 29 0 l 247 1125 m 443 389 l 375 842 l 308 389 l 443 389 m 188 1633 l 364 1633 l 461 1472 l 340 1472 l 188 1633 m 375 1204 q 220 1260 276 1204 q 164 1415 164 1315 l 283 1415 q 304 1338 283 1363 q 375 1314 325 1314 q 445 1339 424 1314 q 467 1415 467 1364 l 585 1415 q 529 1260 585 1315 q 375 1204 474 1204 z "},"Ẳ":{"ha":747,"x_min":29,"x_max":718,"o":"m 247 1125 l 501 1125 l 718 0 l 507 0 l 465 247 l 288 247 l 244 0 l 29 0 l 247 1125 m 443 389 l 375 842 l 308 389 l 443 389 m 331 1494 q 371 1534 357 1515 q 385 1576 385 1553 q 367 1617 385 1603 q 319 1632 349 1632 q 250 1619 285 1632 l 250 1710 q 363 1729 300 1729 q 475 1695 432 1729 q 518 1596 518 1661 q 484 1498 518 1538 q 390 1429 450 1458 l 331 1494 m 375 1214 q 220 1269 276 1214 q 164 1425 164 1325 l 283 1425 q 304 1348 283 1372 q 375 1324 325 1324 q 445 1349 424 1324 q 467 1425 467 1374 l 585 1425 q 529 1269 585 1325 q 375 1214 474 1214 z "},"Ẵ":{"ha":747,"x_min":29,"x_max":718,"o":"m 247 1125 l 501 1125 l 718 0 l 507 0 l 465 247 l 288 247 l 244 0 l 29 0 l 247 1125 m 443 389 l 375 842 l 308 389 l 443 389 m 375 1214 q 220 1269 276 1214 q 164 1425 164 1325 l 283 1425 q 304 1348 283 1372 q 375 1324 325 1324 q 445 1349 424 1324 q 467 1425 467 1374 l 585 1425 q 529 1269 585 1325 q 375 1214 474 1214 m 486 1499 q 438 1508 461 1499 q 386 1535 415 1517 q 311 1564 339 1564 q 261 1507 261 1564 l 158 1507 q 279 1694 156 1694 q 324 1686 303 1694 q 372 1661 346 1678 q 415 1640 397 1647 q 453 1632 433 1632 q 496 1686 496 1632 l 592 1686 q 570 1551 592 1603 q 486 1499 549 1499 z "},"Â":{"ha":747,"x_min":29,"x_max":718,"o":"m 247 1125 l 501 1125 l 718 0 l 507 0 l 465 247 l 288 247 l 244 0 l 29 0 l 247 1125 m 443 389 l 375 842 l 308 389 l 443 389 m 285 1481 l 463 1481 l 594 1219 l 440 1219 l 374 1386 l 308 1219 l 156 1219 l 285 1481 z "},"Ấ":{"ha":747,"x_min":29,"x_max":794,"o":"m 247 1125 l 501 1125 l 718 0 l 507 0 l 465 247 l 288 247 l 244 0 l 29 0 l 247 1125 m 443 389 l 375 842 l 308 389 l 443 389 m 633 1547 l 794 1547 l 674 1379 l 560 1379 l 633 1547 m 285 1447 l 463 1447 l 594 1219 l 444 1219 l 374 1358 l 304 1219 l 156 1219 l 285 1447 z "},"Ậ":{"ha":747,"x_min":29,"x_max":718,"o":"m 247 1125 l 501 1125 l 718 0 l 507 0 l 465 247 l 288 247 l 244 0 l 29 0 l 247 1125 m 443 389 l 375 842 l 308 389 l 443 389 m 285 1447 l 463 1447 l 594 1219 l 444 1219 l 374 1358 l 304 1219 l 156 1219 l 285 1447 m 282 -94 l 465 -94 l 465 -279 l 282 -279 l 282 -94 z "},"Ầ":{"ha":747,"x_min":29,"x_max":718,"o":"m 247 1125 l 501 1125 l 718 0 l 507 0 l 465 247 l 288 247 l 244 0 l 29 0 l 247 1125 m 443 389 l 375 842 l 308 389 l 443 389 m 479 1547 l 640 1547 l 714 1379 l 600 1379 l 479 1547 m 285 1447 l 463 1447 l 594 1219 l 444 1219 l 374 1358 l 304 1219 l 156 1219 l 285 1447 z "},"Ẩ":{"ha":747,"x_min":29,"x_max":740,"o":"m 247 1125 l 501 1125 l 718 0 l 507 0 l 465 247 l 288 247 l 244 0 l 29 0 l 247 1125 m 443 389 l 375 842 l 308 389 l 443 389 m 551 1410 q 592 1449 579 1431 q 606 1492 606 1468 q 588 1533 606 1518 q 542 1547 571 1547 q 472 1535 507 1547 l 472 1625 q 583 1644 522 1644 q 697 1610 654 1644 q 740 1511 740 1576 q 706 1413 740 1451 q 613 1344 672 1375 l 551 1410 m 285 1447 l 463 1447 l 594 1219 l 444 1219 l 374 1358 l 304 1219 l 156 1219 l 285 1447 z "},"Ẫ":{"ha":747,"x_min":29,"x_max":718,"o":"m 247 1125 l 501 1125 l 718 0 l 507 0 l 465 247 l 288 247 l 244 0 l 29 0 l 247 1125 m 443 389 l 375 842 l 308 389 l 443 389 m 285 1447 l 463 1447 l 594 1219 l 444 1219 l 374 1358 l 304 1219 l 156 1219 l 285 1447 m 486 1515 q 438 1524 461 1515 q 386 1551 415 1533 q 311 1581 339 1581 q 261 1524 261 1581 l 158 1524 q 279 1711 156 1711 q 324 1703 303 1711 q 372 1678 346 1694 q 415 1656 397 1664 q 453 1649 433 1649 q 496 1703 496 1649 l 592 1703 q 570 1567 592 1619 q 486 1515 549 1515 z "},"Ȁ":{"ha":747,"x_min":29,"x_max":718,"o":"m 247 1125 l 501 1125 l 718 0 l 507 0 l 465 247 l 288 247 l 244 0 l 29 0 l 247 1125 m 443 389 l 375 842 l 308 389 l 443 389 m 72 1485 l 240 1485 l 328 1210 l 215 1210 l 72 1485 m 322 1485 l 478 1485 l 554 1210 l 444 1210 l 322 1485 z "},"Ä":{"ha":747,"x_min":29,"x_max":718,"o":"m 247 1125 l 501 1125 l 718 0 l 507 0 l 465 247 l 288 247 l 244 0 l 29 0 l 247 1125 m 443 389 l 375 842 l 308 389 l 443 389 m 143 1447 l 317 1447 l 317 1253 l 143 1253 l 143 1447 m 432 1447 l 607 1447 l 607 1253 l 432 1253 l 432 1447 z "},"Ạ":{"ha":747,"x_min":29,"x_max":718,"o":"m 247 1125 l 501 1125 l 718 0 l 507 0 l 465 247 l 288 247 l 244 0 l 29 0 l 247 1125 m 443 389 l 375 842 l 308 389 l 443 389 m 282 -94 l 465 -94 l 465 -279 l 282 -279 l 282 -94 z "},"À":{"ha":747,"x_min":29,"x_max":718,"o":"m 247 1125 l 501 1125 l 718 0 l 507 0 l 465 247 l 288 247 l 244 0 l 29 0 l 247 1125 m 443 389 l 375 842 l 308 389 l 443 389 m 143 1488 l 358 1488 l 442 1208 l 315 1208 l 143 1488 z "},"Ả":{"ha":747,"x_min":29,"x_max":718,"o":"m 247 1125 l 501 1125 l 718 0 l 507 0 l 465 247 l 288 247 l 244 0 l 29 0 l 247 1125 m 443 389 l 375 842 l 308 389 l 443 389 m 306 1264 q 381 1306 358 1289 q 403 1351 403 1324 q 322 1401 403 1401 q 240 1392 279 1401 l 240 1482 q 375 1500 310 1500 q 494 1467 447 1500 q 542 1365 542 1433 q 498 1262 542 1300 q 375 1196 454 1224 l 306 1264 z "},"Ȃ":{"ha":747,"x_min":29,"x_max":718,"o":"m 247 1125 l 501 1125 l 718 0 l 507 0 l 465 247 l 288 247 l 244 0 l 29 0 l 247 1125 m 443 389 l 375 842 l 308 389 l 443 389 m 164 1228 q 219 1388 165 1331 q 375 1446 274 1446 q 532 1388 478 1446 q 586 1228 586 1331 l 467 1228 q 446 1310 467 1285 q 375 1336 425 1336 q 304 1311 325 1336 q 283 1228 283 1286 l 164 1228 z "},"Ā":{"ha":747,"x_min":29,"x_max":718,"o":"m 247 1125 l 501 1125 l 718 0 l 507 0 l 465 247 l 288 247 l 244 0 l 29 0 l 247 1125 m 443 389 l 375 842 l 308 389 l 443 389 m 196 1357 l 554 1357 l 554 1253 l 196 1253 l 196 1357 z "},"Ą":{"ha":747,"x_min":29,"x_max":743,"o":"m 247 1125 l 501 1125 l 718 0 l 507 0 l 465 247 l 288 247 l 244 0 l 29 0 l 247 1125 m 443 389 l 375 842 l 308 389 l 443 389 m 674 -353 q 519 -323 581 -353 q 458 -208 458 -293 q 494 -94 458 -154 q 576 0 529 -35 l 672 0 q 608 -171 608 -94 q 701 -249 608 -249 q 743 -246 721 -249 l 721 -349 q 674 -353 701 -353 z "},"Å":{"ha":747,"x_min":29,"x_max":718,"o":"m 247 1125 l 501 1125 l 718 0 l 507 0 l 465 247 l 288 247 l 244 0 l 29 0 l 247 1125 m 443 389 l 375 842 l 308 389 l 443 389 m 374 1178 q 259 1218 304 1178 q 214 1331 214 1258 q 259 1443 214 1403 q 374 1483 304 1483 q 490 1442 443 1483 q 536 1331 536 1401 q 490 1218 536 1258 q 374 1178 444 1178 m 374 1257 q 427 1278 408 1257 q 446 1331 446 1299 q 427 1385 446 1364 q 374 1406 408 1406 q 322 1385 340 1406 q 303 1331 303 1364 q 322 1278 303 1299 q 374 1257 340 1257 z "},"Ǻ":{"ha":747,"x_min":29,"x_max":718,"o":"m 247 1125 l 501 1125 l 718 0 l 507 0 l 465 247 l 288 247 l 244 0 l 29 0 l 247 1125 m 443 389 l 375 842 l 308 389 l 443 389 m 374 1178 q 259 1218 304 1178 q 214 1331 214 1258 q 259 1443 214 1403 q 374 1483 304 1483 q 490 1442 443 1483 q 536 1331 536 1401 q 490 1218 536 1258 q 374 1178 444 1178 m 374 1257 q 427 1278 408 1257 q 446 1331 446 1299 q 427 1385 446 1364 q 374 1406 408 1406 q 322 1385 340 1406 q 303 1331 303 1364 q 322 1278 303 1299 q 374 1257 340 1257 m 393 1825 l 607 1825 l 436 1546 l 308 1546 l 393 1825 z "},"Ã":{"ha":747,"x_min":29,"x_max":718,"o":"m 247 1125 l 501 1125 l 718 0 l 507 0 l 465 247 l 288 247 l 244 0 l 29 0 l 247 1125 m 443 389 l 375 842 l 308 389 l 443 389 m 486 1260 q 438 1269 461 1260 q 386 1296 415 1278 q 311 1325 339 1325 q 261 1268 261 1325 l 158 1268 q 279 1456 156 1456 q 324 1447 303 1456 q 372 1422 346 1439 q 415 1401 397 1408 q 453 1393 433 1393 q 496 1447 496 1393 l 592 1447 q 570 1312 592 1364 q 486 1260 549 1260 z "},"Æ":{"ha":961,"x_min":-29,"x_max":932,"o":"m 457 1111 l 932 1111 l 932 954 l 685 954 l 685 661 l 861 661 l 861 501 l 685 501 l 685 157 l 932 157 l 932 0 l 486 0 l 486 246 l 300 246 l 199 0 l -29 0 l 457 1111 m 486 392 l 486 763 l 347 392 l 486 392 z "},"Ǽ":{"ha":961,"x_min":-29,"x_max":932,"o":"m 457 1111 l 932 1111 l 932 954 l 685 954 l 685 661 l 861 661 l 861 501 l 685 501 l 685 157 l 932 157 l 932 0 l 486 0 l 486 246 l 300 246 l 199 0 l -29 0 l 457 1111 m 486 392 l 486 763 l 347 392 l 486 392 m 604 1488 l 818 1488 l 647 1208 l 519 1208 l 604 1488 z "},"B":{"ha":799,"x_min":85,"x_max":749,"o":"m 85 1125 l 371 1125 q 624 1064 533 1125 q 715 843 715 1003 q 551 604 715 632 q 749 322 749 576 q 665 80 749 160 q 421 0 581 0 l 85 0 l 85 1125 m 371 671 q 485 708 454 671 q 515 828 515 746 q 476 935 515 903 q 356 968 438 968 l 313 968 l 313 671 l 371 671 m 378 161 q 495 203 461 161 q 529 335 529 244 q 494 474 529 432 q 374 517 458 517 l 313 517 l 313 161 l 378 161 z "},"Ḃ":{"ha":799,"x_min":85,"x_max":749,"o":"m 85 1125 l 371 1125 q 624 1064 533 1125 q 715 843 715 1003 q 551 604 715 632 q 749 322 749 576 q 665 80 749 160 q 421 0 581 0 l 85 0 l 85 1125 m 371 671 q 485 708 454 671 q 515 828 515 746 q 476 935 515 903 q 356 968 438 968 l 313 968 l 313 671 l 371 671 m 378 161 q 495 203 461 161 q 529 335 529 244 q 494 474 529 432 q 374 517 458 517 l 313 517 l 313 161 l 378 161 m 300 1436 l 500 1436 l 500 1233 l 300 1233 l 300 1436 z "},"C":{"ha":768,"x_min":68,"x_max":713,"o":"m 397 -15 q 143 81 218 -15 q 68 360 68 178 l 68 763 q 142 1044 68 949 q 397 1139 217 1139 q 641 1055 569 1139 q 713 814 713 971 l 713 719 l 490 719 l 490 824 q 485 904 490 874 q 460 955 481 935 q 399 975 440 975 q 318 935 336 975 q 300 817 300 894 l 300 306 q 321 188 300 226 q 399 149 342 149 q 474 188 457 149 q 490 306 490 228 l 490 415 l 713 415 l 713 322 q 642 73 713 161 q 397 -15 571 -15 z "},"Ć":{"ha":768,"x_min":68,"x_max":713,"o":"m 397 -15 q 143 81 218 -15 q 68 360 68 178 l 68 763 q 142 1044 68 949 q 397 1139 217 1139 q 641 1055 569 1139 q 713 814 713 971 l 713 719 l 490 719 l 490 824 q 485 904 490 874 q 460 955 481 935 q 399 975 440 975 q 318 935 336 975 q 300 817 300 894 l 300 306 q 321 188 300 226 q 399 149 342 149 q 474 188 457 149 q 490 306 490 228 l 490 415 l 713 415 l 713 322 q 642 73 713 161 q 397 -15 571 -15 m 411 1488 l 625 1488 l 454 1208 l 326 1208 l 411 1488 z "},"Č":{"ha":768,"x_min":68,"x_max":713,"o":"m 397 -15 q 143 81 218 -15 q 68 360 68 178 l 68 763 q 142 1044 68 949 q 397 1139 217 1139 q 641 1055 569 1139 q 713 814 713 971 l 713 719 l 490 719 l 490 824 q 485 904 490 874 q 460 955 481 935 q 399 975 440 975 q 318 935 336 975 q 300 817 300 894 l 300 306 q 321 188 300 226 q 399 149 342 149 q 474 188 457 149 q 490 306 490 228 l 490 415 l 713 415 l 713 322 q 642 73 713 161 q 397 -15 571 -15 m 169 1464 l 319 1464 l 393 1310 l 467 1464 l 617 1464 l 494 1210 l 290 1210 l 169 1464 z "},"Ç":{"ha":768,"x_min":68,"x_max":713,"o":"m 490 719 l 490 824 q 485 904 490 874 q 460 955 481 935 q 399 975 440 975 q 318 935 336 975 q 300 817 300 894 l 300 306 q 321 188 300 226 q 399 149 342 149 q 474 188 457 149 q 490 306 490 228 l 490 415 l 713 415 l 713 322 q 648 81 713 168 q 425 -15 583 -7 l 425 -89 q 560 -124 511 -89 q 608 -228 608 -160 q 552 -336 608 -300 q 410 -372 496 -372 q 307 -357 360 -372 l 307 -264 q 385 -275 349 -275 q 447 -263 424 -275 q 471 -225 471 -251 q 435 -173 471 -190 q 344 -151 399 -156 l 344 -12 q 131 97 194 1 q 68 360 68 192 l 68 763 q 142 1044 68 949 q 397 1139 217 1139 q 641 1055 569 1139 q 713 814 713 971 l 713 719 l 490 719 z "},"Ĉ":{"ha":768,"x_min":68,"x_max":713,"o":"m 397 -15 q 143 81 218 -15 q 68 360 68 178 l 68 763 q 142 1044 68 949 q 397 1139 217 1139 q 641 1055 569 1139 q 713 814 713 971 l 713 719 l 490 719 l 490 824 q 485 904 490 874 q 460 955 481 935 q 399 975 440 975 q 318 935 336 975 q 300 817 300 894 l 300 306 q 321 188 300 226 q 399 149 342 149 q 474 188 457 149 q 490 306 490 228 l 490 415 l 713 415 l 713 322 q 642 73 713 161 q 397 -15 571 -15 m 303 1481 l 481 1481 l 613 1219 l 458 1219 l 392 1386 l 326 1219 l 174 1219 l 303 1481 z "},"Ċ":{"ha":768,"x_min":68,"x_max":713,"o":"m 397 -15 q 143 81 218 -15 q 68 360 68 178 l 68 763 q 142 1044 68 949 q 397 1139 217 1139 q 641 1055 569 1139 q 713 814 713 971 l 713 719 l 490 719 l 490 824 q 485 904 490 874 q 460 955 481 935 q 399 975 440 975 q 318 935 336 975 q 300 817 300 894 l 300 306 q 321 188 300 226 q 399 149 342 149 q 474 188 457 149 q 490 306 490 228 l 490 415 l 713 415 l 713 322 q 642 73 713 161 q 397 -15 571 -15 m 293 1436 l 493 1436 l 493 1233 l 293 1233 l 293 1436 z "},"D":{"ha":796,"x_min":85,"x_max":729,"o":"m 85 1125 l 360 1125 q 581 1088 501 1125 q 695 975 661 1051 q 729 772 729 899 l 729 363 q 696 155 729 233 q 583 38 663 76 q 365 0 504 0 l 85 0 l 85 1125 m 363 160 q 451 178 422 160 q 487 233 479 197 q 494 338 494 269 l 494 803 q 485 899 494 867 q 449 948 476 932 q 361 964 421 964 l 313 964 l 313 160 l 363 160 z "},"Ǳ":{"ha":1392,"x_min":85,"x_max":1356,"o":"m 85 1125 l 360 1125 q 581 1088 501 1125 q 695 975 661 1051 q 729 772 729 899 l 729 363 q 696 155 729 233 q 583 38 663 76 q 365 0 504 0 l 85 0 l 85 1125 m 363 160 q 451 178 422 160 q 487 233 479 197 q 494 338 494 269 l 494 803 q 485 899 494 867 q 449 948 476 932 q 361 964 421 964 l 313 964 l 313 160 l 363 160 m 839 142 l 1126 968 l 853 968 l 853 1125 l 1353 1125 l 1353 1000 l 1060 156 l 1356 156 l 1356 0 l 839 0 l 839 142 z "},"Ǆ":{"ha":1392,"x_min":85,"x_max":1356,"o":"m 85 1125 l 360 1125 q 581 1088 501 1125 q 695 975 661 1051 q 729 772 729 899 l 729 363 q 696 155 729 233 q 583 38 663 76 q 365 0 504 0 l 85 0 l 85 1125 m 363 160 q 451 178 422 160 q 487 233 479 197 q 494 338 494 269 l 494 803 q 485 899 494 867 q 449 948 476 932 q 361 964 421 964 l 313 964 l 313 160 l 363 160 m 839 142 l 1126 968 l 853 968 l 853 1125 l 1353 1125 l 1353 1000 l 1060 156 l 1356 156 l 1356 0 l 839 0 l 839 142 m 871 1464 l 1021 1464 l 1094 1310 l 1168 1464 l 1318 1464 l 1196 1210 l 992 1210 l 871 1464 z "},"Ð":{"ha":768,"x_min":13,"x_max":719,"o":"m 75 519 l 13 519 l 13 636 l 75 636 l 75 1125 l 351 1125 q 573 1088 493 1125 q 686 975 653 1051 q 719 772 719 899 l 719 363 q 686 155 719 233 q 574 38 653 76 q 357 0 496 0 l 75 0 l 75 519 m 354 160 q 442 178 414 160 q 478 233 471 197 q 486 338 486 269 l 486 803 q 477 899 486 867 q 440 948 468 932 q 353 964 413 964 l 304 964 l 304 636 l 367 636 l 367 519 l 304 519 l 304 160 l 354 160 z "},"Ď":{"ha":796,"x_min":85,"x_max":729,"o":"m 85 1125 l 360 1125 q 581 1088 501 1125 q 695 975 661 1051 q 729 772 729 899 l 729 363 q 696 155 729 233 q 583 38 663 76 q 365 0 504 0 l 85 0 l 85 1125 m 363 160 q 451 178 422 160 q 487 233 479 197 q 494 338 494 269 l 494 803 q 485 899 494 867 q 449 948 476 932 q 361 964 421 964 l 313 964 l 313 160 l 363 160 m 175 1464 l 325 1464 l 399 1310 l 472 1464 l 622 1464 l 500 1210 l 296 1210 l 175 1464 z "},"Đ":{"ha":801,"x_min":19,"x_max":733,"o":"m 89 524 l 19 524 l 19 632 l 89 632 l 89 1125 l 365 1125 q 587 1088 507 1125 q 700 975 667 1051 q 733 772 733 899 l 733 363 q 700 155 733 233 q 588 38 667 76 q 371 0 510 0 l 89 0 l 89 524 m 372 160 q 460 178 432 160 q 497 233 489 197 q 504 338 504 269 l 504 803 q 495 899 504 867 q 458 948 486 932 q 371 964 431 964 l 314 964 l 314 632 l 385 632 l 385 524 l 314 524 l 314 160 l 372 160 z "},"Ḋ":{"ha":796,"x_min":85,"x_max":729,"o":"m 85 1125 l 360 1125 q 581 1088 501 1125 q 695 975 661 1051 q 729 772 729 899 l 729 363 q 696 155 729 233 q 583 38 663 76 q 365 0 504 0 l 85 0 l 85 1125 m 363 160 q 451 178 422 160 q 487 233 479 197 q 494 338 494 269 l 494 803 q 485 899 494 867 q 449 948 476 932 q 361 964 421 964 l 313 964 l 313 160 l 363 160 m 299 1436 l 499 1436 l 499 1233 l 299 1233 l 299 1436 z "},"ǲ":{"ha":1326,"x_min":85,"x_max":1290,"o":"m 85 1125 l 360 1125 q 581 1088 501 1125 q 695 975 661 1051 q 729 772 729 899 l 729 363 q 696 155 729 233 q 583 38 663 76 q 365 0 504 0 l 85 0 l 85 1125 m 363 160 q 451 178 422 160 q 487 233 479 197 q 494 338 494 269 l 494 803 q 485 899 494 867 q 449 948 476 932 q 361 964 421 964 l 313 964 l 313 160 l 363 160 m 843 136 l 1069 650 l 863 650 l 863 803 l 1289 803 l 1289 678 l 1061 154 l 1290 154 l 1290 0 l 843 0 l 843 136 z "},"ǅ":{"ha":1326,"x_min":85,"x_max":1290,"o":"m 85 1125 l 360 1125 q 581 1088 501 1125 q 695 975 661 1051 q 729 772 729 899 l 729 363 q 696 155 729 233 q 583 38 663 76 q 365 0 504 0 l 85 0 l 85 1125 m 363 160 q 451 178 422 160 q 487 233 479 197 q 494 338 494 269 l 494 803 q 485 899 494 867 q 449 948 476 932 q 361 964 421 964 l 313 964 l 313 160 l 363 160 m 843 136 l 1069 650 l 863 650 l 863 803 l 1289 803 l 1289 678 l 1061 154 l 1290 154 l 1290 0 l 843 0 l 843 136 m 839 1142 l 989 1142 l 1063 988 l 1136 1142 l 1286 1142 l 1164 888 l 960 888 l 839 1142 z "},"E":{"ha":610,"x_min":85,"x_max":578,"o":"m 85 1125 l 575 1125 l 575 967 l 313 967 l 313 668 l 515 668 l 515 508 l 313 508 l 313 156 l 578 156 l 578 0 l 85 0 l 85 1125 z "},"É":{"ha":610,"x_min":85,"x_max":578,"o":"m 85 1125 l 575 1125 l 575 967 l 313 967 l 313 668 l 515 668 l 515 508 l 313 508 l 313 156 l 578 156 l 578 0 l 85 0 l 85 1125 m 351 1488 l 565 1488 l 394 1208 l 267 1208 l 351 1488 z "},"Ĕ":{"ha":610,"x_min":85,"x_max":578,"o":"m 85 1125 l 575 1125 l 575 967 l 313 967 l 313 668 l 515 668 l 515 508 l 313 508 l 313 156 l 578 156 l 578 0 l 85 0 l 85 1125 m 333 1214 q 178 1269 235 1214 q 122 1425 122 1325 l 242 1425 q 263 1348 242 1372 q 333 1324 283 1324 q 403 1349 382 1324 q 425 1425 425 1374 l 543 1425 q 488 1269 543 1325 q 333 1214 432 1214 z "},"Ě":{"ha":610,"x_min":85,"x_max":578,"o":"m 85 1125 l 575 1125 l 575 967 l 313 967 l 313 668 l 515 668 l 515 508 l 313 508 l 313 156 l 578 156 l 578 0 l 85 0 l 85 1125 m 110 1464 l 260 1464 l 333 1310 l 407 1464 l 557 1464 l 435 1210 l 231 1210 l 110 1464 z "},"Ê":{"ha":610,"x_min":85,"x_max":578,"o":"m 85 1125 l 575 1125 l 575 967 l 313 967 l 313 668 l 515 668 l 515 508 l 313 508 l 313 156 l 578 156 l 578 0 l 85 0 l 85 1125 m 243 1481 l 421 1481 l 553 1219 l 399 1219 l 332 1386 l 267 1219 l 114 1219 l 243 1481 z "},"Ế":{"ha":610,"x_min":85,"x_max":753,"o":"m 85 1125 l 575 1125 l 575 967 l 313 967 l 313 668 l 515 668 l 515 508 l 313 508 l 313 156 l 578 156 l 578 0 l 85 0 l 85 1125 m 592 1547 l 753 1547 l 632 1379 l 518 1379 l 592 1547 m 243 1447 l 421 1447 l 553 1219 l 403 1219 l 332 1358 l 263 1219 l 114 1219 l 243 1447 z "},"Ệ":{"ha":610,"x_min":85,"x_max":578,"o":"m 85 1125 l 575 1125 l 575 967 l 313 967 l 313 668 l 515 668 l 515 508 l 313 508 l 313 156 l 578 156 l 578 0 l 85 0 l 85 1125 m 243 1447 l 421 1447 l 553 1219 l 403 1219 l 332 1358 l 263 1219 l 114 1219 l 243 1447 m 214 -94 l 397 -94 l 397 -279 l 214 -279 l 214 -94 z "},"Ề":{"ha":610,"x_min":85,"x_max":672,"o":"m 85 1125 l 575 1125 l 575 967 l 313 967 l 313 668 l 515 668 l 515 508 l 313 508 l 313 156 l 578 156 l 578 0 l 85 0 l 85 1125 m 438 1547 l 599 1547 l 672 1379 l 558 1379 l 438 1547 m 243 1447 l 421 1447 l 553 1219 l 403 1219 l 332 1358 l 263 1219 l 114 1219 l 243 1447 z "},"Ể":{"ha":610,"x_min":85,"x_max":699,"o":"m 85 1125 l 575 1125 l 575 967 l 313 967 l 313 668 l 515 668 l 515 508 l 313 508 l 313 156 l 578 156 l 578 0 l 85 0 l 85 1125 m 510 1410 q 551 1449 538 1431 q 564 1492 564 1468 q 547 1533 564 1518 q 500 1547 529 1547 q 431 1535 465 1547 l 431 1625 q 542 1644 481 1644 q 656 1610 613 1644 q 699 1511 699 1576 q 665 1413 699 1451 q 571 1344 631 1375 l 510 1410 m 243 1447 l 421 1447 l 553 1219 l 403 1219 l 332 1358 l 263 1219 l 114 1219 l 243 1447 z "},"Ễ":{"ha":610,"x_min":85,"x_max":578,"o":"m 85 1125 l 575 1125 l 575 967 l 313 967 l 313 668 l 515 668 l 515 508 l 313 508 l 313 156 l 578 156 l 578 0 l 85 0 l 85 1125 m 243 1447 l 421 1447 l 553 1219 l 403 1219 l 332 1358 l 263 1219 l 114 1219 l 243 1447 m 444 1515 q 397 1524 419 1515 q 344 1551 374 1533 q 269 1581 297 1581 q 219 1524 219 1581 l 117 1524 q 238 1711 114 1711 q 283 1703 261 1711 q 331 1678 304 1694 q 374 1656 356 1664 q 411 1649 392 1649 q 454 1703 454 1649 l 550 1703 q 528 1567 550 1619 q 444 1515 507 1515 z "},"Ȅ":{"ha":610,"x_min":31,"x_max":578,"o":"m 85 1125 l 575 1125 l 575 967 l 313 967 l 313 668 l 515 668 l 515 508 l 313 508 l 313 156 l 578 156 l 578 0 l 85 0 l 85 1125 m 31 1485 l 199 1485 l 286 1210 l 174 1210 l 31 1485 m 281 1485 l 436 1485 l 513 1210 l 403 1210 l 281 1485 z "},"Ë":{"ha":610,"x_min":85,"x_max":578,"o":"m 85 1125 l 575 1125 l 575 967 l 313 967 l 313 668 l 515 668 l 515 508 l 313 508 l 313 156 l 578 156 l 578 0 l 85 0 l 85 1125 m 101 1447 l 275 1447 l 275 1253 l 101 1253 l 101 1447 m 390 1447 l 565 1447 l 565 1253 l 390 1253 l 390 1447 z "},"Ė":{"ha":610,"x_min":85,"x_max":578,"o":"m 85 1125 l 575 1125 l 575 967 l 313 967 l 313 668 l 515 668 l 515 508 l 313 508 l 313 156 l 578 156 l 578 0 l 85 0 l 85 1125 m 233 1436 l 433 1436 l 433 1233 l 233 1233 l 233 1436 z "},"Ẹ":{"ha":610,"x_min":85,"x_max":578,"o":"m 85 1125 l 575 1125 l 575 967 l 313 967 l 313 668 l 515 668 l 515 508 l 313 508 l 313 156 l 578 156 l 578 0 l 85 0 l 85 1125 m 214 -94 l 397 -94 l 397 -279 l 214 -279 l 214 -94 z "},"È":{"ha":610,"x_min":85,"x_max":578,"o":"m 85 1125 l 575 1125 l 575 967 l 313 967 l 313 668 l 515 668 l 515 508 l 313 508 l 313 156 l 578 156 l 578 0 l 85 0 l 85 1125 m 101 1488 l 317 1488 l 400 1208 l 274 1208 l 101 1488 z "},"Ẻ":{"ha":610,"x_min":85,"x_max":578,"o":"m 85 1125 l 575 1125 l 575 967 l 313 967 l 313 668 l 515 668 l 515 508 l 313 508 l 313 156 l 578 156 l 578 0 l 85 0 l 85 1125 m 264 1264 q 339 1306 317 1289 q 361 1351 361 1324 q 281 1401 361 1401 q 199 1392 238 1401 l 199 1482 q 333 1500 268 1500 q 453 1467 406 1500 q 500 1365 500 1433 q 456 1262 500 1300 q 333 1196 413 1224 l 264 1264 z "},"Ȇ":{"ha":610,"x_min":85,"x_max":578,"o":"m 85 1125 l 575 1125 l 575 967 l 313 967 l 313 668 l 515 668 l 515 508 l 313 508 l 313 156 l 578 156 l 578 0 l 85 0 l 85 1125 m 122 1228 q 178 1388 124 1331 q 333 1446 232 1446 q 490 1388 436 1446 q 544 1228 544 1331 l 425 1228 q 404 1310 425 1285 q 333 1336 383 1336 q 263 1311 283 1336 q 242 1228 242 1286 l 122 1228 z "},"Ē":{"ha":610,"x_min":85,"x_max":578,"o":"m 85 1125 l 575 1125 l 575 967 l 313 967 l 313 668 l 515 668 l 515 508 l 313 508 l 313 156 l 578 156 l 578 0 l 85 0 l 85 1125 m 154 1357 l 513 1357 l 513 1253 l 154 1253 l 154 1357 z "},"Ę":{"ha":610,"x_min":85,"x_max":578,"o":"m 85 1125 l 575 1125 l 575 967 l 313 967 l 313 668 l 515 668 l 515 508 l 313 508 l 313 156 l 578 156 l 578 0 l 85 0 l 85 1125 m 486 -353 q 332 -323 393 -353 q 271 -208 271 -293 q 306 -94 271 -154 q 389 0 342 -35 l 485 0 q 421 -171 421 -94 q 514 -249 421 -249 q 556 -246 533 -249 l 533 -349 q 486 -353 514 -353 z "},"Ẽ":{"ha":610,"x_min":85,"x_max":578,"o":"m 85 1125 l 575 1125 l 575 967 l 313 967 l 313 668 l 515 668 l 515 508 l 313 508 l 313 156 l 578 156 l 578 0 l 85 0 l 85 1125 m 444 1260 q 397 1269 419 1260 q 344 1296 374 1278 q 269 1325 297 1325 q 219 1268 219 1325 l 117 1268 q 238 1456 114 1456 q 283 1447 261 1456 q 331 1422 304 1439 q 374 1401 356 1408 q 411 1393 392 1393 q 454 1447 454 1393 l 550 1447 q 528 1312 550 1364 q 444 1260 507 1260 z "},"F":{"ha":590,"x_min":85,"x_max":560,"o":"m 85 1125 l 560 1125 l 560 968 l 313 968 l 313 665 l 522 665 l 522 506 l 313 506 l 313 0 l 85 0 l 85 1125 z "},"Ḟ":{"ha":590,"x_min":85,"x_max":560,"o":"m 85 1125 l 560 1125 l 560 968 l 313 968 l 313 665 l 522 665 l 522 506 l 313 506 l 313 0 l 85 0 l 85 1125 m 196 1436 l 396 1436 l 396 1233 l 196 1233 l 196 1436 z "},"G":{"ha":794,"x_min":68,"x_max":722,"o":"m 372 -17 q 138 84 208 -17 q 68 372 68 185 l 68 749 q 142 1040 68 940 q 397 1139 217 1139 q 644 1054 571 1139 q 718 810 718 969 l 718 744 l 496 744 l 496 824 q 478 938 496 901 q 400 975 461 975 q 319 933 338 975 q 301 813 301 892 l 301 313 q 324 191 301 233 q 407 149 346 149 q 491 194 467 149 q 515 319 515 239 l 515 439 l 406 439 l 406 578 l 722 578 l 722 0 l 572 0 l 557 100 q 372 -17 506 -17 z "},"Ǵ":{"ha":794,"x_min":68,"x_max":722,"o":"m 372 -17 q 138 84 208 -17 q 68 372 68 185 l 68 749 q 142 1040 68 940 q 397 1139 217 1139 q 644 1054 571 1139 q 718 810 718 969 l 718 744 l 496 744 l 496 824 q 478 938 496 901 q 400 975 461 975 q 319 933 338 975 q 301 813 301 892 l 301 313 q 324 191 301 233 q 407 149 346 149 q 491 194 467 149 q 515 319 515 239 l 515 439 l 406 439 l 406 578 l 722 578 l 722 0 l 572 0 l 557 100 q 372 -17 506 -17 m 415 1488 l 629 1488 l 458 1208 l 331 1208 l 415 1488 z "},"Ğ":{"ha":794,"x_min":68,"x_max":722,"o":"m 372 -17 q 138 84 208 -17 q 68 372 68 185 l 68 749 q 142 1040 68 940 q 397 1139 217 1139 q 644 1054 571 1139 q 718 810 718 969 l 718 744 l 496 744 l 496 824 q 478 938 496 901 q 400 975 461 975 q 319 933 338 975 q 301 813 301 892 l 301 313 q 324 191 301 233 q 407 149 346 149 q 491 194 467 149 q 515 319 515 239 l 515 439 l 406 439 l 406 578 l 722 578 l 722 0 l 572 0 l 557 100 q 372 -17 506 -17 m 397 1214 q 242 1269 299 1214 q 186 1425 186 1325 l 306 1425 q 326 1348 306 1372 q 397 1324 347 1324 q 467 1349 446 1324 q 489 1425 489 1374 l 607 1425 q 551 1269 607 1325 q 397 1214 496 1214 z "},"Ǧ":{"ha":794,"x_min":68,"x_max":722,"o":"m 372 -17 q 138 84 208 -17 q 68 372 68 185 l 68 749 q 142 1040 68 940 q 397 1139 217 1139 q 644 1054 571 1139 q 718 810 718 969 l 718 744 l 496 744 l 496 824 q 478 938 496 901 q 400 975 461 975 q 319 933 338 975 q 301 813 301 892 l 301 313 q 324 191 301 233 q 407 149 346 149 q 491 194 467 149 q 515 319 515 239 l 515 439 l 406 439 l 406 578 l 722 578 l 722 0 l 572 0 l 557 100 q 372 -17 506 -17 m 174 1464 l 324 1464 l 397 1310 l 471 1464 l 621 1464 l 499 1210 l 294 1210 l 174 1464 z "},"Ĝ":{"ha":794,"x_min":68,"x_max":722,"o":"m 372 -17 q 138 84 208 -17 q 68 372 68 185 l 68 749 q 142 1040 68 940 q 397 1139 217 1139 q 644 1054 571 1139 q 718 810 718 969 l 718 744 l 496 744 l 496 824 q 478 938 496 901 q 400 975 461 975 q 319 933 338 975 q 301 813 301 892 l 301 313 q 324 191 301 233 q 407 149 346 149 q 491 194 467 149 q 515 319 515 239 l 515 439 l 406 439 l 406 578 l 722 578 l 722 0 l 572 0 l 557 100 q 372 -17 506 -17 m 307 1481 l 485 1481 l 617 1219 l 463 1219 l 396 1386 l 331 1219 l 178 1219 l 307 1481 z "},"Ģ":{"ha":794,"x_min":68,"x_max":722,"o":"m 372 -17 q 138 84 208 -17 q 68 372 68 185 l 68 749 q 142 1040 68 940 q 397 1139 217 1139 q 644 1054 571 1139 q 718 810 718 969 l 718 744 l 496 744 l 496 824 q 478 938 496 901 q 400 975 461 975 q 319 933 338 975 q 301 813 301 892 l 301 313 q 324 191 301 233 q 407 149 346 149 q 491 194 467 149 q 515 319 515 239 l 515 439 l 406 439 l 406 578 l 722 578 l 722 0 l 572 0 l 557 100 q 372 -17 506 -17 m 313 -399 q 381 -367 356 -392 q 406 -292 406 -343 l 297 -292 l 297 -93 l 497 -93 l 497 -267 q 458 -419 496 -367 q 333 -474 419 -472 l 313 -399 z "},"Ġ":{"ha":794,"x_min":68,"x_max":722,"o":"m 372 -17 q 138 84 208 -17 q 68 372 68 185 l 68 749 q 142 1040 68 940 q 397 1139 217 1139 q 644 1054 571 1139 q 718 810 718 969 l 718 744 l 496 744 l 496 824 q 478 938 496 901 q 400 975 461 975 q 319 933 338 975 q 301 813 301 892 l 301 313 q 324 191 301 233 q 407 149 346 149 q 491 194 467 149 q 515 319 515 239 l 515 439 l 406 439 l 406 578 l 722 578 l 722 0 l 572 0 l 557 100 q 372 -17 506 -17 m 297 1436 l 497 1436 l 497 1233 l 297 1233 l 297 1436 z "},"H":{"ha":832,"x_min":88,"x_max":744,"o":"m 88 1125 l 317 1125 l 317 664 l 515 664 l 515 1125 l 744 1125 l 744 0 l 515 0 l 515 499 l 317 499 l 317 0 l 88 0 l 88 1125 z "},"Ħ":{"ha":757,"x_min":-10,"x_max":765,"o":"m 60 856 l -10 856 l -10 933 l 60 933 l 60 1125 l 289 1125 l 289 933 l 479 933 l 479 1125 l 708 1125 l 708 933 l 765 933 l 765 856 l 708 856 l 708 0 l 479 0 l 479 499 l 289 499 l 289 0 l 60 0 l 60 856 m 479 664 l 479 856 l 289 856 l 289 664 l 479 664 z "},"Ĥ":{"ha":832,"x_min":88,"x_max":744,"o":"m 88 1125 l 317 1125 l 317 664 l 515 664 l 515 1125 l 744 1125 l 744 0 l 515 0 l 515 499 l 317 499 l 317 0 l 88 0 l 88 1125 m 326 1481 l 504 1481 l 636 1219 l 482 1219 l 415 1386 l 350 1219 l 197 1219 l 326 1481 z "},"I":{"ha":401,"x_min":88,"x_max":315,"o":"m 88 1125 l 315 1125 l 315 0 l 88 0 l 88 1125 z "},"Ĳ":{"ha":872,"x_min":88,"x_max":788,"o":"m 88 1125 l 315 1125 l 315 0 l 88 0 l 88 1125 m 418 132 q 504 140 475 131 q 546 177 533 150 q 558 258 558 204 l 558 1125 l 788 1125 l 788 249 q 763 92 786 151 q 684 2 740 32 q 529 -28 628 -28 l 418 -28 l 418 132 z "},"Í":{"ha":401,"x_min":88,"x_max":433,"o":"m 88 1125 l 315 1125 l 315 0 l 88 0 l 88 1125 m 219 1488 l 433 1488 l 263 1208 l 135 1208 l 219 1488 z "},"Ĭ":{"ha":401,"x_min":-10,"x_max":411,"o":"m 88 1125 l 315 1125 l 315 0 l 88 0 l 88 1125 m 201 1214 q 47 1269 103 1214 q -10 1425 -10 1325 l 110 1425 q 131 1348 110 1372 q 201 1324 151 1324 q 272 1349 250 1324 q 293 1425 293 1374 l 411 1425 q 356 1269 411 1325 q 201 1214 300 1214 z "},"Î":{"ha":401,"x_min":-18,"x_max":421,"o":"m 88 1125 l 315 1125 l 315 0 l 88 0 l 88 1125 m 111 1481 l 289 1481 l 421 1219 l 267 1219 l 200 1386 l 135 1219 l -18 1219 l 111 1481 z "},"Ȉ":{"ha":401,"x_min":-101,"x_max":381,"o":"m 88 1125 l 315 1125 l 315 0 l 88 0 l 88 1125 m -101 1485 l 67 1485 l 154 1210 l 42 1210 l -101 1485 m 149 1485 l 304 1485 l 381 1210 l 271 1210 l 149 1485 z "},"Ï":{"ha":401,"x_min":-31,"x_max":433,"o":"m 88 1125 l 315 1125 l 315 0 l 88 0 l 88 1125 m -31 1447 l 143 1447 l 143 1253 l -31 1253 l -31 1447 m 258 1447 l 433 1447 l 433 1253 l 258 1253 l 258 1447 z "},"İ":{"ha":401,"x_min":88,"x_max":315,"o":"m 88 1125 l 315 1125 l 315 0 l 88 0 l 88 1125 m 101 1436 l 301 1436 l 301 1233 l 101 1233 l 101 1436 z "},"Ị":{"ha":401,"x_min":88,"x_max":315,"o":"m 88 1125 l 315 1125 l 315 0 l 88 0 l 88 1125 m 110 -94 l 293 -94 l 293 -279 l 110 -279 l 110 -94 z "},"Ì":{"ha":401,"x_min":-31,"x_max":315,"o":"m 88 1125 l 315 1125 l 315 0 l 88 0 l 88 1125 m -31 1488 l 185 1488 l 268 1208 l 142 1208 l -31 1488 z "},"Ỉ":{"ha":401,"x_min":67,"x_max":368,"o":"m 88 1125 l 315 1125 l 315 0 l 88 0 l 88 1125 m 132 1264 q 207 1306 185 1289 q 229 1351 229 1324 q 149 1401 229 1401 q 67 1392 106 1401 l 67 1482 q 201 1500 136 1500 q 321 1467 274 1500 q 368 1365 368 1433 q 324 1262 368 1300 q 201 1196 281 1224 l 132 1264 z "},"Ȋ":{"ha":401,"x_min":-10,"x_max":413,"o":"m 88 1125 l 315 1125 l 315 0 l 88 0 l 88 1125 m -10 1228 q 46 1388 -8 1331 q 201 1446 100 1446 q 358 1388 304 1446 q 413 1228 413 1331 l 293 1228 q 272 1310 293 1285 q 201 1336 251 1336 q 131 1311 151 1336 q 110 1228 110 1286 l -10 1228 z "},"Ī":{"ha":401,"x_min":22,"x_max":381,"o":"m 88 1125 l 315 1125 l 315 0 l 88 0 l 88 1125 m 22 1357 l 381 1357 l 381 1253 l 22 1253 l 22 1357 z "},"Į":{"ha":401,"x_min":36,"x_max":321,"o":"m 88 1125 l 315 1125 l 315 0 l 88 0 l 88 1125 m 251 -353 q 97 -323 158 -353 q 36 -208 36 -293 q 72 -94 36 -154 q 154 0 107 -35 l 250 0 q 186 -171 186 -94 q 279 -249 186 -249 q 321 -246 299 -249 l 299 -349 q 251 -353 279 -353 z "},"Ĩ":{"ha":401,"x_min":-15,"x_max":418,"o":"m 88 1125 l 315 1125 l 315 0 l 88 0 l 88 1125 m 313 1260 q 265 1269 288 1260 q 213 1296 242 1278 q 138 1325 165 1325 q 88 1268 88 1325 l -15 1268 q 106 1456 -18 1456 q 151 1447 129 1456 q 199 1422 172 1439 q 242 1401 224 1408 q 279 1393 260 1393 q 322 1447 322 1393 l 418 1447 q 397 1312 418 1364 q 313 1260 375 1260 z "},"J":{"ha":471,"x_min":17,"x_max":386,"o":"m 17 132 q 103 140 74 131 q 144 177 132 150 q 157 258 157 204 l 157 1125 l 386 1125 l 386 249 q 362 92 385 151 q 283 2 339 32 q 128 -28 226 -28 l 17 -28 l 17 132 z "},"Ĵ":{"ha":471,"x_min":17,"x_max":492,"o":"m 17 132 q 103 140 74 131 q 144 177 132 150 q 157 258 157 204 l 157 1125 l 386 1125 l 386 249 q 362 92 385 151 q 283 2 339 32 q 128 -28 226 -28 l 17 -28 l 17 132 m 182 1481 l 360 1481 l 492 1219 l 338 1219 l 271 1386 l 206 1219 l 53 1219 l 182 1481 z "},"K":{"ha":767,"x_min":85,"x_max":756,"o":"m 85 1125 l 313 1125 l 313 650 l 517 1125 l 739 1125 l 528 619 l 756 0 l 524 0 l 350 503 l 313 442 l 313 0 l 85 0 l 85 1125 z "},"Ķ":{"ha":767,"x_min":85,"x_max":756,"o":"m 85 1125 l 313 1125 l 313 650 l 517 1125 l 739 1125 l 528 619 l 756 0 l 524 0 l 350 503 l 313 442 l 313 0 l 85 0 l 85 1125 m 299 -399 q 367 -367 342 -392 q 392 -292 392 -343 l 283 -292 l 283 -93 l 483 -93 l 483 -267 q 444 -419 482 -367 q 319 -474 406 -472 l 299 -399 z "},"L":{"ha":601,"x_min":85,"x_max":578,"o":"m 85 1125 l 313 1125 l 313 156 l 578 156 l 578 0 l 85 0 l 85 1125 z "},"Ǉ":{"ha":1072,"x_min":85,"x_max":988,"o":"m 85 1125 l 313 1125 l 313 156 l 578 156 l 578 0 l 85 0 l 85 1125 m 618 132 q 704 140 675 131 q 746 177 733 150 q 758 258 758 204 l 758 1125 l 988 1125 l 988 249 q 963 92 986 151 q 884 2 940 32 q 729 -28 828 -28 l 618 -28 l 618 132 z "},"Ĺ":{"ha":601,"x_min":85,"x_max":578,"o":"m 85 1125 l 313 1125 l 313 156 l 578 156 l 578 0 l 85 0 l 85 1125 m 217 1488 l 431 1488 l 260 1208 l 132 1208 l 217 1488 z "},"Ľ":{"ha":601,"x_min":85,"x_max":610,"o":"m 85 1125 l 313 1125 l 313 156 l 578 156 l 578 0 l 85 0 l 85 1125 m 424 801 q 519 922 519 828 l 408 922 l 408 1125 l 610 1125 l 610 946 q 440 732 610 751 l 424 801 z "},"Ļ":{"ha":601,"x_min":85,"x_max":578,"o":"m 85 1125 l 313 1125 l 313 156 l 578 156 l 578 0 l 85 0 l 85 1125 m 246 -399 q 314 -367 289 -392 q 339 -292 339 -343 l 231 -292 l 231 -93 l 431 -93 l 431 -267 q 391 -419 429 -367 q 267 -474 353 -472 l 246 -399 z "},"Ŀ":{"ha":601,"x_min":85,"x_max":578,"o":"m 85 1125 l 313 1125 l 313 156 l 578 156 l 578 0 l 85 0 l 85 1125 m 428 725 l 572 725 l 572 526 l 428 526 l 428 725 z "},"ǈ":{"ha":972,"x_min":85,"x_max":903,"o":"m 85 1125 l 313 1125 l 313 156 l 578 156 l 578 0 l 85 0 l 85 1125 m 692 1092 l 903 1092 l 903 935 l 692 935 l 692 1092 m 697 -240 q 586 -224 636 -240 l 586 -74 q 626 -78 624 -78 q 692 -4 692 -78 l 692 803 l 901 803 l 901 -29 q 849 -183 901 -126 q 697 -240 796 -240 z "},"Ł":{"ha":610,"x_min":7,"x_max":586,"o":"m 93 503 l 7 461 l 7 593 l 93 636 l 93 1125 l 322 1125 l 322 746 l 461 814 l 461 682 l 322 614 l 322 156 l 586 156 l 586 0 l 93 0 l 93 503 z "},"M":{"ha":965,"x_min":81,"x_max":885,"o":"m 100 1125 l 343 1125 l 482 415 l 629 1125 l 864 1125 l 885 0 l 718 0 l 700 764 l 556 0 l 414 0 l 265 768 l 249 0 l 81 0 l 100 1125 z "},"Ṁ":{"ha":965,"x_min":81,"x_max":885,"o":"m 100 1125 l 343 1125 l 482 415 l 629 1125 l 864 1125 l 885 0 l 718 0 l 700 764 l 556 0 l 414 0 l 265 768 l 249 0 l 81 0 l 100 1125 m 383 1436 l 583 1436 l 583 1233 l 383 1233 l 383 1436 z "},"N":{"ha":769,"x_min":85,"x_max":685,"o":"m 85 1125 l 244 1125 l 494 540 l 494 1125 l 685 1125 l 685 0 l 531 0 l 281 622 l 281 0 l 85 0 l 85 1125 z "},"Ǌ":{"ha":1240,"x_min":85,"x_max":1156,"o":"m 85 1125 l 244 1125 l 494 540 l 494 1125 l 685 1125 l 685 0 l 531 0 l 281 622 l 281 0 l 85 0 l 85 1125 m 786 132 q 872 140 843 131 q 914 177 901 150 q 926 258 926 204 l 926 1125 l 1156 1125 l 1156 249 q 1131 92 1154 151 q 1052 2 1108 32 q 897 -28 996 -28 l 786 -28 l 786 132 z "},"Ń":{"ha":769,"x_min":85,"x_max":685,"o":"m 85 1125 l 244 1125 l 494 540 l 494 1125 l 685 1125 l 685 0 l 531 0 l 281 622 l 281 0 l 85 0 l 85 1125 m 403 1488 l 617 1488 l 446 1208 l 318 1208 l 403 1488 z "},"Ň":{"ha":769,"x_min":85,"x_max":685,"o":"m 85 1125 l 244 1125 l 494 540 l 494 1125 l 685 1125 l 685 0 l 531 0 l 281 622 l 281 0 l 85 0 l 85 1125 m 161 1464 l 311 1464 l 385 1310 l 458 1464 l 608 1464 l 486 1210 l 282 1210 l 161 1464 z "},"Ņ":{"ha":769,"x_min":85,"x_max":685,"o":"m 85 1125 l 244 1125 l 494 540 l 494 1125 l 685 1125 l 685 0 l 531 0 l 281 622 l 281 0 l 85 0 l 85 1125 m 300 -399 q 368 -367 343 -392 q 393 -292 393 -343 l 285 -292 l 285 -93 l 485 -93 l 485 -267 q 445 -419 483 -367 q 321 -474 407 -472 l 300 -399 z "},"Ŋ":{"ha":778,"x_min":88,"x_max":689,"o":"m 347 -143 q 447 -132 411 -144 q 496 -92 482 -119 q 510 -14 510 -64 l 510 96 l 281 622 l 281 0 l 88 0 l 88 1125 l 249 1125 l 501 540 l 501 1125 l 689 1125 l 689 0 q 667 -159 689 -99 q 592 -251 646 -219 q 439 -282 538 -282 l 347 -282 l 347 -143 z "},"ǋ":{"ha":1140,"x_min":85,"x_max":1071,"o":"m 85 1125 l 244 1125 l 494 540 l 494 1125 l 685 1125 l 685 0 l 531 0 l 281 622 l 281 0 l 85 0 l 85 1125 m 860 1092 l 1071 1092 l 1071 935 l 860 935 l 860 1092 m 865 -240 q 754 -224 804 -240 l 754 -74 q 794 -78 792 -78 q 860 -4 860 -78 l 860 803 l 1069 803 l 1069 -29 q 1017 -183 1069 -126 q 865 -240 964 -240 z "},"Ñ":{"ha":769,"x_min":85,"x_max":685,"o":"m 85 1125 l 244 1125 l 494 540 l 494 1125 l 685 1125 l 685 0 l 531 0 l 281 622 l 281 0 l 85 0 l 85 1125 m 496 1260 q 448 1269 471 1260 q 396 1296 425 1278 q 321 1325 349 1325 q 271 1268 271 1325 l 168 1268 q 289 1456 165 1456 q 334 1447 313 1456 q 382 1422 356 1439 q 425 1401 407 1408 q 463 1393 443 1393 q 506 1447 506 1393 l 601 1447 q 580 1312 601 1364 q 496 1260 558 1260 z "},"O":{"ha":800,"x_min":68,"x_max":732,"o":"m 400 -15 q 144 78 221 -15 q 68 354 68 172 l 68 774 q 144 1047 68 956 q 400 1139 221 1139 q 655 1047 578 1139 q 732 774 732 954 l 732 353 q 655 78 732 172 q 400 -15 578 -15 m 400 149 q 478 188 458 149 q 499 297 499 228 l 499 829 q 478 937 499 899 q 400 975 458 975 q 322 937 342 975 q 301 829 301 899 l 301 297 q 321 188 301 226 q 400 149 340 149 z "},"Ó":{"ha":800,"x_min":68,"x_max":732,"o":"m 400 -15 q 144 78 221 -15 q 68 354 68 172 l 68 774 q 144 1047 68 956 q 400 1139 221 1139 q 655 1047 578 1139 q 732 774 732 954 l 732 353 q 655 78 732 172 q 400 -15 578 -15 m 400 149 q 478 188 458 149 q 499 297 499 228 l 499 829 q 478 937 499 899 q 400 975 458 975 q 322 937 342 975 q 301 829 301 899 l 301 297 q 321 188 301 226 q 400 149 340 149 m 418 1488 l 632 1488 l 461 1208 l 333 1208 l 418 1488 z "},"Ŏ":{"ha":800,"x_min":68,"x_max":732,"o":"m 400 -15 q 144 78 221 -15 q 68 354 68 172 l 68 774 q 144 1047 68 956 q 400 1139 221 1139 q 655 1047 578 1139 q 732 774 732 954 l 732 353 q 655 78 732 172 q 400 -15 578 -15 m 400 149 q 478 188 458 149 q 499 297 499 228 l 499 829 q 478 937 499 899 q 400 975 458 975 q 322 937 342 975 q 301 829 301 899 l 301 297 q 321 188 301 226 q 400 149 340 149 m 400 1214 q 245 1269 301 1214 q 189 1425 189 1325 l 308 1425 q 329 1348 308 1372 q 400 1324 350 1324 q 470 1349 449 1324 q 492 1425 492 1374 l 610 1425 q 554 1269 610 1325 q 400 1214 499 1214 z "},"Ô":{"ha":800,"x_min":68,"x_max":732,"o":"m 400 -15 q 144 78 221 -15 q 68 354 68 172 l 68 774 q 144 1047 68 956 q 400 1139 221 1139 q 655 1047 578 1139 q 732 774 732 954 l 732 353 q 655 78 732 172 q 400 -15 578 -15 m 400 149 q 478 188 458 149 q 499 297 499 228 l 499 829 q 478 937 499 899 q 400 975 458 975 q 322 937 342 975 q 301 829 301 899 l 301 297 q 321 188 301 226 q 400 149 340 149 m 310 1481 l 488 1481 l 619 1219 l 465 1219 l 399 1386 l 333 1219 l 181 1219 l 310 1481 z "},"Ố":{"ha":800,"x_min":68,"x_max":819,"o":"m 400 -15 q 144 78 221 -15 q 68 354 68 172 l 68 774 q 144 1047 68 956 q 400 1139 221 1139 q 655 1047 578 1139 q 732 774 732 954 l 732 353 q 655 78 732 172 q 400 -15 578 -15 m 400 149 q 478 188 458 149 q 499 297 499 228 l 499 829 q 478 937 499 899 q 400 975 458 975 q 322 937 342 975 q 301 829 301 899 l 301 297 q 321 188 301 226 q 400 149 340 149 m 658 1547 l 819 1547 l 699 1379 l 585 1379 l 658 1547 m 310 1447 l 488 1447 l 619 1219 l 469 1219 l 399 1358 l 329 1219 l 181 1219 l 310 1447 z "},"Ộ":{"ha":800,"x_min":68,"x_max":732,"o":"m 400 -15 q 144 78 221 -15 q 68 354 68 172 l 68 774 q 144 1047 68 956 q 400 1139 221 1139 q 655 1047 578 1139 q 732 774 732 954 l 732 353 q 655 78 732 172 q 400 -15 578 -15 m 400 149 q 478 188 458 149 q 499 297 499 228 l 499 829 q 478 937 499 899 q 400 975 458 975 q 322 937 342 975 q 301 829 301 899 l 301 297 q 321 188 301 226 q 400 149 340 149 m 310 1447 l 488 1447 l 619 1219 l 469 1219 l 399 1358 l 329 1219 l 181 1219 l 310 1447 m 308 -94 l 492 -94 l 492 -279 l 308 -279 l 308 -94 z "},"Ồ":{"ha":800,"x_min":68,"x_max":739,"o":"m 400 -15 q 144 78 221 -15 q 68 354 68 172 l 68 774 q 144 1047 68 956 q 400 1139 221 1139 q 655 1047 578 1139 q 732 774 732 954 l 732 353 q 655 78 732 172 q 400 -15 578 -15 m 400 149 q 478 188 458 149 q 499 297 499 228 l 499 829 q 478 937 499 899 q 400 975 458 975 q 322 937 342 975 q 301 829 301 899 l 301 297 q 321 188 301 226 q 400 149 340 149 m 504 1547 l 665 1547 l 739 1379 l 625 1379 l 504 1547 m 310 1447 l 488 1447 l 619 1219 l 469 1219 l 399 1358 l 329 1219 l 181 1219 l 310 1447 z "},"Ổ":{"ha":800,"x_min":68,"x_max":765,"o":"m 400 -15 q 144 78 221 -15 q 68 354 68 172 l 68 774 q 144 1047 68 956 q 400 1139 221 1139 q 655 1047 578 1139 q 732 774 732 954 l 732 353 q 655 78 732 172 q 400 -15 578 -15 m 400 149 q 478 188 458 149 q 499 297 499 228 l 499 829 q 478 937 499 899 q 400 975 458 975 q 322 937 342 975 q 301 829 301 899 l 301 297 q 321 188 301 226 q 400 149 340 149 m 576 1410 q 617 1449 604 1431 q 631 1492 631 1468 q 613 1533 631 1518 q 567 1547 596 1547 q 497 1535 532 1547 l 497 1625 q 608 1644 547 1644 q 722 1610 679 1644 q 765 1511 765 1576 q 731 1413 765 1451 q 638 1344 697 1375 l 576 1410 m 310 1447 l 488 1447 l 619 1219 l 469 1219 l 399 1358 l 329 1219 l 181 1219 l 310 1447 z "},"Ỗ":{"ha":800,"x_min":68,"x_max":732,"o":"m 400 -15 q 144 78 221 -15 q 68 354 68 172 l 68 774 q 144 1047 68 956 q 400 1139 221 1139 q 655 1047 578 1139 q 732 774 732 954 l 732 353 q 655 78 732 172 q 400 -15 578 -15 m 400 149 q 478 188 458 149 q 499 297 499 228 l 499 829 q 478 937 499 899 q 400 975 458 975 q 322 937 342 975 q 301 829 301 899 l 301 297 q 321 188 301 226 q 400 149 340 149 m 310 1447 l 488 1447 l 619 1219 l 469 1219 l 399 1358 l 329 1219 l 181 1219 l 310 1447 m 511 1515 q 463 1524 486 1515 q 411 1551 440 1533 q 336 1581 364 1581 q 286 1524 286 1581 l 183 1524 q 304 1711 181 1711 q 349 1703 328 1711 q 397 1678 371 1694 q 440 1656 422 1664 q 478 1649 458 1649 q 521 1703 521 1649 l 617 1703 q 595 1567 617 1619 q 511 1515 574 1515 z "},"Ȍ":{"ha":800,"x_min":68,"x_max":732,"o":"m 400 -15 q 144 78 221 -15 q 68 354 68 172 l 68 774 q 144 1047 68 956 q 400 1139 221 1139 q 655 1047 578 1139 q 732 774 732 954 l 732 353 q 655 78 732 172 q 400 -15 578 -15 m 400 149 q 478 188 458 149 q 499 297 499 228 l 499 829 q 478 937 499 899 q 400 975 458 975 q 322 937 342 975 q 301 829 301 899 l 301 297 q 321 188 301 226 q 400 149 340 149 m 97 1485 l 265 1485 l 353 1210 l 240 1210 l 97 1485 m 347 1485 l 503 1485 l 579 1210 l 469 1210 l 347 1485 z "},"Ö":{"ha":800,"x_min":68,"x_max":732,"o":"m 400 -15 q 144 78 221 -15 q 68 354 68 172 l 68 774 q 144 1047 68 956 q 400 1139 221 1139 q 655 1047 578 1139 q 732 774 732 954 l 732 353 q 655 78 732 172 q 400 -15 578 -15 m 400 149 q 478 188 458 149 q 499 297 499 228 l 499 829 q 478 937 499 899 q 400 975 458 975 q 322 937 342 975 q 301 829 301 899 l 301 297 q 321 188 301 226 q 400 149 340 149 m 168 1447 l 342 1447 l 342 1253 l 168 1253 l 168 1447 m 457 1447 l 632 1447 l 632 1253 l 457 1253 l 457 1447 z "},"Ȫ":{"ha":800,"x_min":68,"x_max":732,"o":"m 400 -15 q 144 78 221 -15 q 68 354 68 172 l 68 774 q 144 1047 68 956 q 400 1139 221 1139 q 655 1047 578 1139 q 732 774 732 954 l 732 353 q 655 78 732 172 q 400 -15 578 -15 m 400 149 q 478 188 458 149 q 499 297 499 228 l 499 829 q 478 937 499 899 q 400 975 458 975 q 322 937 342 975 q 301 829 301 899 l 301 297 q 321 188 301 226 q 400 149 340 149 m 168 1447 l 342 1447 l 342 1253 l 168 1253 l 168 1447 m 457 1447 l 632 1447 l 632 1253 l 457 1253 l 457 1447 m 221 1679 l 579 1679 l 579 1575 l 221 1575 l 221 1679 z "},"Ȱ":{"ha":800,"x_min":68,"x_max":732,"o":"m 400 -15 q 144 78 221 -15 q 68 354 68 172 l 68 774 q 144 1047 68 956 q 400 1139 221 1139 q 655 1047 578 1139 q 732 774 732 954 l 732 353 q 655 78 732 172 q 400 -15 578 -15 m 400 149 q 478 188 458 149 q 499 297 499 228 l 499 829 q 478 937 499 899 q 400 975 458 975 q 322 937 342 975 q 301 829 301 899 l 301 297 q 321 188 301 226 q 400 149 340 149 m 300 1436 l 500 1436 l 500 1233 l 300 1233 l 300 1436 m 221 1668 l 579 1668 l 579 1564 l 221 1564 l 221 1668 z "},"Ọ":{"ha":800,"x_min":68,"x_max":732,"o":"m 400 -15 q 144 78 221 -15 q 68 354 68 172 l 68 774 q 144 1047 68 956 q 400 1139 221 1139 q 655 1047 578 1139 q 732 774 732 954 l 732 353 q 655 78 732 172 q 400 -15 578 -15 m 400 149 q 478 188 458 149 q 499 297 499 228 l 499 829 q 478 937 499 899 q 400 975 458 975 q 322 937 342 975 q 301 829 301 899 l 301 297 q 321 188 301 226 q 400 149 340 149 m 308 -94 l 492 -94 l 492 -279 l 308 -279 l 308 -94 z "},"Ò":{"ha":800,"x_min":68,"x_max":732,"o":"m 400 -15 q 144 78 221 -15 q 68 354 68 172 l 68 774 q 144 1047 68 956 q 400 1139 221 1139 q 655 1047 578 1139 q 732 774 732 954 l 732 353 q 655 78 732 172 q 400 -15 578 -15 m 400 149 q 478 188 458 149 q 499 297 499 228 l 499 829 q 478 937 499 899 q 400 975 458 975 q 322 937 342 975 q 301 829 301 899 l 301 297 q 321 188 301 226 q 400 149 340 149 m 168 1488 l 383 1488 l 467 1208 l 340 1208 l 168 1488 z "},"Ỏ":{"ha":800,"x_min":68,"x_max":732,"o":"m 400 -15 q 144 78 221 -15 q 68 354 68 172 l 68 774 q 144 1047 68 956 q 400 1139 221 1139 q 655 1047 578 1139 q 732 774 732 954 l 732 353 q 655 78 732 172 q 400 -15 578 -15 m 400 149 q 478 188 458 149 q 499 297 499 228 l 499 829 q 478 937 499 899 q 400 975 458 975 q 322 937 342 975 q 301 829 301 899 l 301 297 q 321 188 301 226 q 400 149 340 149 m 331 1264 q 406 1306 383 1289 q 428 1351 428 1324 q 347 1401 428 1401 q 265 1392 304 1401 l 265 1482 q 400 1500 335 1500 q 519 1467 472 1500 q 567 1365 567 1433 q 523 1262 567 1300 q 400 1196 479 1224 l 331 1264 z "},"Ơ":{"ha":800,"x_min":68,"x_max":732,"o":"m 633 1068 q 732 774 732 983 l 732 353 q 655 78 732 172 q 400 -15 578 -15 q 144 78 221 -15 q 68 354 68 172 l 68 774 q 144 1047 68 956 q 400 1139 221 1139 q 515 1126 465 1139 q 559 1160 546 1132 q 572 1240 572 1188 l 721 1240 q 633 1068 721 1122 m 499 829 q 478 937 499 899 q 400 975 458 975 q 322 937 342 975 q 301 829 301 899 l 301 297 q 321 188 301 226 q 400 149 340 149 q 478 188 458 149 q 499 297 499 228 l 499 829 z "},"Ớ":{"ha":800,"x_min":68,"x_max":732,"o":"m 633 1068 q 732 774 732 983 l 732 353 q 655 78 732 172 q 400 -15 578 -15 q 144 78 221 -15 q 68 354 68 172 l 68 774 q 144 1047 68 956 q 400 1139 221 1139 q 515 1126 465 1139 q 559 1160 546 1132 q 572 1240 572 1188 l 721 1240 q 633 1068 721 1122 m 499 829 q 478 937 499 899 q 400 975 458 975 q 322 937 342 975 q 301 829 301 899 l 301 297 q 321 188 301 226 q 400 149 340 149 q 478 188 458 149 q 499 297 499 228 l 499 829 m 418 1488 l 632 1488 l 461 1208 l 333 1208 l 418 1488 z "},"Ợ":{"ha":800,"x_min":68,"x_max":732,"o":"m 633 1068 q 732 774 732 983 l 732 353 q 655 78 732 172 q 400 -15 578 -15 q 144 78 221 -15 q 68 354 68 172 l 68 774 q 144 1047 68 956 q 400 1139 221 1139 q 515 1126 465 1139 q 559 1160 546 1132 q 572 1240 572 1188 l 721 1240 q 633 1068 721 1122 m 499 829 q 478 937 499 899 q 400 975 458 975 q 322 937 342 975 q 301 829 301 899 l 301 297 q 321 188 301 226 q 400 149 340 149 q 478 188 458 149 q 499 297 499 228 l 499 829 m 308 -94 l 492 -94 l 492 -279 l 308 -279 l 308 -94 z "},"Ờ":{"ha":800,"x_min":68,"x_max":732,"o":"m 633 1068 q 732 774 732 983 l 732 353 q 655 78 732 172 q 400 -15 578 -15 q 144 78 221 -15 q 68 354 68 172 l 68 774 q 144 1047 68 956 q 400 1139 221 1139 q 515 1126 465 1139 q 559 1160 546 1132 q 572 1240 572 1188 l 721 1240 q 633 1068 721 1122 m 499 829 q 478 937 499 899 q 400 975 458 975 q 322 937 342 975 q 301 829 301 899 l 301 297 q 321 188 301 226 q 400 149 340 149 q 478 188 458 149 q 499 297 499 228 l 499 829 m 168 1488 l 383 1488 l 467 1208 l 340 1208 l 168 1488 z "},"Ở":{"ha":800,"x_min":68,"x_max":732,"o":"m 633 1068 q 732 774 732 983 l 732 353 q 655 78 732 172 q 400 -15 578 -15 q 144 78 221 -15 q 68 354 68 172 l 68 774 q 144 1047 68 956 q 400 1139 221 1139 q 515 1126 465 1139 q 559 1160 546 1132 q 572 1240 572 1188 l 721 1240 q 633 1068 721 1122 m 499 829 q 478 937 499 899 q 400 975 458 975 q 322 937 342 975 q 301 829 301 899 l 301 297 q 321 188 301 226 q 400 149 340 149 q 478 188 458 149 q 499 297 499 228 l 499 829 m 331 1264 q 406 1306 383 1289 q 428 1351 428 1324 q 347 1401 428 1401 q 265 1392 304 1401 l 265 1482 q 400 1500 335 1500 q 519 1467 472 1500 q 567 1365 567 1433 q 523 1262 567 1300 q 400 1196 479 1224 l 331 1264 z "},"Ỡ":{"ha":800,"x_min":68,"x_max":732,"o":"m 633 1068 q 732 774 732 983 l 732 353 q 655 78 732 172 q 400 -15 578 -15 q 144 78 221 -15 q 68 354 68 172 l 68 774 q 144 1047 68 956 q 400 1139 221 1139 q 515 1126 465 1139 q 559 1160 546 1132 q 572 1240 572 1188 l 721 1240 q 633 1068 721 1122 m 499 829 q 478 937 499 899 q 400 975 458 975 q 322 937 342 975 q 301 829 301 899 l 301 297 q 321 188 301 226 q 400 149 340 149 q 478 188 458 149 q 499 297 499 228 l 499 829 m 511 1260 q 463 1269 486 1260 q 411 1296 440 1278 q 336 1325 364 1325 q 286 1268 286 1325 l 183 1268 q 304 1456 181 1456 q 349 1447 328 1456 q 397 1422 371 1439 q 440 1401 422 1408 q 478 1393 458 1393 q 521 1447 521 1393 l 617 1447 q 595 1312 617 1364 q 511 1260 574 1260 z "},"Ő":{"ha":800,"x_min":68,"x_max":732,"o":"m 400 -15 q 144 78 221 -15 q 68 354 68 172 l 68 774 q 144 1047 68 956 q 400 1139 221 1139 q 655 1047 578 1139 q 732 774 732 954 l 732 353 q 655 78 732 172 q 400 -15 578 -15 m 400 149 q 478 188 458 149 q 499 297 499 228 l 499 829 q 478 937 499 899 q 400 975 458 975 q 322 937 342 975 q 301 829 301 899 l 301 297 q 321 188 301 226 q 400 149 340 149 m 303 1490 l 474 1490 l 333 1204 l 226 1204 l 303 1490 m 544 1490 l 731 1490 l 565 1204 l 457 1204 l 544 1490 z "},"Ȏ":{"ha":800,"x_min":68,"x_max":732,"o":"m 400 -15 q 144 78 221 -15 q 68 354 68 172 l 68 774 q 144 1047 68 956 q 400 1139 221 1139 q 655 1047 578 1139 q 732 774 732 954 l 732 353 q 655 78 732 172 q 400 -15 578 -15 m 400 149 q 478 188 458 149 q 499 297 499 228 l 499 829 q 478 937 499 899 q 400 975 458 975 q 322 937 342 975 q 301 829 301 899 l 301 297 q 321 188 301 226 q 400 149 340 149 m 189 1228 q 244 1388 190 1331 q 400 1446 299 1446 q 557 1388 503 1446 q 611 1228 611 1331 l 492 1228 q 471 1310 492 1285 q 400 1336 450 1336 q 329 1311 350 1336 q 308 1228 308 1286 l 189 1228 z "},"Ō":{"ha":800,"x_min":68,"x_max":732,"o":"m 400 -15 q 144 78 221 -15 q 68 354 68 172 l 68 774 q 144 1047 68 956 q 400 1139 221 1139 q 655 1047 578 1139 q 732 774 732 954 l 732 353 q 655 78 732 172 q 400 -15 578 -15 m 400 149 q 478 188 458 149 q 499 297 499 228 l 499 829 q 478 937 499 899 q 400 975 458 975 q 322 937 342 975 q 301 829 301 899 l 301 297 q 321 188 301 226 q 400 149 340 149 m 221 1357 l 579 1357 l 579 1253 l 221 1253 l 221 1357 z "},"Ǫ":{"ha":800,"x_min":68,"x_max":732,"o":"m 400 1139 q 655 1047 578 1139 q 732 774 732 954 l 732 353 q 674 103 732 194 q 481 -10 615 11 q 424 -171 424 -99 q 517 -249 424 -249 q 558 -246 536 -249 l 536 -349 q 489 -353 518 -353 q 335 -323 396 -353 q 274 -208 274 -293 q 303 -106 274 -160 q 374 -15 332 -53 q 139 85 210 -8 q 68 354 68 179 l 68 774 q 144 1047 68 956 q 400 1139 221 1139 m 499 829 q 478 937 499 899 q 400 975 458 975 q 322 937 342 975 q 301 829 301 899 l 301 297 q 321 188 301 226 q 400 149 340 149 q 478 188 458 149 q 499 297 499 228 l 499 829 z "},"Ø":{"ha":785,"x_min":68,"x_max":732,"o":"m 604 1090 q 701 968 671 1047 q 732 774 732 889 l 732 353 q 655 78 732 172 q 400 -15 578 -15 q 226 17 297 -15 l 178 -121 l 124 -100 l 176 49 q 94 170 119 94 q 68 354 68 246 l 68 774 q 144 1047 68 956 q 400 1139 221 1139 q 551 1115 488 1139 l 590 1226 l 646 1207 l 604 1090 m 301 406 l 485 925 q 400 975 463 975 q 322 937 342 975 q 301 829 301 899 l 301 406 m 400 149 q 478 188 458 149 q 499 297 499 228 l 499 789 l 304 239 q 333 172 311 196 q 400 149 354 149 z "},"Ǿ":{"ha":785,"x_min":68,"x_max":732,"o":"m 604 1090 q 701 968 671 1047 q 732 774 732 889 l 732 353 q 655 78 732 172 q 400 -15 578 -15 q 226 17 297 -15 l 178 -121 l 124 -100 l 176 49 q 94 170 119 94 q 68 354 68 246 l 68 774 q 144 1047 68 956 q 400 1139 221 1139 q 551 1115 488 1139 l 590 1226 l 646 1207 l 604 1090 m 301 406 l 485 925 q 400 975 463 975 q 322 937 342 975 q 301 829 301 899 l 301 406 m 400 149 q 478 188 458 149 q 499 297 499 228 l 499 789 l 304 239 q 333 172 311 196 q 400 149 354 149 m 411 1488 l 625 1488 l 454 1208 l 326 1208 l 411 1488 z "},"Õ":{"ha":800,"x_min":68,"x_max":732,"o":"m 400 -15 q 144 78 221 -15 q 68 354 68 172 l 68 774 q 144 1047 68 956 q 400 1139 221 1139 q 655 1047 578 1139 q 732 774 732 954 l 732 353 q 655 78 732 172 q 400 -15 578 -15 m 400 149 q 478 188 458 149 q 499 297 499 228 l 499 829 q 478 937 499 899 q 400 975 458 975 q 322 937 342 975 q 301 829 301 899 l 301 297 q 321 188 301 226 q 400 149 340 149 m 511 1260 q 463 1269 486 1260 q 411 1296 440 1278 q 336 1325 364 1325 q 286 1268 286 1325 l 183 1268 q 304 1456 181 1456 q 349 1447 328 1456 q 397 1422 371 1439 q 440 1401 422 1408 q 478 1393 458 1393 q 521 1447 521 1393 l 617 1447 q 595 1312 617 1364 q 511 1260 574 1260 z "},"Ȭ":{"ha":800,"x_min":68,"x_max":732,"o":"m 400 -15 q 144 78 221 -15 q 68 354 68 172 l 68 774 q 144 1047 68 956 q 400 1139 221 1139 q 655 1047 578 1139 q 732 774 732 954 l 732 353 q 655 78 732 172 q 400 -15 578 -15 m 400 149 q 478 188 458 149 q 499 297 499 228 l 499 829 q 478 937 499 899 q 400 975 458 975 q 322 937 342 975 q 301 829 301 899 l 301 297 q 321 188 301 226 q 400 149 340 149 m 511 1260 q 463 1269 486 1260 q 411 1296 440 1278 q 336 1325 364 1325 q 286 1268 286 1325 l 183 1268 q 304 1456 181 1456 q 349 1447 328 1456 q 397 1422 371 1439 q 440 1401 422 1408 q 478 1393 458 1393 q 521 1447 521 1393 l 617 1447 q 595 1312 617 1364 q 511 1260 574 1260 m 221 1688 l 579 1688 l 579 1583 l 221 1583 l 221 1688 z "},"Œ":{"ha":986,"x_min":68,"x_max":950,"o":"m 407 0 q 146 96 224 0 q 68 376 68 192 l 68 729 q 146 1018 68 915 q 403 1122 224 1121 l 949 1122 l 949 964 l 707 964 l 707 661 l 890 661 l 890 500 l 707 500 l 707 156 l 950 156 l 950 0 l 407 0 m 479 160 l 479 960 l 407 960 q 333 933 357 960 q 303 866 310 907 q 297 758 297 825 l 297 343 q 304 244 297 282 q 335 183 311 207 q 408 160 360 160 l 479 160 z "},"P":{"ha":765,"x_min":85,"x_max":733,"o":"m 85 1125 l 442 1125 q 733 801 733 1125 q 650 559 733 631 q 418 488 567 488 l 313 488 l 313 0 l 85 0 l 85 1125 m 394 649 q 493 683 468 649 q 518 806 518 718 q 510 895 518 863 q 474 946 501 928 q 393 964 447 964 l 313 964 l 313 649 l 394 649 z "},"Ṗ":{"ha":765,"x_min":85,"x_max":733,"o":"m 85 1125 l 442 1125 q 733 801 733 1125 q 650 559 733 631 q 418 488 567 488 l 313 488 l 313 0 l 85 0 l 85 1125 m 394 649 q 493 683 468 649 q 518 806 518 718 q 510 895 518 863 q 474 946 501 928 q 393 964 447 964 l 313 964 l 313 649 l 394 649 m 283 1436 l 483 1436 l 483 1233 l 283 1233 l 283 1436 z "},"Þ":{"ha":763,"x_min":75,"x_max":742,"o":"m 75 1125 l 304 1125 l 304 975 l 424 975 q 664 899 586 975 q 742 660 742 822 q 706 461 742 533 q 598 358 671 389 q 408 325 525 326 l 304 325 l 304 0 l 75 0 l 75 1125 m 388 490 q 498 526 465 490 q 531 650 531 563 q 500 770 531 733 q 396 807 469 807 l 304 807 l 304 490 l 388 490 z "},"Q":{"ha":800,"x_min":68,"x_max":732,"o":"m 649 -222 q 532 -139 599 -200 q 424 -14 465 -78 l 400 -15 q 144 78 221 -15 q 68 354 68 172 l 68 774 q 144 1047 68 956 q 400 1139 221 1139 q 655 1047 578 1139 q 732 774 732 954 l 732 353 q 696 144 732 228 q 581 22 660 61 q 694 -81 650 -56 l 649 -222 m 400 149 q 479 188 460 149 q 499 297 499 228 l 499 829 q 479 937 499 899 q 400 975 460 975 q 320 938 339 975 q 301 829 301 900 l 301 297 q 321 188 301 226 q 400 149 340 149 z "},"R":{"ha":810,"x_min":85,"x_max":758,"o":"m 85 1125 l 376 1125 q 650 1058 558 1125 q 742 828 742 992 q 711 651 742 718 q 603 549 681 583 l 758 0 l 524 0 l 396 510 l 313 510 l 313 0 l 85 0 l 85 1125 m 381 646 q 494 685 461 646 q 526 810 526 725 q 497 932 526 893 q 392 971 468 971 l 313 971 l 313 646 l 381 646 z "},"Ŕ":{"ha":810,"x_min":85,"x_max":758,"o":"m 85 1125 l 376 1125 q 650 1058 558 1125 q 742 828 742 992 q 711 651 742 718 q 603 549 681 583 l 758 0 l 524 0 l 396 510 l 313 510 l 313 0 l 85 0 l 85 1125 m 381 646 q 494 685 461 646 q 526 810 526 725 q 497 932 526 893 q 392 971 468 971 l 313 971 l 313 646 l 381 646 m 424 1488 l 638 1488 l 467 1208 l 339 1208 l 424 1488 z "},"Ř":{"ha":810,"x_min":85,"x_max":758,"o":"m 85 1125 l 376 1125 q 650 1058 558 1125 q 742 828 742 992 q 711 651 742 718 q 603 549 681 583 l 758 0 l 524 0 l 396 510 l 313 510 l 313 0 l 85 0 l 85 1125 m 381 646 q 494 685 461 646 q 526 810 526 725 q 497 932 526 893 q 392 971 468 971 l 313 971 l 313 646 l 381 646 m 182 1464 l 332 1464 l 406 1310 l 479 1464 l 629 1464 l 507 1210 l 303 1210 l 182 1464 z "},"Ŗ":{"ha":810,"x_min":85,"x_max":758,"o":"m 85 1125 l 376 1125 q 650 1058 558 1125 q 742 828 742 992 q 711 651 742 718 q 603 549 681 583 l 758 0 l 524 0 l 396 510 l 313 510 l 313 0 l 85 0 l 85 1125 m 381 646 q 494 685 461 646 q 526 810 526 725 q 497 932 526 893 q 392 971 468 971 l 313 971 l 313 646 l 381 646 m 321 -399 q 389 -367 364 -392 q 414 -292 414 -343 l 306 -292 l 306 -93 l 506 -93 l 506 -267 q 466 -419 504 -367 q 342 -474 428 -472 l 321 -399 z "},"Ȑ":{"ha":810,"x_min":85,"x_max":758,"o":"m 85 1125 l 376 1125 q 650 1058 558 1125 q 742 828 742 992 q 711 651 742 718 q 603 549 681 583 l 758 0 l 524 0 l 396 510 l 313 510 l 313 0 l 85 0 l 85 1125 m 381 646 q 494 685 461 646 q 526 810 526 725 q 497 932 526 893 q 392 971 468 971 l 313 971 l 313 646 l 381 646 m 103 1485 l 271 1485 l 358 1210 l 246 1210 l 103 1485 m 353 1485 l 508 1485 l 585 1210 l 475 1210 l 353 1485 z "},"Ȓ":{"ha":810,"x_min":85,"x_max":758,"o":"m 85 1125 l 376 1125 q 650 1058 558 1125 q 742 828 742 992 q 711 651 742 718 q 603 549 681 583 l 758 0 l 524 0 l 396 510 l 313 510 l 313 0 l 85 0 l 85 1125 m 381 646 q 494 685 461 646 q 526 810 526 725 q 497 932 526 893 q 392 971 468 971 l 313 971 l 313 646 l 381 646 m 194 1228 q 250 1388 196 1331 q 406 1446 304 1446 q 563 1388 508 1446 q 617 1228 617 1331 l 497 1228 q 476 1310 497 1285 q 406 1336 456 1336 q 335 1311 356 1336 q 314 1228 314 1286 l 194 1228 z "},"S":{"ha":701,"x_min":57,"x_max":665,"o":"m 375 -15 q 142 70 219 -15 q 57 335 64 156 l 254 368 q 284 210 257 261 q 365 160 311 160 q 424 185 406 160 q 442 251 442 211 q 412 365 442 318 q 318 467 382 411 l 201 568 q 94 694 131 631 q 58 853 58 757 q 140 1065 58 990 q 367 1139 222 1139 q 577 1051 518 1139 q 644 826 636 963 l 446 797 q 426 928 443 885 q 361 971 410 971 q 299 943 321 971 q 278 875 278 915 q 303 781 278 818 q 379 697 328 743 l 493 597 q 620 445 575 522 q 665 264 665 368 q 629 120 665 183 q 527 21 593 57 q 375 -15 461 -15 z "},"Ś":{"ha":701,"x_min":57,"x_max":665,"o":"m 375 -15 q 142 70 219 -15 q 57 335 64 156 l 254 368 q 284 210 257 261 q 365 160 311 160 q 424 185 406 160 q 442 251 442 211 q 412 365 442 318 q 318 467 382 411 l 201 568 q 94 694 131 631 q 58 853 58 757 q 140 1065 58 990 q 367 1139 222 1139 q 577 1051 518 1139 q 644 826 636 963 l 446 797 q 426 928 443 885 q 361 971 410 971 q 299 943 321 971 q 278 875 278 915 q 303 781 278 818 q 379 697 328 743 l 493 597 q 620 445 575 522 q 665 264 665 368 q 629 120 665 183 q 527 21 593 57 q 375 -15 461 -15 m 369 1488 l 583 1488 l 413 1208 l 285 1208 l 369 1488 z "},"Š":{"ha":701,"x_min":57,"x_max":665,"o":"m 375 -15 q 142 70 219 -15 q 57 335 64 156 l 254 368 q 284 210 257 261 q 365 160 311 160 q 424 185 406 160 q 442 251 442 211 q 412 365 442 318 q 318 467 382 411 l 201 568 q 94 694 131 631 q 58 853 58 757 q 140 1065 58 990 q 367 1139 222 1139 q 577 1051 518 1139 q 644 826 636 963 l 446 797 q 426 928 443 885 q 361 971 410 971 q 299 943 321 971 q 278 875 278 915 q 303 781 278 818 q 379 697 328 743 l 493 597 q 620 445 575 522 q 665 264 665 368 q 629 120 665 183 q 527 21 593 57 q 375 -15 461 -15 m 128 1464 l 278 1464 l 351 1310 l 425 1464 l 575 1464 l 453 1210 l 249 1210 l 128 1464 z "},"Ş":{"ha":701,"x_min":57,"x_max":665,"o":"m 665 264 q 631 124 665 186 q 535 25 597 63 q 392 -15 474 -12 l 392 -89 q 526 -124 478 -89 q 575 -228 575 -160 q 519 -336 575 -300 q 376 -372 463 -372 q 274 -357 326 -372 l 274 -264 q 351 -275 315 -275 q 414 -263 390 -275 q 438 -225 438 -251 q 401 -173 438 -190 q 311 -151 365 -156 l 311 -11 q 126 90 188 4 q 57 335 64 175 l 254 368 q 284 210 257 261 q 365 160 311 160 q 424 185 406 160 q 442 251 442 211 q 412 365 442 318 q 318 467 382 411 l 201 568 q 94 694 131 631 q 58 853 58 757 q 140 1065 58 990 q 367 1139 222 1139 q 577 1051 518 1139 q 644 826 636 963 l 446 797 q 426 928 443 885 q 361 971 410 971 q 299 943 321 971 q 278 875 278 915 q 303 781 278 818 q 379 697 328 743 l 493 597 q 620 445 575 522 q 665 264 665 368 z "},"Ŝ":{"ha":701,"x_min":57,"x_max":665,"o":"m 375 -15 q 142 70 219 -15 q 57 335 64 156 l 254 368 q 284 210 257 261 q 365 160 311 160 q 424 185 406 160 q 442 251 442 211 q 412 365 442 318 q 318 467 382 411 l 201 568 q 94 694 131 631 q 58 853 58 757 q 140 1065 58 990 q 367 1139 222 1139 q 577 1051 518 1139 q 644 826 636 963 l 446 797 q 426 928 443 885 q 361 971 410 971 q 299 943 321 971 q 278 875 278 915 q 303 781 278 818 q 379 697 328 743 l 493 597 q 620 445 575 522 q 665 264 665 368 q 629 120 665 183 q 527 21 593 57 q 375 -15 461 -15 m 261 1481 l 439 1481 l 571 1219 l 417 1219 l 350 1386 l 285 1219 l 132 1219 l 261 1481 z "},"Ș":{"ha":701,"x_min":57,"x_max":665,"o":"m 375 -15 q 142 70 219 -15 q 57 335 64 156 l 254 368 q 284 210 257 261 q 365 160 311 160 q 424 185 406 160 q 442 251 442 211 q 412 365 442 318 q 318 467 382 411 l 201 568 q 94 694 131 631 q 58 853 58 757 q 140 1065 58 990 q 367 1139 222 1139 q 577 1051 518 1139 q 644 826 636 963 l 446 797 q 426 928 443 885 q 361 971 410 971 q 299 943 321 971 q 278 875 278 915 q 303 781 278 818 q 379 697 328 743 l 493 597 q 620 445 575 522 q 665 264 665 368 q 629 120 665 183 q 527 21 593 57 q 375 -15 461 -15 m 267 -399 q 335 -367 310 -392 q 360 -292 360 -343 l 251 -292 l 251 -93 l 451 -93 l 451 -267 q 412 -419 450 -367 q 288 -474 374 -472 l 267 -399 z "},"Ṡ":{"ha":701,"x_min":57,"x_max":665,"o":"m 375 -15 q 142 70 219 -15 q 57 335 64 156 l 254 368 q 284 210 257 261 q 365 160 311 160 q 424 185 406 160 q 442 251 442 211 q 412 365 442 318 q 318 467 382 411 l 201 568 q 94 694 131 631 q 58 853 58 757 q 140 1065 58 990 q 367 1139 222 1139 q 577 1051 518 1139 q 644 826 636 963 l 446 797 q 426 928 443 885 q 361 971 410 971 q 299 943 321 971 q 278 875 278 915 q 303 781 278 818 q 379 697 328 743 l 493 597 q 620 445 575 522 q 665 264 665 368 q 629 120 665 183 q 527 21 593 57 q 375 -15 461 -15 m 251 1436 l 451 1436 l 451 1233 l 251 1233 l 251 1436 z "},"ẞ":{"ha":839,"x_min":76,"x_max":794,"o":"m 590 621 q 743 522 692 597 q 794 325 794 447 q 708 67 794 149 q 453 -15 622 -15 l 404 -15 l 404 142 l 435 142 q 574 321 574 142 q 540 457 574 413 q 435 501 507 501 l 419 501 l 418 656 l 576 956 q 472 975 533 975 q 306 781 306 975 l 306 0 l 76 0 l 76 774 q 169 1041 76 943 q 451 1139 263 1139 q 744 1067 611 1139 l 744 911 l 590 621 z "},"Ə":{"ha":794,"x_min":63,"x_max":726,"o":"m 397 -15 q 147 74 232 -15 q 63 333 63 164 l 63 585 l 493 585 l 493 836 q 470 942 493 910 q 394 975 447 975 q 319 942 342 975 q 296 836 296 910 l 296 689 l 63 689 l 63 793 q 148 1051 63 963 q 397 1139 233 1139 q 641 1045 556 1139 q 726 782 726 951 l 726 342 q 640 79 726 174 q 397 -15 554 -15 m 394 149 q 470 183 447 149 q 493 289 493 217 l 493 440 l 296 440 l 296 289 q 319 183 296 217 q 394 149 342 149 z "},"T":{"ha":607,"x_min":11,"x_max":596,"o":"m 190 956 l 11 956 l 11 1125 l 596 1125 l 596 956 l 419 956 l 419 0 l 190 0 l 190 956 z "},"Ŧ":{"ha":607,"x_min":11,"x_max":596,"o":"m 419 956 l 419 633 l 550 633 l 550 519 l 419 519 l 419 0 l 190 0 l 190 519 l 63 519 l 63 633 l 190 633 l 190 956 l 11 956 l 11 1125 l 596 1125 l 596 956 l 419 956 z "},"Ť":{"ha":607,"x_min":11,"x_max":596,"o":"m 190 956 l 11 956 l 11 1125 l 596 1125 l 596 956 l 419 956 l 419 0 l 190 0 l 190 956 m 79 1464 l 229 1464 l 303 1310 l 376 1464 l 526 1464 l 404 1210 l 200 1210 l 79 1464 z "},"Ţ":{"ha":607,"x_min":11,"x_max":596,"o":"m 190 956 l 11 956 l 11 1125 l 596 1125 l 596 956 l 419 956 l 419 0 l 190 0 l 190 956 m 328 -372 q 225 -357 278 -372 l 225 -264 q 303 -275 267 -275 q 365 -263 342 -275 q 389 -225 389 -251 q 353 -173 389 -190 q 263 -151 317 -156 l 263 0 l 343 0 l 343 -89 q 478 -124 429 -89 q 526 -228 526 -160 q 470 -336 526 -300 q 328 -372 414 -372 z "},"Ț":{"ha":607,"x_min":11,"x_max":596,"o":"m 190 956 l 11 956 l 11 1125 l 596 1125 l 596 956 l 419 956 l 419 0 l 190 0 l 190 956 m 218 -399 q 286 -367 261 -392 q 311 -292 311 -343 l 203 -292 l 203 -93 l 403 -93 l 403 -267 q 363 -419 401 -367 q 239 -474 325 -472 l 218 -399 z "},"Ṫ":{"ha":607,"x_min":11,"x_max":596,"o":"m 190 956 l 11 956 l 11 1125 l 596 1125 l 596 956 l 419 956 l 419 0 l 190 0 l 190 956 m 203 1436 l 403 1436 l 403 1233 l 203 1233 l 203 1436 z "},"U":{"ha":803,"x_min":76,"x_max":728,"o":"m 401 -15 q 206 27 276 -15 q 106 150 135 69 q 76 356 76 231 l 76 1125 l 301 1125 l 301 324 q 321 197 301 243 q 401 151 340 151 q 482 197 463 151 q 501 324 501 243 l 501 1125 l 728 1125 l 728 356 q 699 150 728 231 q 598 27 669 69 q 401 -15 526 -15 z "},"Ú":{"ha":803,"x_min":76,"x_max":728,"o":"m 401 -15 q 206 27 276 -15 q 106 150 135 69 q 76 356 76 231 l 76 1125 l 301 1125 l 301 324 q 321 197 301 243 q 401 151 340 151 q 482 197 463 151 q 501 324 501 243 l 501 1125 l 728 1125 l 728 356 q 699 150 728 231 q 598 27 669 69 q 401 -15 526 -15 m 421 1488 l 635 1488 l 464 1208 l 336 1208 l 421 1488 z "},"Ŭ":{"ha":803,"x_min":76,"x_max":728,"o":"m 401 -15 q 206 27 276 -15 q 106 150 135 69 q 76 356 76 231 l 76 1125 l 301 1125 l 301 324 q 321 197 301 243 q 401 151 340 151 q 482 197 463 151 q 501 324 501 243 l 501 1125 l 728 1125 l 728 356 q 699 150 728 231 q 598 27 669 69 q 401 -15 526 -15 m 403 1214 q 248 1269 304 1214 q 192 1425 192 1325 l 311 1425 q 332 1348 311 1372 q 403 1324 353 1324 q 473 1349 451 1324 q 494 1425 494 1374 l 613 1425 q 557 1269 613 1325 q 403 1214 501 1214 z "},"Û":{"ha":803,"x_min":76,"x_max":728,"o":"m 401 -15 q 206 27 276 -15 q 106 150 135 69 q 76 356 76 231 l 76 1125 l 301 1125 l 301 324 q 321 197 301 243 q 401 151 340 151 q 482 197 463 151 q 501 324 501 243 l 501 1125 l 728 1125 l 728 356 q 699 150 728 231 q 598 27 669 69 q 401 -15 526 -15 m 313 1481 l 490 1481 l 622 1219 l 468 1219 l 401 1386 l 336 1219 l 183 1219 l 313 1481 z "},"Ȕ":{"ha":803,"x_min":76,"x_max":728,"o":"m 401 -15 q 206 27 276 -15 q 106 150 135 69 q 76 356 76 231 l 76 1125 l 301 1125 l 301 324 q 321 197 301 243 q 401 151 340 151 q 482 197 463 151 q 501 324 501 243 l 501 1125 l 728 1125 l 728 356 q 699 150 728 231 q 598 27 669 69 q 401 -15 526 -15 m 100 1485 l 268 1485 l 356 1210 l 243 1210 l 100 1485 m 350 1485 l 506 1485 l 582 1210 l 472 1210 l 350 1485 z "},"Ü":{"ha":803,"x_min":76,"x_max":728,"o":"m 401 -15 q 206 27 276 -15 q 106 150 135 69 q 76 356 76 231 l 76 1125 l 301 1125 l 301 324 q 321 197 301 243 q 401 151 340 151 q 482 197 463 151 q 501 324 501 243 l 501 1125 l 728 1125 l 728 356 q 699 150 728 231 q 598 27 669 69 q 401 -15 526 -15 m 171 1447 l 344 1447 l 344 1253 l 171 1253 l 171 1447 m 460 1447 l 635 1447 l 635 1253 l 460 1253 l 460 1447 z "},"Ụ":{"ha":803,"x_min":76,"x_max":728,"o":"m 401 -15 q 206 27 276 -15 q 106 150 135 69 q 76 356 76 231 l 76 1125 l 301 1125 l 301 324 q 321 197 301 243 q 401 151 340 151 q 482 197 463 151 q 501 324 501 243 l 501 1125 l 728 1125 l 728 356 q 699 150 728 231 q 598 27 669 69 q 401 -15 526 -15 m 311 -94 l 494 -94 l 494 -279 l 311 -279 l 311 -94 z "},"Ù":{"ha":803,"x_min":76,"x_max":728,"o":"m 401 -15 q 206 27 276 -15 q 106 150 135 69 q 76 356 76 231 l 76 1125 l 301 1125 l 301 324 q 321 197 301 243 q 401 151 340 151 q 482 197 463 151 q 501 324 501 243 l 501 1125 l 728 1125 l 728 356 q 699 150 728 231 q 598 27 669 69 q 401 -15 526 -15 m 171 1488 l 386 1488 l 469 1208 l 343 1208 l 171 1488 z "},"Ủ":{"ha":803,"x_min":76,"x_max":728,"o":"m 401 -15 q 206 27 276 -15 q 106 150 135 69 q 76 356 76 231 l 76 1125 l 301 1125 l 301 324 q 321 197 301 243 q 401 151 340 151 q 482 197 463 151 q 501 324 501 243 l 501 1125 l 728 1125 l 728 356 q 699 150 728 231 q 598 27 669 69 q 401 -15 526 -15 m 333 1264 q 408 1306 386 1289 q 431 1351 431 1324 q 350 1401 431 1401 q 268 1392 307 1401 l 268 1482 q 403 1500 338 1500 q 522 1467 475 1500 q 569 1365 569 1433 q 526 1262 569 1300 q 403 1196 482 1224 l 333 1264 z "},"Ư":{"ha":803,"x_min":76,"x_max":824,"o":"m 824 1240 q 728 1064 824 1115 l 728 356 q 699 150 728 231 q 598 27 669 69 q 401 -15 526 -15 q 206 27 276 -15 q 106 150 135 69 q 76 356 76 231 l 76 1125 l 301 1125 l 301 324 q 321 197 301 243 q 401 151 340 151 q 482 197 463 151 q 501 324 501 243 l 501 1125 l 600 1125 q 658 1153 640 1125 q 675 1240 675 1181 l 824 1240 z "},"Ứ":{"ha":803,"x_min":76,"x_max":824,"o":"m 824 1240 q 728 1064 824 1115 l 728 356 q 699 150 728 231 q 598 27 669 69 q 401 -15 526 -15 q 206 27 276 -15 q 106 150 135 69 q 76 356 76 231 l 76 1125 l 301 1125 l 301 324 q 321 197 301 243 q 401 151 340 151 q 482 197 463 151 q 501 324 501 243 l 501 1125 l 600 1125 q 658 1153 640 1125 q 675 1240 675 1181 l 824 1240 m 421 1488 l 635 1488 l 464 1208 l 336 1208 l 421 1488 z "},"Ự":{"ha":803,"x_min":76,"x_max":824,"o":"m 824 1240 q 728 1064 824 1115 l 728 356 q 699 150 728 231 q 598 27 669 69 q 401 -15 526 -15 q 206 27 276 -15 q 106 150 135 69 q 76 356 76 231 l 76 1125 l 301 1125 l 301 324 q 321 197 301 243 q 401 151 340 151 q 482 197 463 151 q 501 324 501 243 l 501 1125 l 600 1125 q 658 1153 640 1125 q 675 1240 675 1181 l 824 1240 m 311 -94 l 494 -94 l 494 -279 l 311 -279 l 311 -94 z "},"Ừ":{"ha":803,"x_min":76,"x_max":824,"o":"m 824 1240 q 728 1064 824 1115 l 728 356 q 699 150 728 231 q 598 27 669 69 q 401 -15 526 -15 q 206 27 276 -15 q 106 150 135 69 q 76 356 76 231 l 76 1125 l 301 1125 l 301 324 q 321 197 301 243 q 401 151 340 151 q 482 197 463 151 q 501 324 501 243 l 501 1125 l 600 1125 q 658 1153 640 1125 q 675 1240 675 1181 l 824 1240 m 171 1488 l 386 1488 l 469 1208 l 343 1208 l 171 1488 z "},"Ử":{"ha":803,"x_min":76,"x_max":824,"o":"m 824 1240 q 728 1064 824 1115 l 728 356 q 699 150 728 231 q 598 27 669 69 q 401 -15 526 -15 q 206 27 276 -15 q 106 150 135 69 q 76 356 76 231 l 76 1125 l 301 1125 l 301 324 q 321 197 301 243 q 401 151 340 151 q 482 197 463 151 q 501 324 501 243 l 501 1125 l 600 1125 q 658 1153 640 1125 q 675 1240 675 1181 l 824 1240 m 333 1264 q 408 1306 386 1289 q 431 1351 431 1324 q 350 1401 431 1401 q 268 1392 307 1401 l 268 1482 q 403 1500 338 1500 q 522 1467 475 1500 q 569 1365 569 1433 q 526 1262 569 1300 q 403 1196 482 1224 l 333 1264 z "},"Ữ":{"ha":803,"x_min":76,"x_max":824,"o":"m 824 1240 q 728 1064 824 1115 l 728 356 q 699 150 728 231 q 598 27 669 69 q 401 -15 526 -15 q 206 27 276 -15 q 106 150 135 69 q 76 356 76 231 l 76 1125 l 301 1125 l 301 324 q 321 197 301 243 q 401 151 340 151 q 482 197 463 151 q 501 324 501 243 l 501 1125 l 600 1125 q 658 1153 640 1125 q 675 1240 675 1181 l 824 1240 m 514 1260 q 466 1269 489 1260 q 414 1296 443 1278 q 339 1325 367 1325 q 289 1268 289 1325 l 186 1268 q 307 1456 183 1456 q 352 1447 331 1456 q 400 1422 374 1439 q 443 1401 425 1408 q 481 1393 461 1393 q 524 1447 524 1393 l 619 1447 q 598 1312 619 1364 q 514 1260 576 1260 z "},"Ű":{"ha":803,"x_min":76,"x_max":733,"o":"m 401 -15 q 206 27 276 -15 q 106 150 135 69 q 76 356 76 231 l 76 1125 l 301 1125 l 301 324 q 321 197 301 243 q 401 151 340 151 q 482 197 463 151 q 501 324 501 243 l 501 1125 l 728 1125 l 728 356 q 699 150 728 231 q 598 27 669 69 q 401 -15 526 -15 m 306 1490 l 476 1490 l 336 1204 l 229 1204 l 306 1490 m 547 1490 l 733 1490 l 568 1204 l 460 1204 l 547 1490 z "},"Ȗ":{"ha":803,"x_min":76,"x_max":728,"o":"m 401 -15 q 206 27 276 -15 q 106 150 135 69 q 76 356 76 231 l 76 1125 l 301 1125 l 301 324 q 321 197 301 243 q 401 151 340 151 q 482 197 463 151 q 501 324 501 243 l 501 1125 l 728 1125 l 728 356 q 699 150 728 231 q 598 27 669 69 q 401 -15 526 -15 m 192 1228 q 247 1388 193 1331 q 403 1446 301 1446 q 560 1388 506 1446 q 614 1228 614 1331 l 494 1228 q 474 1310 494 1285 q 403 1336 453 1336 q 332 1311 353 1336 q 311 1228 311 1286 l 192 1228 z "},"Ū":{"ha":803,"x_min":76,"x_max":728,"o":"m 401 -15 q 206 27 276 -15 q 106 150 135 69 q 76 356 76 231 l 76 1125 l 301 1125 l 301 324 q 321 197 301 243 q 401 151 340 151 q 482 197 463 151 q 501 324 501 243 l 501 1125 l 728 1125 l 728 356 q 699 150 728 231 q 598 27 669 69 q 401 -15 526 -15 m 224 1357 l 582 1357 l 582 1253 l 224 1253 l 224 1357 z "},"Ų":{"ha":803,"x_min":76,"x_max":728,"o":"m 728 1125 l 728 356 q 673 99 728 189 q 482 -10 618 10 q 425 -171 425 -99 q 518 -249 425 -249 q 560 -246 538 -249 l 538 -349 q 490 -353 519 -353 q 336 -323 397 -353 q 275 -208 275 -293 q 304 -106 275 -160 q 375 -15 333 -53 q 142 83 208 -8 q 76 356 76 174 l 76 1125 l 301 1125 l 301 324 q 321 197 301 243 q 401 151 340 151 q 482 197 463 151 q 501 324 501 243 l 501 1125 l 728 1125 z "},"Ů":{"ha":803,"x_min":76,"x_max":728,"o":"m 401 -15 q 206 27 276 -15 q 106 150 135 69 q 76 356 76 231 l 76 1125 l 301 1125 l 301 324 q 321 197 301 243 q 401 151 340 151 q 482 197 463 151 q 501 324 501 243 l 501 1125 l 728 1125 l 728 356 q 699 150 728 231 q 598 27 669 69 q 401 -15 526 -15 m 401 1178 q 287 1218 332 1178 q 242 1331 242 1258 q 287 1443 242 1403 q 401 1483 332 1483 q 517 1442 471 1483 q 564 1331 564 1401 q 518 1218 564 1258 q 401 1178 472 1178 m 401 1257 q 455 1278 436 1257 q 474 1331 474 1299 q 455 1385 474 1364 q 401 1406 436 1406 q 349 1385 368 1406 q 331 1331 331 1364 q 349 1278 331 1299 q 401 1257 368 1257 z "},"Ũ":{"ha":803,"x_min":76,"x_max":728,"o":"m 401 -15 q 206 27 276 -15 q 106 150 135 69 q 76 356 76 231 l 76 1125 l 301 1125 l 301 324 q 321 197 301 243 q 401 151 340 151 q 482 197 463 151 q 501 324 501 243 l 501 1125 l 728 1125 l 728 356 q 699 150 728 231 q 598 27 669 69 q 401 -15 526 -15 m 514 1260 q 466 1269 489 1260 q 414 1296 443 1278 q 339 1325 367 1325 q 289 1268 289 1325 l 186 1268 q 307 1456 183 1456 q 352 1447 331 1456 q 400 1422 374 1439 q 443 1401 425 1408 q 481 1393 461 1393 q 524 1447 524 1393 l 619 1447 q 598 1312 619 1364 q 514 1260 576 1260 z "},"V":{"ha":724,"x_min":31,"x_max":694,"o":"m 31 1125 l 229 1125 l 363 347 l 488 1125 l 694 1125 l 481 0 l 244 0 l 31 1125 z "},"W":{"ha":978,"x_min":40,"x_max":938,"o":"m 40 1125 l 233 1125 l 313 438 l 411 1124 l 565 1124 l 668 440 l 747 1125 l 938 1125 l 793 0 l 597 0 l 489 713 l 385 0 l 186 0 l 40 1125 z "},"Ẃ":{"ha":978,"x_min":40,"x_max":938,"o":"m 40 1125 l 233 1125 l 313 438 l 411 1124 l 565 1124 l 668 440 l 747 1125 l 938 1125 l 793 0 l 597 0 l 489 713 l 385 0 l 186 0 l 40 1125 m 507 1488 l 721 1488 l 550 1208 l 422 1208 l 507 1488 z "},"Ŵ":{"ha":978,"x_min":40,"x_max":938,"o":"m 40 1125 l 233 1125 l 313 438 l 411 1124 l 565 1124 l 668 440 l 747 1125 l 938 1125 l 793 0 l 597 0 l 489 713 l 385 0 l 186 0 l 40 1125 m 399 1481 l 576 1481 l 708 1219 l 554 1219 l 488 1386 l 422 1219 l 269 1219 l 399 1481 z "},"Ẅ":{"ha":978,"x_min":40,"x_max":938,"o":"m 40 1125 l 233 1125 l 313 438 l 411 1124 l 565 1124 l 668 440 l 747 1125 l 938 1125 l 793 0 l 597 0 l 489 713 l 385 0 l 186 0 l 40 1125 m 257 1447 l 431 1447 l 431 1253 l 257 1253 l 257 1447 m 546 1447 l 721 1447 l 721 1253 l 546 1253 l 546 1447 z "},"Ẁ":{"ha":978,"x_min":40,"x_max":938,"o":"m 40 1125 l 233 1125 l 313 438 l 411 1124 l 565 1124 l 668 440 l 747 1125 l 938 1125 l 793 0 l 597 0 l 489 713 l 385 0 l 186 0 l 40 1125 m 257 1488 l 472 1488 l 556 1208 l 429 1208 l 257 1488 z "},"X":{"ha":706,"x_min":11,"x_max":694,"o":"m 233 603 l 19 1125 l 236 1125 l 369 800 l 481 1125 l 675 1125 l 471 549 l 694 0 l 481 0 l 333 356 l 204 0 l 11 0 l 233 603 z "},"Y":{"ha":682,"x_min":13,"x_max":669,"o":"m 232 446 l 13 1125 l 228 1125 l 349 729 l 460 1125 l 669 1125 l 453 446 l 453 0 l 232 0 l 232 446 z "},"Ý":{"ha":682,"x_min":13,"x_max":669,"o":"m 232 446 l 13 1125 l 228 1125 l 349 729 l 460 1125 l 669 1125 l 453 446 l 453 0 l 232 0 l 232 446 m 360 1488 l 574 1488 l 403 1208 l 275 1208 l 360 1488 z "},"Ŷ":{"ha":682,"x_min":13,"x_max":669,"o":"m 232 446 l 13 1125 l 228 1125 l 349 729 l 460 1125 l 669 1125 l 453 446 l 453 0 l 232 0 l 232 446 m 251 1481 l 429 1481 l 561 1219 l 407 1219 l 340 1386 l 275 1219 l 122 1219 l 251 1481 z "},"Ÿ":{"ha":682,"x_min":13,"x_max":669,"o":"m 232 446 l 13 1125 l 228 1125 l 349 729 l 460 1125 l 669 1125 l 453 446 l 453 0 l 232 0 l 232 446 m 110 1447 l 283 1447 l 283 1253 l 110 1253 l 110 1447 m 399 1447 l 574 1447 l 574 1253 l 399 1253 l 399 1447 z "},"Ỵ":{"ha":682,"x_min":13,"x_max":669,"o":"m 232 446 l 13 1125 l 228 1125 l 349 729 l 460 1125 l 669 1125 l 453 446 l 453 0 l 232 0 l 232 446 m 250 -94 l 433 -94 l 433 -279 l 250 -279 l 250 -94 z "},"Ỳ":{"ha":682,"x_min":13,"x_max":669,"o":"m 232 446 l 13 1125 l 228 1125 l 349 729 l 460 1125 l 669 1125 l 453 446 l 453 0 l 232 0 l 232 446 m 110 1488 l 325 1488 l 408 1208 l 282 1208 l 110 1488 z "},"Ỷ":{"ha":682,"x_min":13,"x_max":669,"o":"m 232 446 l 13 1125 l 228 1125 l 349 729 l 460 1125 l 669 1125 l 453 446 l 453 0 l 232 0 l 232 446 m 272 1264 q 347 1306 325 1289 q 369 1351 369 1324 q 289 1401 369 1401 q 207 1392 246 1401 l 207 1482 q 342 1500 276 1500 q 461 1467 414 1500 q 508 1365 508 1433 q 465 1262 508 1300 q 342 1196 421 1224 l 272 1264 z "},"Ȳ":{"ha":682,"x_min":13,"x_max":669,"o":"m 232 446 l 13 1125 l 228 1125 l 349 729 l 460 1125 l 669 1125 l 453 446 l 453 0 l 232 0 l 232 446 m 163 1357 l 521 1357 l 521 1253 l 163 1253 l 163 1357 z "},"Ỹ":{"ha":682,"x_min":13,"x_max":669,"o":"m 232 446 l 13 1125 l 228 1125 l 349 729 l 460 1125 l 669 1125 l 453 446 l 453 0 l 232 0 l 232 446 m 453 1260 q 405 1269 428 1260 q 353 1296 382 1278 q 278 1325 306 1325 q 228 1268 228 1325 l 125 1268 q 246 1456 122 1456 q 291 1447 269 1456 q 339 1422 313 1439 q 382 1401 364 1408 q 419 1393 400 1393 q 463 1447 463 1393 l 558 1447 q 537 1312 558 1364 q 453 1260 515 1260 z "},"Z":{"ha":596,"x_min":43,"x_max":560,"o":"m 43 142 l 331 968 l 57 968 l 57 1125 l 557 1125 l 557 1000 l 264 156 l 560 156 l 560 0 l 43 0 l 43 142 z "},"Ź":{"ha":596,"x_min":43,"x_max":560,"o":"m 43 142 l 331 968 l 57 968 l 57 1125 l 557 1125 l 557 1000 l 264 156 l 560 156 l 560 0 l 43 0 l 43 142 m 317 1488 l 531 1488 l 360 1208 l 232 1208 l 317 1488 z "},"Ž":{"ha":596,"x_min":43,"x_max":560,"o":"m 43 142 l 331 968 l 57 968 l 57 1125 l 557 1125 l 557 1000 l 264 156 l 560 156 l 560 0 l 43 0 l 43 142 m 75 1464 l 225 1464 l 299 1310 l 372 1464 l 522 1464 l 400 1210 l 196 1210 l 75 1464 z "},"Ż":{"ha":596,"x_min":43,"x_max":560,"o":"m 43 142 l 331 968 l 57 968 l 57 1125 l 557 1125 l 557 1000 l 264 156 l 560 156 l 560 0 l 43 0 l 43 142 m 199 1436 l 399 1436 l 399 1233 l 199 1233 l 199 1436 z "},"a":{"ha":647,"x_min":51,"x_max":594,"o":"m 233 -14 q 136 15 178 -14 q 73 88 94 43 q 51 181 51 132 q 92 327 51 269 q 191 417 133 385 q 338 482 249 449 l 379 499 l 379 574 q 367 639 379 617 q 325 661 356 661 q 282 642 294 661 q 267 586 269 622 l 263 531 l 65 539 l 67 565 q 146 756 76 696 q 343 817 215 817 q 521 751 461 817 q 581 572 581 686 l 581 199 q 587 67 581 122 q 594 0 593 13 l 407 0 q 389 115 401 40 q 333 23 372 60 q 233 -14 293 -14 m 308 135 q 347 149 328 135 q 379 181 367 163 l 379 401 q 282 324 319 372 q 244 225 244 275 q 262 159 244 183 q 308 135 279 135 z "},"á":{"ha":647,"x_min":51,"x_max":594,"o":"m 233 -14 q 136 15 178 -14 q 73 88 94 43 q 51 181 51 132 q 92 327 51 269 q 191 417 133 385 q 338 482 249 449 l 379 499 l 379 574 q 367 639 379 617 q 325 661 356 661 q 282 642 294 661 q 267 586 269 622 l 263 531 l 65 539 l 67 565 q 146 756 76 696 q 343 817 215 817 q 521 751 461 817 q 581 572 581 686 l 581 199 q 587 67 581 122 q 594 0 593 13 l 407 0 q 389 115 401 40 q 333 23 372 60 q 233 -14 293 -14 m 308 135 q 347 149 328 135 q 379 181 367 163 l 379 401 q 282 324 319 372 q 244 225 244 275 q 262 159 244 183 q 308 135 279 135 m 360 1165 l 574 1165 l 403 886 l 275 886 l 360 1165 z "},"ă":{"ha":647,"x_min":51,"x_max":594,"o":"m 233 -14 q 136 15 178 -14 q 73 88 94 43 q 51 181 51 132 q 92 327 51 269 q 191 417 133 385 q 338 482 249 449 l 379 499 l 379 574 q 367 639 379 617 q 325 661 356 661 q 282 642 294 661 q 267 586 269 622 l 263 531 l 65 539 l 67 565 q 146 756 76 696 q 343 817 215 817 q 521 751 461 817 q 581 572 581 686 l 581 199 q 587 67 581 122 q 594 0 593 13 l 407 0 q 389 115 401 40 q 333 23 372 60 q 233 -14 293 -14 m 308 135 q 347 149 328 135 q 379 181 367 163 l 379 401 q 282 324 319 372 q 244 225 244 275 q 262 159 244 183 q 308 135 279 135 m 342 892 q 187 947 243 892 q 131 1103 131 1003 l 250 1103 q 271 1026 250 1050 q 342 1001 292 1001 q 412 1026 390 1001 q 433 1103 433 1051 l 551 1103 q 496 947 551 1003 q 342 892 440 892 z "},"ắ":{"ha":647,"x_min":51,"x_max":594,"o":"m 233 -14 q 136 15 178 -14 q 73 88 94 43 q 51 181 51 132 q 92 327 51 269 q 191 417 133 385 q 338 482 249 449 l 379 499 l 379 574 q 367 639 379 617 q 325 661 356 661 q 282 642 294 661 q 267 586 269 622 l 263 531 l 65 539 l 67 565 q 146 756 76 696 q 343 817 215 817 q 521 751 461 817 q 581 572 581 686 l 581 199 q 587 67 581 122 q 594 0 593 13 l 407 0 q 389 115 401 40 q 333 23 372 60 q 233 -14 293 -14 m 308 135 q 347 149 328 135 q 379 181 367 163 l 379 401 q 282 324 319 372 q 244 225 244 275 q 262 159 244 183 q 308 135 279 135 m 350 1311 l 526 1311 l 375 1150 l 253 1150 l 350 1311 m 342 882 q 187 938 243 882 q 131 1093 131 993 l 250 1093 q 271 1016 250 1040 q 342 992 292 992 q 412 1017 390 992 q 433 1093 433 1042 l 551 1093 q 496 938 551 993 q 342 882 440 882 z "},"ặ":{"ha":647,"x_min":51,"x_max":594,"o":"m 233 -14 q 136 15 178 -14 q 73 88 94 43 q 51 181 51 132 q 92 327 51 269 q 191 417 133 385 q 338 482 249 449 l 379 499 l 379 574 q 367 639 379 617 q 325 661 356 661 q 282 642 294 661 q 267 586 269 622 l 263 531 l 65 539 l 67 565 q 146 756 76 696 q 343 817 215 817 q 521 751 461 817 q 581 572 581 686 l 581 199 q 587 67 581 122 q 594 0 593 13 l 407 0 q 389 115 401 40 q 333 23 372 60 q 233 -14 293 -14 m 308 135 q 347 149 328 135 q 379 181 367 163 l 379 401 q 282 324 319 372 q 244 225 244 275 q 262 159 244 183 q 308 135 279 135 m 232 -94 l 415 -94 l 415 -279 l 232 -279 l 232 -94 m 342 892 q 187 947 243 892 q 131 1103 131 1003 l 250 1103 q 271 1026 250 1050 q 342 1001 292 1001 q 412 1026 390 1001 q 433 1103 433 1051 l 551 1103 q 496 947 551 1003 q 342 892 440 892 z "},"ằ":{"ha":647,"x_min":51,"x_max":594,"o":"m 233 -14 q 136 15 178 -14 q 73 88 94 43 q 51 181 51 132 q 92 327 51 269 q 191 417 133 385 q 338 482 249 449 l 379 499 l 379 574 q 367 639 379 617 q 325 661 356 661 q 282 642 294 661 q 267 586 269 622 l 263 531 l 65 539 l 67 565 q 146 756 76 696 q 343 817 215 817 q 521 751 461 817 q 581 572 581 686 l 581 199 q 587 67 581 122 q 594 0 593 13 l 407 0 q 389 115 401 40 q 333 23 372 60 q 233 -14 293 -14 m 308 135 q 347 149 328 135 q 379 181 367 163 l 379 401 q 282 324 319 372 q 244 225 244 275 q 262 159 244 183 q 308 135 279 135 m 154 1311 l 331 1311 l 428 1150 l 307 1150 l 154 1311 m 342 882 q 187 938 243 882 q 131 1093 131 993 l 250 1093 q 271 1016 250 1040 q 342 992 292 992 q 412 1017 390 992 q 433 1093 433 1042 l 551 1093 q 496 938 551 993 q 342 882 440 882 z "},"ẳ":{"ha":647,"x_min":51,"x_max":594,"o":"m 233 -14 q 136 15 178 -14 q 73 88 94 43 q 51 181 51 132 q 92 327 51 269 q 191 417 133 385 q 338 482 249 449 l 379 499 l 379 574 q 367 639 379 617 q 325 661 356 661 q 282 642 294 661 q 267 586 269 622 l 263 531 l 65 539 l 67 565 q 146 756 76 696 q 343 817 215 817 q 521 751 461 817 q 581 572 581 686 l 581 199 q 587 67 581 122 q 594 0 593 13 l 407 0 q 389 115 401 40 q 333 23 372 60 q 233 -14 293 -14 m 308 135 q 347 149 328 135 q 379 181 367 163 l 379 401 q 282 324 319 372 q 244 225 244 275 q 262 159 244 183 q 308 135 279 135 m 297 1172 q 338 1212 324 1193 q 351 1254 351 1231 q 333 1295 351 1281 q 286 1310 315 1310 q 217 1297 251 1310 l 217 1388 q 329 1407 267 1407 q 442 1373 399 1407 q 485 1274 485 1339 q 451 1176 485 1215 q 357 1107 417 1136 l 297 1172 m 342 892 q 187 947 243 892 q 131 1103 131 1003 l 250 1103 q 271 1026 250 1050 q 342 1001 292 1001 q 412 1026 390 1001 q 433 1103 433 1051 l 551 1103 q 496 947 551 1003 q 342 892 440 892 z "},"ẵ":{"ha":647,"x_min":51,"x_max":594,"o":"m 233 -14 q 136 15 178 -14 q 73 88 94 43 q 51 181 51 132 q 92 327 51 269 q 191 417 133 385 q 338 482 249 449 l 379 499 l 379 574 q 367 639 379 617 q 325 661 356 661 q 282 642 294 661 q 267 586 269 622 l 263 531 l 65 539 l 67 565 q 146 756 76 696 q 343 817 215 817 q 521 751 461 817 q 581 572 581 686 l 581 199 q 587 67 581 122 q 594 0 593 13 l 407 0 q 389 115 401 40 q 333 23 372 60 q 233 -14 293 -14 m 308 135 q 347 149 328 135 q 379 181 367 163 l 379 401 q 282 324 319 372 q 244 225 244 275 q 262 159 244 183 q 308 135 279 135 m 342 892 q 187 947 243 892 q 131 1103 131 1003 l 250 1103 q 271 1026 250 1050 q 342 1001 292 1001 q 412 1026 390 1001 q 433 1103 433 1051 l 551 1103 q 496 947 551 1003 q 342 892 440 892 m 453 1176 q 405 1185 428 1176 q 353 1213 382 1194 q 278 1242 306 1242 q 228 1185 228 1242 l 125 1185 q 246 1372 122 1372 q 291 1364 269 1372 q 339 1339 313 1356 q 382 1317 364 1325 q 419 1310 400 1310 q 463 1364 463 1310 l 558 1364 q 537 1228 558 1281 q 453 1176 515 1176 z "},"â":{"ha":647,"x_min":51,"x_max":594,"o":"m 233 -14 q 136 15 178 -14 q 73 88 94 43 q 51 181 51 132 q 92 327 51 269 q 191 417 133 385 q 338 482 249 449 l 379 499 l 379 574 q 367 639 379 617 q 325 661 356 661 q 282 642 294 661 q 267 586 269 622 l 263 531 l 65 539 l 67 565 q 146 756 76 696 q 343 817 215 817 q 521 751 461 817 q 581 572 581 686 l 581 199 q 587 67 581 122 q 594 0 593 13 l 407 0 q 389 115 401 40 q 333 23 372 60 q 233 -14 293 -14 m 308 135 q 347 149 328 135 q 379 181 367 163 l 379 401 q 282 324 319 372 q 244 225 244 275 q 262 159 244 183 q 308 135 279 135 m 251 1158 l 429 1158 l 561 897 l 407 897 l 340 1064 l 275 897 l 122 897 l 251 1158 z "},"ấ":{"ha":647,"x_min":51,"x_max":761,"o":"m 233 -14 q 136 15 178 -14 q 73 88 94 43 q 51 181 51 132 q 92 327 51 269 q 191 417 133 385 q 338 482 249 449 l 379 499 l 379 574 q 367 639 379 617 q 325 661 356 661 q 282 642 294 661 q 267 586 269 622 l 263 531 l 65 539 l 67 565 q 146 756 76 696 q 343 817 215 817 q 521 751 461 817 q 581 572 581 686 l 581 199 q 587 67 581 122 q 594 0 593 13 l 407 0 q 389 115 401 40 q 333 23 372 60 q 233 -14 293 -14 m 308 135 q 347 149 328 135 q 379 181 367 163 l 379 401 q 282 324 319 372 q 244 225 244 275 q 262 159 244 183 q 308 135 279 135 m 600 1225 l 761 1225 l 640 1057 l 526 1057 l 600 1225 m 251 1125 l 429 1125 l 561 897 l 411 897 l 340 1036 l 271 897 l 122 897 l 251 1125 z "},"ậ":{"ha":647,"x_min":51,"x_max":594,"o":"m 233 -14 q 136 15 178 -14 q 73 88 94 43 q 51 181 51 132 q 92 327 51 269 q 191 417 133 385 q 338 482 249 449 l 379 499 l 379 574 q 367 639 379 617 q 325 661 356 661 q 282 642 294 661 q 267 586 269 622 l 263 531 l 65 539 l 67 565 q 146 756 76 696 q 343 817 215 817 q 521 751 461 817 q 581 572 581 686 l 581 199 q 587 67 581 122 q 594 0 593 13 l 407 0 q 389 115 401 40 q 333 23 372 60 q 233 -14 293 -14 m 308 135 q 347 149 328 135 q 379 181 367 163 l 379 401 q 282 324 319 372 q 244 225 244 275 q 262 159 244 183 q 308 135 279 135 m 232 -94 l 415 -94 l 415 -279 l 232 -279 l 232 -94 m 251 1125 l 429 1125 l 561 897 l 411 897 l 340 1036 l 271 897 l 122 897 l 251 1125 z "},"ầ":{"ha":647,"x_min":51,"x_max":681,"o":"m 233 -14 q 136 15 178 -14 q 73 88 94 43 q 51 181 51 132 q 92 327 51 269 q 191 417 133 385 q 338 482 249 449 l 379 499 l 379 574 q 367 639 379 617 q 325 661 356 661 q 282 642 294 661 q 267 586 269 622 l 263 531 l 65 539 l 67 565 q 146 756 76 696 q 343 817 215 817 q 521 751 461 817 q 581 572 581 686 l 581 199 q 587 67 581 122 q 594 0 593 13 l 407 0 q 389 115 401 40 q 333 23 372 60 q 233 -14 293 -14 m 308 135 q 347 149 328 135 q 379 181 367 163 l 379 401 q 282 324 319 372 q 244 225 244 275 q 262 159 244 183 q 308 135 279 135 m 446 1225 l 607 1225 l 681 1057 l 567 1057 l 446 1225 m 251 1125 l 429 1125 l 561 897 l 411 897 l 340 1036 l 271 897 l 122 897 l 251 1125 z "},"ẩ":{"ha":647,"x_min":51,"x_max":707,"o":"m 233 -14 q 136 15 178 -14 q 73 88 94 43 q 51 181 51 132 q 92 327 51 269 q 191 417 133 385 q 338 482 249 449 l 379 499 l 379 574 q 367 639 379 617 q 325 661 356 661 q 282 642 294 661 q 267 586 269 622 l 263 531 l 65 539 l 67 565 q 146 756 76 696 q 343 817 215 817 q 521 751 461 817 q 581 572 581 686 l 581 199 q 587 67 581 122 q 594 0 593 13 l 407 0 q 389 115 401 40 q 333 23 372 60 q 233 -14 293 -14 m 308 135 q 347 149 328 135 q 379 181 367 163 l 379 401 q 282 324 319 372 q 244 225 244 275 q 262 159 244 183 q 308 135 279 135 m 518 1088 q 559 1127 546 1108 q 572 1169 572 1146 q 555 1210 572 1196 q 508 1225 538 1225 q 439 1213 474 1225 l 439 1303 q 550 1322 489 1322 q 664 1288 621 1322 q 707 1189 707 1254 q 673 1091 707 1129 q 579 1022 639 1053 l 518 1088 m 251 1125 l 429 1125 l 561 897 l 411 897 l 340 1036 l 271 897 l 122 897 l 251 1125 z "},"ẫ":{"ha":647,"x_min":51,"x_max":594,"o":"m 233 -14 q 136 15 178 -14 q 73 88 94 43 q 51 181 51 132 q 92 327 51 269 q 191 417 133 385 q 338 482 249 449 l 379 499 l 379 574 q 367 639 379 617 q 325 661 356 661 q 282 642 294 661 q 267 586 269 622 l 263 531 l 65 539 l 67 565 q 146 756 76 696 q 343 817 215 817 q 521 751 461 817 q 581 572 581 686 l 581 199 q 587 67 581 122 q 594 0 593 13 l 407 0 q 389 115 401 40 q 333 23 372 60 q 233 -14 293 -14 m 308 135 q 347 149 328 135 q 379 181 367 163 l 379 401 q 282 324 319 372 q 244 225 244 275 q 262 159 244 183 q 308 135 279 135 m 251 1125 l 429 1125 l 561 897 l 411 897 l 340 1036 l 271 897 l 122 897 l 251 1125 m 453 1193 q 405 1202 428 1193 q 353 1229 382 1211 q 278 1258 306 1258 q 228 1201 228 1258 l 125 1201 q 246 1389 122 1389 q 291 1381 269 1389 q 339 1356 313 1372 q 382 1334 364 1342 q 419 1326 400 1326 q 463 1381 463 1326 l 558 1381 q 537 1245 558 1297 q 453 1193 515 1193 z "},"ȁ":{"ha":647,"x_min":39,"x_max":594,"o":"m 233 -14 q 136 15 178 -14 q 73 88 94 43 q 51 181 51 132 q 92 327 51 269 q 191 417 133 385 q 338 482 249 449 l 379 499 l 379 574 q 367 639 379 617 q 325 661 356 661 q 282 642 294 661 q 267 586 269 622 l 263 531 l 65 539 l 67 565 q 146 756 76 696 q 343 817 215 817 q 521 751 461 817 q 581 572 581 686 l 581 199 q 587 67 581 122 q 594 0 593 13 l 407 0 q 389 115 401 40 q 333 23 372 60 q 233 -14 293 -14 m 308 135 q 347 149 328 135 q 379 181 367 163 l 379 401 q 282 324 319 372 q 244 225 244 275 q 262 159 244 183 q 308 135 279 135 m 39 1163 l 207 1163 l 294 888 l 182 888 l 39 1163 m 289 1163 l 444 1163 l 521 888 l 411 888 l 289 1163 z "},"ä":{"ha":647,"x_min":51,"x_max":594,"o":"m 233 -14 q 136 15 178 -14 q 73 88 94 43 q 51 181 51 132 q 92 327 51 269 q 191 417 133 385 q 338 482 249 449 l 379 499 l 379 574 q 367 639 379 617 q 325 661 356 661 q 282 642 294 661 q 267 586 269 622 l 263 531 l 65 539 l 67 565 q 146 756 76 696 q 343 817 215 817 q 521 751 461 817 q 581 572 581 686 l 581 199 q 587 67 581 122 q 594 0 593 13 l 407 0 q 389 115 401 40 q 333 23 372 60 q 233 -14 293 -14 m 308 135 q 347 149 328 135 q 379 181 367 163 l 379 401 q 282 324 319 372 q 244 225 244 275 q 262 159 244 183 q 308 135 279 135 m 110 1125 l 283 1125 l 283 931 l 110 931 l 110 1125 m 399 1125 l 574 1125 l 574 931 l 399 931 l 399 1125 z "},"ạ":{"ha":647,"x_min":51,"x_max":594,"o":"m 233 -14 q 136 15 178 -14 q 73 88 94 43 q 51 181 51 132 q 92 327 51 269 q 191 417 133 385 q 338 482 249 449 l 379 499 l 379 574 q 367 639 379 617 q 325 661 356 661 q 282 642 294 661 q 267 586 269 622 l 263 531 l 65 539 l 67 565 q 146 756 76 696 q 343 817 215 817 q 521 751 461 817 q 581 572 581 686 l 581 199 q 587 67 581 122 q 594 0 593 13 l 407 0 q 389 115 401 40 q 333 23 372 60 q 233 -14 293 -14 m 308 135 q 347 149 328 135 q 379 181 367 163 l 379 401 q 282 324 319 372 q 244 225 244 275 q 262 159 244 183 q 308 135 279 135 m 232 -94 l 415 -94 l 415 -279 l 232 -279 l 232 -94 z "},"à":{"ha":647,"x_min":51,"x_max":594,"o":"m 233 -14 q 136 15 178 -14 q 73 88 94 43 q 51 181 51 132 q 92 327 51 269 q 191 417 133 385 q 338 482 249 449 l 379 499 l 379 574 q 367 639 379 617 q 325 661 356 661 q 282 642 294 661 q 267 586 269 622 l 263 531 l 65 539 l 67 565 q 146 756 76 696 q 343 817 215 817 q 521 751 461 817 q 581 572 581 686 l 581 199 q 587 67 581 122 q 594 0 593 13 l 407 0 q 389 115 401 40 q 333 23 372 60 q 233 -14 293 -14 m 308 135 q 347 149 328 135 q 379 181 367 163 l 379 401 q 282 324 319 372 q 244 225 244 275 q 262 159 244 183 q 308 135 279 135 m 110 1165 l 325 1165 l 408 886 l 282 886 l 110 1165 z "},"ả":{"ha":647,"x_min":51,"x_max":594,"o":"m 233 -14 q 136 15 178 -14 q 73 88 94 43 q 51 181 51 132 q 92 327 51 269 q 191 417 133 385 q 338 482 249 449 l 379 499 l 379 574 q 367 639 379 617 q 325 661 356 661 q 282 642 294 661 q 267 586 269 622 l 263 531 l 65 539 l 67 565 q 146 756 76 696 q 343 817 215 817 q 521 751 461 817 q 581 572 581 686 l 581 199 q 587 67 581 122 q 594 0 593 13 l 407 0 q 389 115 401 40 q 333 23 372 60 q 233 -14 293 -14 m 308 135 q 347 149 328 135 q 379 181 367 163 l 379 401 q 282 324 319 372 q 244 225 244 275 q 262 159 244 183 q 308 135 279 135 m 272 942 q 347 984 325 967 q 369 1029 369 1001 q 289 1079 369 1079 q 207 1069 246 1079 l 207 1160 q 342 1178 276 1178 q 461 1144 414 1178 q 508 1043 508 1111 q 465 940 508 978 q 342 874 421 901 l 272 942 z "},"ȃ":{"ha":647,"x_min":51,"x_max":594,"o":"m 233 -14 q 136 15 178 -14 q 73 88 94 43 q 51 181 51 132 q 92 327 51 269 q 191 417 133 385 q 338 482 249 449 l 379 499 l 379 574 q 367 639 379 617 q 325 661 356 661 q 282 642 294 661 q 267 586 269 622 l 263 531 l 65 539 l 67 565 q 146 756 76 696 q 343 817 215 817 q 521 751 461 817 q 581 572 581 686 l 581 199 q 587 67 581 122 q 594 0 593 13 l 407 0 q 389 115 401 40 q 333 23 372 60 q 233 -14 293 -14 m 308 135 q 347 149 328 135 q 379 181 367 163 l 379 401 q 282 324 319 372 q 244 225 244 275 q 262 159 244 183 q 308 135 279 135 m 131 906 q 186 1066 132 1008 q 342 1124 240 1124 q 499 1066 444 1124 q 553 906 553 1008 l 433 906 q 413 988 433 963 q 342 1014 392 1014 q 271 989 292 1014 q 250 906 250 964 l 131 906 z "},"ā":{"ha":647,"x_min":51,"x_max":594,"o":"m 233 -14 q 136 15 178 -14 q 73 88 94 43 q 51 181 51 132 q 92 327 51 269 q 191 417 133 385 q 338 482 249 449 l 379 499 l 379 574 q 367 639 379 617 q 325 661 356 661 q 282 642 294 661 q 267 586 269 622 l 263 531 l 65 539 l 67 565 q 146 756 76 696 q 343 817 215 817 q 521 751 461 817 q 581 572 581 686 l 581 199 q 587 67 581 122 q 594 0 593 13 l 407 0 q 389 115 401 40 q 333 23 372 60 q 233 -14 293 -14 m 308 135 q 347 149 328 135 q 379 181 367 163 l 379 401 q 282 324 319 372 q 244 225 244 275 q 262 159 244 183 q 308 135 279 135 m 163 1035 l 521 1035 l 521 931 l 163 931 l 163 1035 z "},"ą":{"ha":647,"x_min":51,"x_max":629,"o":"m 588 -249 q 629 -246 607 -249 l 607 -349 q 560 -353 588 -353 q 406 -323 467 -353 q 344 -208 344 -293 q 380 -94 344 -154 q 463 0 415 -35 l 407 0 q 389 115 401 40 q 333 23 372 60 q 233 -14 293 -14 q 136 15 178 -14 q 73 88 94 43 q 51 181 51 132 q 92 327 51 269 q 191 417 133 385 q 338 482 249 449 l 379 499 l 379 574 q 367 639 379 617 q 325 661 356 661 q 282 642 294 661 q 267 586 269 622 l 263 531 l 65 539 l 67 565 q 146 756 76 696 q 343 817 215 817 q 521 751 461 817 q 581 572 581 686 l 581 199 q 587 67 581 122 q 594 0 593 13 l 558 0 q 494 -171 494 -94 q 588 -249 494 -249 m 379 401 q 282 324 319 372 q 244 225 244 275 q 262 159 244 183 q 308 135 279 135 q 347 149 328 135 q 379 181 367 163 l 379 401 z "},"å":{"ha":647,"x_min":51,"x_max":594,"o":"m 233 -14 q 136 15 178 -14 q 73 88 94 43 q 51 181 51 132 q 92 327 51 269 q 191 417 133 385 q 338 482 249 449 l 379 499 l 379 574 q 367 639 379 617 q 325 661 356 661 q 282 642 294 661 q 267 586 269 622 l 263 531 l 65 539 l 67 565 q 146 756 76 696 q 343 817 215 817 q 521 751 461 817 q 581 572 581 686 l 581 199 q 587 67 581 122 q 594 0 593 13 l 407 0 q 389 115 401 40 q 333 23 372 60 q 233 -14 293 -14 m 308 135 q 347 149 328 135 q 379 181 367 163 l 379 401 q 282 324 319 372 q 244 225 244 275 q 262 159 244 183 q 308 135 279 135 m 340 856 q 226 896 271 856 q 181 1008 181 936 q 226 1121 181 1081 q 340 1161 271 1161 q 456 1120 410 1161 q 503 1008 503 1079 q 457 896 503 936 q 340 856 411 856 m 340 935 q 394 956 375 935 q 413 1008 413 976 q 394 1063 413 1042 q 340 1083 375 1083 q 288 1063 307 1083 q 269 1008 269 1042 q 288 956 269 976 q 340 935 307 935 z "},"ǻ":{"ha":647,"x_min":51,"x_max":594,"o":"m 233 -14 q 136 15 178 -14 q 73 88 94 43 q 51 181 51 132 q 92 327 51 269 q 191 417 133 385 q 338 482 249 449 l 379 499 l 379 574 q 367 639 379 617 q 325 661 356 661 q 282 642 294 661 q 267 586 269 622 l 263 531 l 65 539 l 67 565 q 146 756 76 696 q 343 817 215 817 q 521 751 461 817 q 581 572 581 686 l 581 199 q 587 67 581 122 q 594 0 593 13 l 407 0 q 389 115 401 40 q 333 23 372 60 q 233 -14 293 -14 m 308 135 q 347 149 328 135 q 379 181 367 163 l 379 401 q 282 324 319 372 q 244 225 244 275 q 262 159 244 183 q 308 135 279 135 m 340 856 q 226 896 271 856 q 181 1008 181 936 q 226 1121 181 1081 q 340 1161 271 1161 q 456 1120 410 1161 q 503 1008 503 1079 q 457 896 503 936 q 340 856 411 856 m 340 935 q 394 956 375 935 q 413 1008 413 976 q 394 1063 413 1042 q 340 1083 375 1083 q 288 1063 307 1083 q 269 1008 269 1042 q 288 956 269 976 q 340 935 307 935 m 360 1503 l 574 1503 l 403 1224 l 275 1224 l 360 1503 z "},"ã":{"ha":647,"x_min":51,"x_max":594,"o":"m 233 -14 q 136 15 178 -14 q 73 88 94 43 q 51 181 51 132 q 92 327 51 269 q 191 417 133 385 q 338 482 249 449 l 379 499 l 379 574 q 367 639 379 617 q 325 661 356 661 q 282 642 294 661 q 267 586 269 622 l 263 531 l 65 539 l 67 565 q 146 756 76 696 q 343 817 215 817 q 521 751 461 817 q 581 572 581 686 l 581 199 q 587 67 581 122 q 594 0 593 13 l 407 0 q 389 115 401 40 q 333 23 372 60 q 233 -14 293 -14 m 308 135 q 347 149 328 135 q 379 181 367 163 l 379 401 q 282 324 319 372 q 244 225 244 275 q 262 159 244 183 q 308 135 279 135 m 453 938 q 405 947 428 938 q 353 974 382 956 q 278 1003 306 1003 q 228 946 228 1003 l 125 946 q 246 1133 122 1133 q 291 1125 269 1133 q 339 1100 313 1117 q 382 1078 364 1086 q 419 1071 400 1071 q 463 1125 463 1071 l 558 1125 q 537 990 558 1042 q 453 938 515 938 z "},"æ":{"ha":922,"x_min":44,"x_max":871,"o":"m 671 281 l 867 281 l 867 222 q 808 47 867 108 q 636 -15 750 -15 q 519 20 572 -15 q 453 117 465 56 q 371 20 426 56 q 250 -15 315 -15 q 101 41 158 -15 q 44 189 44 97 q 107 363 44 304 q 279 446 169 422 l 368 467 l 368 567 q 355 638 368 615 q 313 660 342 660 q 266 632 281 660 q 251 539 251 604 l 47 544 q 108 746 46 675 q 296 817 171 817 q 403 792 360 817 q 465 729 447 768 q 540 792 488 768 q 657 817 592 817 q 817 763 763 817 q 871 619 871 710 q 815 488 871 532 q 663 422 760 444 l 568 401 l 568 283 q 578 173 568 210 q 624 136 588 136 q 663 160 654 136 q 671 239 671 185 l 671 281 m 568 500 l 601 507 q 673 540 651 519 q 694 600 694 561 q 680 644 694 628 q 635 661 665 661 q 583 638 599 661 q 568 569 568 615 l 568 500 m 297 129 q 349 159 329 129 q 369 247 369 189 l 368 369 q 321 350 344 363 q 253 294 274 326 q 233 217 233 261 q 251 153 233 178 q 297 129 268 129 z "},"ǽ":{"ha":922,"x_min":44,"x_max":871,"o":"m 671 281 l 867 281 l 867 222 q 808 47 867 108 q 636 -15 750 -15 q 519 20 572 -15 q 453 117 465 56 q 371 20 426 56 q 250 -15 315 -15 q 101 41 158 -15 q 44 189 44 97 q 107 363 44 304 q 279 446 169 422 l 368 467 l 368 567 q 355 638 368 615 q 313 660 342 660 q 266 632 281 660 q 251 539 251 604 l 47 544 q 108 746 46 675 q 296 817 171 817 q 403 792 360 817 q 465 729 447 768 q 540 792 488 768 q 657 817 592 817 q 817 763 763 817 q 871 619 871 710 q 815 488 871 532 q 663 422 760 444 l 568 401 l 568 283 q 578 173 568 210 q 624 136 588 136 q 663 160 654 136 q 671 239 671 185 l 671 281 m 568 500 l 601 507 q 673 540 651 519 q 694 600 694 561 q 680 644 694 628 q 635 661 665 661 q 583 638 599 661 q 568 569 568 615 l 568 500 m 297 129 q 349 159 329 129 q 369 247 369 189 l 368 369 q 321 350 344 363 q 253 294 274 326 q 233 217 233 261 q 251 153 233 178 q 297 129 268 129 m 479 1165 l 693 1165 l 522 886 l 394 886 l 479 1165 z "},"b":{"ha":685,"x_min":72,"x_max":626,"o":"m 446 -14 q 282 60 365 -14 l 282 0 l 72 0 l 72 1125 l 282 1125 l 282 743 q 449 817 363 817 q 584 744 542 817 q 626 565 626 672 l 626 251 q 581 59 626 132 q 446 -14 535 -14 m 354 126 q 403 158 389 126 q 417 243 417 189 l 417 579 q 356 685 417 685 q 282 654 322 685 l 282 151 q 354 126 317 126 z "},"ḃ":{"ha":685,"x_min":72,"x_max":626,"o":"m 446 -14 q 282 60 365 -14 l 282 0 l 72 0 l 72 1125 l 282 1125 l 282 743 q 449 817 363 817 q 584 744 542 817 q 626 565 626 672 l 626 251 q 581 59 626 132 q 446 -14 535 -14 m 354 126 q 403 158 389 126 q 417 243 417 189 l 417 579 q 356 685 417 685 q 282 654 322 685 l 282 151 q 354 126 317 126 m 78 1436 l 278 1436 l 278 1233 l 78 1233 l 78 1436 z "},"c":{"ha":633,"x_min":56,"x_max":585,"o":"m 324 -14 q 124 60 192 -14 q 56 267 56 133 l 56 538 q 124 744 56 672 q 324 817 192 817 q 519 756 453 817 q 585 572 585 694 l 585 496 l 383 496 l 383 578 q 369 651 383 631 q 325 671 356 671 q 278 646 292 671 q 265 558 265 621 l 265 242 q 280 156 265 179 q 325 132 294 132 q 370 154 357 132 q 383 225 383 176 l 383 322 l 585 322 l 585 233 q 518 49 585 113 q 324 -14 451 -14 z "},"ć":{"ha":633,"x_min":56,"x_max":585,"o":"m 324 -14 q 124 60 192 -14 q 56 267 56 133 l 56 538 q 124 744 56 672 q 324 817 192 817 q 519 756 453 817 q 585 572 585 694 l 585 496 l 383 496 l 383 578 q 369 651 383 631 q 325 671 356 671 q 278 646 292 671 q 265 558 265 621 l 265 242 q 280 156 265 179 q 325 132 294 132 q 370 154 357 132 q 383 225 383 176 l 383 322 l 585 322 l 585 233 q 518 49 585 113 q 324 -14 451 -14 m 336 1165 l 550 1165 l 379 886 l 251 886 l 336 1165 z "},"č":{"ha":633,"x_min":56,"x_max":585,"o":"m 324 -14 q 124 60 192 -14 q 56 267 56 133 l 56 538 q 124 744 56 672 q 324 817 192 817 q 519 756 453 817 q 585 572 585 694 l 585 496 l 383 496 l 383 578 q 369 651 383 631 q 325 671 356 671 q 278 646 292 671 q 265 558 265 621 l 265 242 q 280 156 265 179 q 325 132 294 132 q 370 154 357 132 q 383 225 383 176 l 383 322 l 585 322 l 585 233 q 518 49 585 113 q 324 -14 451 -14 m 94 1142 l 244 1142 l 318 988 l 392 1142 l 542 1142 l 419 888 l 215 888 l 94 1142 z "},"ç":{"ha":633,"x_min":56,"x_max":585,"o":"m 383 496 l 383 578 q 369 651 383 631 q 325 671 356 671 q 278 646 292 671 q 265 558 265 621 l 265 242 q 280 156 265 179 q 325 132 294 132 q 370 154 357 132 q 383 225 383 176 l 383 322 l 585 322 l 585 233 q 527 58 585 121 q 358 -12 469 -4 l 358 -89 q 493 -124 444 -89 q 542 -228 542 -160 q 485 -336 542 -300 q 343 -372 429 -372 q 240 -357 293 -372 l 240 -264 q 318 -275 282 -275 q 381 -263 357 -275 q 404 -225 404 -251 q 368 -173 404 -190 q 278 -151 332 -156 l 278 -11 q 112 74 168 1 q 56 267 56 146 l 56 538 q 124 744 56 672 q 324 817 192 817 q 519 756 453 817 q 585 572 585 694 l 585 496 l 383 496 z "},"ĉ":{"ha":633,"x_min":56,"x_max":585,"o":"m 324 -14 q 124 60 192 -14 q 56 267 56 133 l 56 538 q 124 744 56 672 q 324 817 192 817 q 519 756 453 817 q 585 572 585 694 l 585 496 l 383 496 l 383 578 q 369 651 383 631 q 325 671 356 671 q 278 646 292 671 q 265 558 265 621 l 265 242 q 280 156 265 179 q 325 132 294 132 q 370 154 357 132 q 383 225 383 176 l 383 322 l 585 322 l 585 233 q 518 49 585 113 q 324 -14 451 -14 m 228 1158 l 406 1158 l 538 897 l 383 897 l 317 1064 l 251 897 l 99 897 l 228 1158 z "},"ċ":{"ha":633,"x_min":56,"x_max":585,"o":"m 324 -14 q 124 60 192 -14 q 56 267 56 133 l 56 538 q 124 744 56 672 q 324 817 192 817 q 519 756 453 817 q 585 572 585 694 l 585 496 l 383 496 l 383 578 q 369 651 383 631 q 325 671 356 671 q 278 646 292 671 q 265 558 265 621 l 265 242 q 280 156 265 179 q 325 132 294 132 q 370 154 357 132 q 383 225 383 176 l 383 322 l 585 322 l 585 233 q 518 49 585 113 q 324 -14 451 -14 m 218 1114 l 418 1114 l 418 911 l 218 911 l 218 1114 z "},"d":{"ha":681,"x_min":58,"x_max":610,"o":"m 247 -14 q 58 251 58 -14 l 58 546 q 106 743 58 669 q 247 817 153 817 q 400 753 326 817 l 400 1125 l 610 1125 l 610 0 l 400 0 l 400 60 q 247 -14 326 -14 m 333 125 q 400 149 364 125 l 400 660 q 333 681 364 681 q 285 652 300 681 q 269 576 269 624 l 269 236 q 333 125 269 125 z "},"ð":{"ha":707,"x_min":74,"x_max":651,"o":"m 351 -18 q 145 60 217 -18 q 74 297 74 138 l 74 503 q 103 658 74 590 q 188 764 133 726 q 313 801 242 801 q 425 771 372 801 q 413 866 424 824 q 389 929 403 908 l 258 868 l 239 929 l 351 983 q 171 1033 313 1032 l 181 1165 q 504 1063 417 1164 l 632 1125 l 651 1063 l 543 1011 q 610 838 585 933 q 636 596 636 742 l 636 306 q 351 -18 636 -18 m 351 125 q 411 157 396 125 q 426 254 426 189 l 426 510 l 426 638 q 405 650 422 640 q 364 660 388 660 q 312 635 329 660 q 288 557 294 611 q 281 400 281 503 l 281 304 q 293 165 281 204 q 351 125 306 125 z "},"ď":{"ha":856,"x_min":58,"x_max":879,"o":"m 247 -14 q 58 251 58 -14 l 58 546 q 106 743 58 669 q 247 817 153 817 q 400 753 326 817 l 400 1125 l 610 1125 l 610 0 l 400 0 l 400 60 q 247 -14 326 -14 m 333 125 q 400 149 364 125 l 400 660 q 333 681 364 681 q 285 652 300 681 q 269 576 269 624 l 269 236 q 333 125 269 125 m 693 801 q 789 922 789 828 l 678 922 l 678 1125 l 879 1125 l 879 946 q 710 732 879 751 l 693 801 z "},"đ":{"ha":681,"x_min":56,"x_max":675,"o":"m 244 -14 q 56 251 56 -14 l 56 546 q 102 743 56 669 q 244 817 149 817 q 394 753 324 817 l 394 944 l 215 944 l 215 1035 l 394 1035 l 394 1125 l 604 1125 l 604 1035 l 675 1035 l 675 944 l 604 944 l 604 0 l 394 0 l 394 60 q 244 -14 324 -14 m 331 125 q 394 149 358 125 l 394 660 q 331 681 358 681 q 281 652 297 681 q 265 576 265 624 l 265 236 q 331 125 265 125 z "},"ḋ":{"ha":681,"x_min":58,"x_max":610,"o":"m 247 -14 q 58 251 58 -14 l 58 546 q 106 743 58 669 q 247 817 153 817 q 400 753 326 817 l 400 1125 l 610 1125 l 610 0 l 400 0 l 400 60 q 247 -14 326 -14 m 333 125 q 400 149 364 125 l 400 660 q 333 681 364 681 q 285 652 300 681 q 269 576 269 624 l 269 236 q 333 125 269 125 m 406 1436 l 606 1436 l 606 1233 l 406 1233 l 406 1436 z "},"ǳ":{"ha":1211,"x_min":58,"x_max":1175,"o":"m 247 -14 q 58 251 58 -14 l 58 546 q 106 743 58 669 q 247 817 153 817 q 400 753 326 817 l 400 1125 l 610 1125 l 610 0 l 400 0 l 400 60 q 247 -14 326 -14 m 333 125 q 400 149 364 125 l 400 660 q 333 681 364 681 q 285 652 300 681 q 269 576 269 624 l 269 236 q 333 125 269 125 m 728 136 l 954 650 l 747 650 l 747 803 l 1174 803 l 1174 678 l 946 154 l 1175 154 l 1175 0 l 728 0 l 728 136 z "},"ǆ":{"ha":1211,"x_min":58,"x_max":1175,"o":"m 247 -14 q 58 251 58 -14 l 58 546 q 106 743 58 669 q 247 817 153 817 q 400 753 326 817 l 400 1125 l 610 1125 l 610 0 l 400 0 l 400 60 q 247 -14 326 -14 m 333 125 q 400 149 364 125 l 400 660 q 333 681 364 681 q 285 652 300 681 q 269 576 269 624 l 269 236 q 333 125 269 125 m 728 136 l 954 650 l 747 650 l 747 803 l 1174 803 l 1174 678 l 946 154 l 1175 154 l 1175 0 l 728 0 l 728 136 m 724 1142 l 874 1142 l 947 988 l 1021 1142 l 1171 1142 l 1049 888 l 844 888 l 724 1142 z "},"e":{"ha":638,"x_min":56,"x_max":585,"o":"m 325 -14 q 124 58 193 -14 q 56 267 56 131 l 56 536 q 125 744 56 672 q 325 817 194 817 q 522 744 460 817 q 585 531 585 672 l 585 390 l 264 390 l 264 256 q 277 166 264 196 q 325 136 290 136 q 373 158 357 136 q 389 226 389 179 l 389 304 l 583 304 l 583 235 q 517 50 583 114 q 325 -14 450 -14 m 389 490 l 389 568 q 374 644 389 621 q 325 667 358 667 q 278 642 293 667 q 264 553 264 617 l 264 490 l 389 490 z "},"é":{"ha":638,"x_min":56,"x_max":585,"o":"m 325 -14 q 124 58 193 -14 q 56 267 56 131 l 56 536 q 125 744 56 672 q 325 817 194 817 q 522 744 460 817 q 585 531 585 672 l 585 390 l 264 390 l 264 256 q 277 166 264 196 q 325 136 290 136 q 373 158 357 136 q 389 226 389 179 l 389 304 l 583 304 l 583 235 q 517 50 583 114 q 325 -14 450 -14 m 389 490 l 389 568 q 374 644 389 621 q 325 667 358 667 q 278 642 293 667 q 264 553 264 617 l 264 490 l 389 490 m 340 1165 l 554 1165 l 383 886 l 256 886 l 340 1165 z "},"ĕ":{"ha":638,"x_min":56,"x_max":585,"o":"m 325 -14 q 124 58 193 -14 q 56 267 56 131 l 56 536 q 125 744 56 672 q 325 817 194 817 q 522 744 460 817 q 585 531 585 672 l 585 390 l 264 390 l 264 256 q 277 166 264 196 q 325 136 290 136 q 373 158 357 136 q 389 226 389 179 l 389 304 l 583 304 l 583 235 q 517 50 583 114 q 325 -14 450 -14 m 389 490 l 389 568 q 374 644 389 621 q 325 667 358 667 q 278 642 293 667 q 264 553 264 617 l 264 490 l 389 490 m 322 892 q 167 947 224 892 q 111 1103 111 1003 l 231 1103 q 251 1026 231 1050 q 322 1001 272 1001 q 392 1026 371 1001 q 414 1103 414 1051 l 532 1103 q 476 947 532 1003 q 322 892 421 892 z "},"ě":{"ha":638,"x_min":56,"x_max":585,"o":"m 325 -14 q 124 58 193 -14 q 56 267 56 131 l 56 536 q 125 744 56 672 q 325 817 194 817 q 522 744 460 817 q 585 531 585 672 l 585 390 l 264 390 l 264 256 q 277 166 264 196 q 325 136 290 136 q 373 158 357 136 q 389 226 389 179 l 389 304 l 583 304 l 583 235 q 517 50 583 114 q 325 -14 450 -14 m 389 490 l 389 568 q 374 644 389 621 q 325 667 358 667 q 278 642 293 667 q 264 553 264 617 l 264 490 l 389 490 m 99 1142 l 249 1142 l 322 988 l 396 1142 l 546 1142 l 424 888 l 219 888 l 99 1142 z "},"ê":{"ha":638,"x_min":56,"x_max":585,"o":"m 325 -14 q 124 58 193 -14 q 56 267 56 131 l 56 536 q 125 744 56 672 q 325 817 194 817 q 522 744 460 817 q 585 531 585 672 l 585 390 l 264 390 l 264 256 q 277 166 264 196 q 325 136 290 136 q 373 158 357 136 q 389 226 389 179 l 389 304 l 583 304 l 583 235 q 517 50 583 114 q 325 -14 450 -14 m 389 490 l 389 568 q 374 644 389 621 q 325 667 358 667 q 278 642 293 667 q 264 553 264 617 l 264 490 l 389 490 m 232 1158 l 410 1158 l 542 897 l 388 897 l 321 1064 l 256 897 l 103 897 l 232 1158 z "},"ế":{"ha":638,"x_min":56,"x_max":742,"o":"m 325 -14 q 124 58 193 -14 q 56 267 56 131 l 56 536 q 125 744 56 672 q 325 817 194 817 q 522 744 460 817 q 585 531 585 672 l 585 390 l 264 390 l 264 256 q 277 166 264 196 q 325 136 290 136 q 373 158 357 136 q 389 226 389 179 l 389 304 l 583 304 l 583 235 q 517 50 583 114 q 325 -14 450 -14 m 389 490 l 389 568 q 374 644 389 621 q 325 667 358 667 q 278 642 293 667 q 264 553 264 617 l 264 490 l 389 490 m 581 1225 l 742 1225 l 621 1057 l 507 1057 l 581 1225 m 232 1125 l 410 1125 l 542 897 l 392 897 l 321 1036 l 251 897 l 103 897 l 232 1125 z "},"ệ":{"ha":638,"x_min":56,"x_max":585,"o":"m 325 -14 q 124 58 193 -14 q 56 267 56 131 l 56 536 q 125 744 56 672 q 325 817 194 817 q 522 744 460 817 q 585 531 585 672 l 585 390 l 264 390 l 264 256 q 277 166 264 196 q 325 136 290 136 q 373 158 357 136 q 389 226 389 179 l 389 304 l 583 304 l 583 235 q 517 50 583 114 q 325 -14 450 -14 m 389 490 l 389 568 q 374 644 389 621 q 325 667 358 667 q 278 642 293 667 q 264 553 264 617 l 264 490 l 389 490 m 228 -94 l 411 -94 l 411 -279 l 228 -279 l 228 -94 m 232 1125 l 410 1125 l 542 897 l 392 897 l 321 1036 l 251 897 l 103 897 l 232 1125 z "},"ề":{"ha":638,"x_min":56,"x_max":661,"o":"m 325 -14 q 124 58 193 -14 q 56 267 56 131 l 56 536 q 125 744 56 672 q 325 817 194 817 q 522 744 460 817 q 585 531 585 672 l 585 390 l 264 390 l 264 256 q 277 166 264 196 q 325 136 290 136 q 373 158 357 136 q 389 226 389 179 l 389 304 l 583 304 l 583 235 q 517 50 583 114 q 325 -14 450 -14 m 389 490 l 389 568 q 374 644 389 621 q 325 667 358 667 q 278 642 293 667 q 264 553 264 617 l 264 490 l 389 490 m 426 1225 l 588 1225 l 661 1057 l 547 1057 l 426 1225 m 232 1125 l 410 1125 l 542 897 l 392 897 l 321 1036 l 251 897 l 103 897 l 232 1125 z "},"ể":{"ha":638,"x_min":56,"x_max":688,"o":"m 325 -14 q 124 58 193 -14 q 56 267 56 131 l 56 536 q 125 744 56 672 q 325 817 194 817 q 522 744 460 817 q 585 531 585 672 l 585 390 l 264 390 l 264 256 q 277 166 264 196 q 325 136 290 136 q 373 158 357 136 q 389 226 389 179 l 389 304 l 583 304 l 583 235 q 517 50 583 114 q 325 -14 450 -14 m 389 490 l 389 568 q 374 644 389 621 q 325 667 358 667 q 278 642 293 667 q 264 553 264 617 l 264 490 l 389 490 m 499 1088 q 540 1127 526 1108 q 553 1169 553 1146 q 535 1210 553 1196 q 489 1225 518 1225 q 419 1213 454 1225 l 419 1303 q 531 1322 469 1322 q 644 1288 601 1322 q 688 1189 688 1254 q 653 1091 688 1129 q 560 1022 619 1053 l 499 1088 m 232 1125 l 410 1125 l 542 897 l 392 897 l 321 1036 l 251 897 l 103 897 l 232 1125 z "},"ễ":{"ha":638,"x_min":56,"x_max":585,"o":"m 325 -14 q 124 58 193 -14 q 56 267 56 131 l 56 536 q 125 744 56 672 q 325 817 194 817 q 522 744 460 817 q 585 531 585 672 l 585 390 l 264 390 l 264 256 q 277 166 264 196 q 325 136 290 136 q 373 158 357 136 q 389 226 389 179 l 389 304 l 583 304 l 583 235 q 517 50 583 114 q 325 -14 450 -14 m 389 490 l 389 568 q 374 644 389 621 q 325 667 358 667 q 278 642 293 667 q 264 553 264 617 l 264 490 l 389 490 m 232 1125 l 410 1125 l 542 897 l 392 897 l 321 1036 l 251 897 l 103 897 l 232 1125 m 433 1193 q 385 1202 408 1193 q 333 1229 363 1211 q 258 1258 286 1258 q 208 1201 208 1258 l 106 1201 q 226 1389 103 1389 q 272 1381 250 1389 q 319 1356 293 1372 q 363 1334 344 1342 q 400 1326 381 1326 q 443 1381 443 1326 l 539 1381 q 517 1245 539 1297 q 433 1193 496 1193 z "},"ȅ":{"ha":638,"x_min":19,"x_max":585,"o":"m 325 -14 q 124 58 193 -14 q 56 267 56 131 l 56 536 q 125 744 56 672 q 325 817 194 817 q 522 744 460 817 q 585 531 585 672 l 585 390 l 264 390 l 264 256 q 277 166 264 196 q 325 136 290 136 q 373 158 357 136 q 389 226 389 179 l 389 304 l 583 304 l 583 235 q 517 50 583 114 q 325 -14 450 -14 m 389 490 l 389 568 q 374 644 389 621 q 325 667 358 667 q 278 642 293 667 q 264 553 264 617 l 264 490 l 389 490 m 19 1163 l 188 1163 l 275 888 l 163 888 l 19 1163 m 269 1163 l 425 1163 l 501 888 l 392 888 l 269 1163 z "},"ë":{"ha":638,"x_min":56,"x_max":585,"o":"m 325 -14 q 124 58 193 -14 q 56 267 56 131 l 56 536 q 125 744 56 672 q 325 817 194 817 q 522 744 460 817 q 585 531 585 672 l 585 390 l 264 390 l 264 256 q 277 166 264 196 q 325 136 290 136 q 373 158 357 136 q 389 226 389 179 l 389 304 l 583 304 l 583 235 q 517 50 583 114 q 325 -14 450 -14 m 389 490 l 389 568 q 374 644 389 621 q 325 667 358 667 q 278 642 293 667 q 264 553 264 617 l 264 490 l 389 490 m 90 1125 l 264 1125 l 264 931 l 90 931 l 90 1125 m 379 1125 l 554 1125 l 554 931 l 379 931 l 379 1125 z "},"ė":{"ha":638,"x_min":56,"x_max":585,"o":"m 325 -14 q 124 58 193 -14 q 56 267 56 131 l 56 536 q 125 744 56 672 q 325 817 194 817 q 522 744 460 817 q 585 531 585 672 l 585 390 l 264 390 l 264 256 q 277 166 264 196 q 325 136 290 136 q 373 158 357 136 q 389 226 389 179 l 389 304 l 583 304 l 583 235 q 517 50 583 114 q 325 -14 450 -14 m 389 490 l 389 568 q 374 644 389 621 q 325 667 358 667 q 278 642 293 667 q 264 553 264 617 l 264 490 l 389 490 m 222 1114 l 422 1114 l 422 911 l 222 911 l 222 1114 z "},"ẹ":{"ha":638,"x_min":56,"x_max":585,"o":"m 325 -14 q 124 58 193 -14 q 56 267 56 131 l 56 536 q 125 744 56 672 q 325 817 194 817 q 522 744 460 817 q 585 531 585 672 l 585 390 l 264 390 l 264 256 q 277 166 264 196 q 325 136 290 136 q 373 158 357 136 q 389 226 389 179 l 389 304 l 583 304 l 583 235 q 517 50 583 114 q 325 -14 450 -14 m 389 490 l 389 568 q 374 644 389 621 q 325 667 358 667 q 278 642 293 667 q 264 553 264 617 l 264 490 l 389 490 m 228 -94 l 411 -94 l 411 -279 l 228 -279 l 228 -94 z "},"è":{"ha":638,"x_min":56,"x_max":585,"o":"m 325 -14 q 124 58 193 -14 q 56 267 56 131 l 56 536 q 125 744 56 672 q 325 817 194 817 q 522 744 460 817 q 585 531 585 672 l 585 390 l 264 390 l 264 256 q 277 166 264 196 q 325 136 290 136 q 373 158 357 136 q 389 226 389 179 l 389 304 l 583 304 l 583 235 q 517 50 583 114 q 325 -14 450 -14 m 389 490 l 389 568 q 374 644 389 621 q 325 667 358 667 q 278 642 293 667 q 264 553 264 617 l 264 490 l 389 490 m 90 1165 l 306 1165 l 389 886 l 263 886 l 90 1165 z "},"ẻ":{"ha":638,"x_min":56,"x_max":585,"o":"m 325 -14 q 124 58 193 -14 q 56 267 56 131 l 56 536 q 125 744 56 672 q 325 817 194 817 q 522 744 460 817 q 585 531 585 672 l 585 390 l 264 390 l 264 256 q 277 166 264 196 q 325 136 290 136 q 373 158 357 136 q 389 226 389 179 l 389 304 l 583 304 l 583 235 q 517 50 583 114 q 325 -14 450 -14 m 389 490 l 389 568 q 374 644 389 621 q 325 667 358 667 q 278 642 293 667 q 264 553 264 617 l 264 490 l 389 490 m 253 942 q 328 984 306 967 q 350 1029 350 1001 q 269 1079 350 1079 q 188 1069 226 1079 l 188 1160 q 322 1178 257 1178 q 442 1144 394 1178 q 489 1043 489 1111 q 445 940 489 978 q 322 874 401 901 l 253 942 z "},"ȇ":{"ha":638,"x_min":56,"x_max":585,"o":"m 325 -14 q 124 58 193 -14 q 56 267 56 131 l 56 536 q 125 744 56 672 q 325 817 194 817 q 522 744 460 817 q 585 531 585 672 l 585 390 l 264 390 l 264 256 q 277 166 264 196 q 325 136 290 136 q 373 158 357 136 q 389 226 389 179 l 389 304 l 583 304 l 583 235 q 517 50 583 114 q 325 -14 450 -14 m 389 490 l 389 568 q 374 644 389 621 q 325 667 358 667 q 278 642 293 667 q 264 553 264 617 l 264 490 l 389 490 m 111 906 q 167 1066 113 1008 q 322 1124 221 1124 q 479 1066 425 1124 q 533 906 533 1008 l 414 906 q 393 988 414 963 q 322 1014 372 1014 q 251 989 272 1014 q 231 906 231 964 l 111 906 z "},"ē":{"ha":638,"x_min":56,"x_max":585,"o":"m 325 -14 q 124 58 193 -14 q 56 267 56 131 l 56 536 q 125 744 56 672 q 325 817 194 817 q 522 744 460 817 q 585 531 585 672 l 585 390 l 264 390 l 264 256 q 277 166 264 196 q 325 136 290 136 q 373 158 357 136 q 389 226 389 179 l 389 304 l 583 304 l 583 235 q 517 50 583 114 q 325 -14 450 -14 m 389 490 l 389 568 q 374 644 389 621 q 325 667 358 667 q 278 642 293 667 q 264 553 264 617 l 264 490 l 389 490 m 143 1035 l 501 1035 l 501 931 l 143 931 l 143 1035 z "},"ę":{"ha":638,"x_min":56,"x_max":585,"o":"m 264 390 l 264 256 q 277 166 264 196 q 325 136 290 136 q 373 158 357 136 q 389 226 389 179 l 389 304 l 583 304 l 583 235 q 538 74 583 135 q 404 -7 492 13 q 353 -157 353 -86 q 446 -235 353 -235 q 488 -232 465 -235 l 465 -335 q 418 -339 447 -339 q 264 -309 325 -339 q 203 -194 203 -279 q 228 -99 203 -149 q 290 -12 253 -50 q 115 69 175 -3 q 56 267 56 140 l 56 536 q 125 744 56 672 q 325 817 194 817 q 522 744 460 817 q 585 531 585 672 l 585 390 l 264 390 m 264 490 l 389 490 l 389 568 q 374 644 389 621 q 325 667 358 667 q 278 642 293 667 q 264 553 264 617 l 264 490 z "},"ẽ":{"ha":638,"x_min":56,"x_max":585,"o":"m 325 -14 q 124 58 193 -14 q 56 267 56 131 l 56 536 q 125 744 56 672 q 325 817 194 817 q 522 744 460 817 q 585 531 585 672 l 585 390 l 264 390 l 264 256 q 277 166 264 196 q 325 136 290 136 q 373 158 357 136 q 389 226 389 179 l 389 304 l 583 304 l 583 235 q 517 50 583 114 q 325 -14 450 -14 m 389 490 l 389 568 q 374 644 389 621 q 325 667 358 667 q 278 642 293 667 q 264 553 264 617 l 264 490 l 389 490 m 433 938 q 385 947 408 938 q 333 974 363 956 q 258 1003 286 1003 q 208 946 208 1003 l 106 946 q 226 1133 103 1133 q 272 1125 250 1133 q 319 1100 293 1117 q 363 1078 344 1086 q 400 1071 381 1071 q 443 1125 443 1071 l 539 1125 q 517 990 539 1042 q 433 938 496 938 z "},"ə":{"ha":638,"x_min":54,"x_max":582,"o":"m 313 -15 q 117 56 179 -15 q 54 269 54 128 l 54 410 l 375 410 l 375 549 q 362 637 375 607 q 314 667 349 667 q 266 645 282 667 q 250 576 250 624 l 250 500 l 54 500 l 54 568 q 121 753 54 689 q 313 817 188 817 q 513 744 444 817 q 582 538 582 672 l 582 264 q 513 56 582 128 q 313 -15 444 -15 m 314 135 q 360 160 346 135 q 375 247 375 185 l 375 310 l 250 310 l 250 232 q 265 157 250 179 q 314 135 281 135 z "},"f":{"ha":435,"x_min":24,"x_max":421,"o":"m 104 660 l 24 660 l 24 803 l 104 803 l 104 858 q 119 989 104 939 q 180 1067 135 1039 q 314 1094 225 1094 q 421 1088 368 1094 l 421 932 q 371 939 386 939 q 314 868 314 939 l 314 803 l 421 803 l 421 660 l 314 660 l 314 0 l 104 0 l 104 660 z "},"ḟ":{"ha":435,"x_min":24,"x_max":421,"o":"m 104 660 l 24 660 l 24 803 l 104 803 l 104 858 q 119 989 104 939 q 180 1067 135 1039 q 314 1094 225 1094 q 421 1088 368 1094 l 421 932 q 371 939 386 939 q 314 868 314 939 l 314 803 l 421 803 l 421 660 l 314 660 l 314 0 l 104 0 l 104 660 m 172 1399 l 372 1399 l 372 1196 l 172 1196 l 172 1399 z "},"g":{"ha":676,"x_min":33,"x_max":696,"o":"m 363 -243 q 128 -214 224 -243 q 33 -94 33 -185 q 149 69 33 -10 q 73 114 96 89 q 50 172 50 139 q 75 244 50 211 q 149 315 100 276 q 83 396 106 347 q 60 522 60 444 q 130 743 60 669 q 329 817 200 817 q 436 797 390 817 q 508 742 482 778 q 558 790 529 765 q 618 831 588 815 l 646 844 l 696 739 q 628 713 672 732 q 560 678 583 693 q 586 613 575 654 q 597 522 597 571 q 535 321 597 393 q 342 249 472 249 q 224 269 276 249 q 197 211 194 232 q 269 179 199 188 q 435 158 299 174 q 594 98 547 144 q 642 -36 642 51 q 577 -190 642 -136 q 363 -243 513 -243 m 332 376 q 390 411 376 376 q 403 531 403 446 q 390 654 403 619 q 333 689 378 689 q 275 653 288 689 q 263 531 263 617 q 276 413 263 450 q 332 376 290 376 m 361 -108 q 447 -95 419 -108 q 476 -51 475 -82 q 460 1 481 -15 q 386 25 440 18 l 265 39 q 236 -3 247 17 q 225 -46 225 -24 q 255 -94 225 -79 q 361 -108 285 -108 z "},"ǵ":{"ha":676,"x_min":33,"x_max":696,"o":"m 363 -243 q 128 -214 224 -243 q 33 -94 33 -185 q 149 69 33 -10 q 73 114 96 89 q 50 172 50 139 q 75 244 50 211 q 149 315 100 276 q 83 396 106 347 q 60 522 60 444 q 130 743 60 669 q 329 817 200 817 q 436 797 390 817 q 508 742 482 778 q 558 790 529 765 q 618 831 588 815 l 646 844 l 696 739 q 628 713 672 732 q 560 678 583 693 q 586 613 575 654 q 597 522 597 571 q 535 321 597 393 q 342 249 472 249 q 224 269 276 249 q 197 211 194 232 q 269 179 199 188 q 435 158 299 174 q 594 98 547 144 q 642 -36 642 51 q 577 -190 642 -136 q 363 -243 513 -243 m 332 376 q 390 411 376 376 q 403 531 403 446 q 390 654 403 619 q 333 689 378 689 q 275 653 288 689 q 263 531 263 617 q 276 413 263 450 q 332 376 290 376 m 361 -108 q 447 -95 419 -108 q 476 -51 475 -82 q 460 1 481 -15 q 386 25 440 18 l 265 39 q 236 -3 247 17 q 225 -46 225 -24 q 255 -94 225 -79 q 361 -108 285 -108 m 357 1165 l 571 1165 l 400 886 l 272 886 l 357 1165 z "},"ğ":{"ha":676,"x_min":33,"x_max":696,"o":"m 363 -243 q 128 -214 224 -243 q 33 -94 33 -185 q 149 69 33 -10 q 73 114 96 89 q 50 172 50 139 q 75 244 50 211 q 149 315 100 276 q 83 396 106 347 q 60 522 60 444 q 130 743 60 669 q 329 817 200 817 q 436 797 390 817 q 508 742 482 778 q 558 790 529 765 q 618 831 588 815 l 646 844 l 696 739 q 628 713 672 732 q 560 678 583 693 q 586 613 575 654 q 597 522 597 571 q 535 321 597 393 q 342 249 472 249 q 224 269 276 249 q 197 211 194 232 q 269 179 199 188 q 435 158 299 174 q 594 98 547 144 q 642 -36 642 51 q 577 -190 642 -136 q 363 -243 513 -243 m 332 376 q 390 411 376 376 q 403 531 403 446 q 390 654 403 619 q 333 689 378 689 q 275 653 288 689 q 263 531 263 617 q 276 413 263 450 q 332 376 290 376 m 361 -108 q 447 -95 419 -108 q 476 -51 475 -82 q 460 1 481 -15 q 386 25 440 18 l 265 39 q 236 -3 247 17 q 225 -46 225 -24 q 255 -94 225 -79 q 361 -108 285 -108 m 339 892 q 184 947 240 892 q 128 1103 128 1003 l 247 1103 q 268 1026 247 1050 q 339 1001 289 1001 q 409 1026 388 1001 q 431 1103 431 1051 l 549 1103 q 493 947 549 1003 q 339 892 438 892 z "},"ǧ":{"ha":676,"x_min":33,"x_max":696,"o":"m 363 -243 q 128 -214 224 -243 q 33 -94 33 -185 q 149 69 33 -10 q 73 114 96 89 q 50 172 50 139 q 75 244 50 211 q 149 315 100 276 q 83 396 106 347 q 60 522 60 444 q 130 743 60 669 q 329 817 200 817 q 436 797 390 817 q 508 742 482 778 q 558 790 529 765 q 618 831 588 815 l 646 844 l 696 739 q 628 713 672 732 q 560 678 583 693 q 586 613 575 654 q 597 522 597 571 q 535 321 597 393 q 342 249 472 249 q 224 269 276 249 q 197 211 194 232 q 269 179 199 188 q 435 158 299 174 q 594 98 547 144 q 642 -36 642 51 q 577 -190 642 -136 q 363 -243 513 -243 m 332 376 q 390 411 376 376 q 403 531 403 446 q 390 654 403 619 q 333 689 378 689 q 275 653 288 689 q 263 531 263 617 q 276 413 263 450 q 332 376 290 376 m 361 -108 q 447 -95 419 -108 q 476 -51 475 -82 q 460 1 481 -15 q 386 25 440 18 l 265 39 q 236 -3 247 17 q 225 -46 225 -24 q 255 -94 225 -79 q 361 -108 285 -108 m 115 1142 l 265 1142 l 339 988 l 413 1142 l 563 1142 l 440 888 l 236 888 l 115 1142 z "},"ĝ":{"ha":676,"x_min":33,"x_max":696,"o":"m 363 -243 q 128 -214 224 -243 q 33 -94 33 -185 q 149 69 33 -10 q 73 114 96 89 q 50 172 50 139 q 75 244 50 211 q 149 315 100 276 q 83 396 106 347 q 60 522 60 444 q 130 743 60 669 q 329 817 200 817 q 436 797 390 817 q 508 742 482 778 q 558 790 529 765 q 618 831 588 815 l 646 844 l 696 739 q 628 713 672 732 q 560 678 583 693 q 586 613 575 654 q 597 522 597 571 q 535 321 597 393 q 342 249 472 249 q 224 269 276 249 q 197 211 194 232 q 269 179 199 188 q 435 158 299 174 q 594 98 547 144 q 642 -36 642 51 q 577 -190 642 -136 q 363 -243 513 -243 m 332 376 q 390 411 376 376 q 403 531 403 446 q 390 654 403 619 q 333 689 378 689 q 275 653 288 689 q 263 531 263 617 q 276 413 263 450 q 332 376 290 376 m 361 -108 q 447 -95 419 -108 q 476 -51 475 -82 q 460 1 481 -15 q 386 25 440 18 l 265 39 q 236 -3 247 17 q 225 -46 225 -24 q 255 -94 225 -79 q 361 -108 285 -108 m 249 1158 l 426 1158 l 558 897 l 404 897 l 338 1064 l 272 897 l 119 897 l 249 1158 z "},"ģ":{"ha":676,"x_min":33,"x_max":696,"o":"m 363 -243 q 128 -214 224 -243 q 33 -94 33 -185 q 149 69 33 -10 q 73 114 96 89 q 50 172 50 139 q 75 244 50 211 q 149 315 100 276 q 83 396 106 347 q 60 522 60 444 q 130 743 60 669 q 329 817 200 817 q 436 797 390 817 q 508 742 482 778 q 558 790 529 765 q 618 831 588 815 l 646 844 l 696 739 q 628 713 672 732 q 560 678 583 693 q 586 613 575 654 q 597 522 597 571 q 535 321 597 393 q 342 249 472 249 q 224 269 276 249 q 197 211 194 232 q 269 179 199 188 q 435 158 299 174 q 594 98 547 144 q 642 -36 642 51 q 577 -190 642 -136 q 363 -243 513 -243 m 332 376 q 390 411 376 376 q 403 531 403 446 q 390 654 403 619 q 333 689 378 689 q 275 653 288 689 q 263 531 263 617 q 276 413 263 450 q 332 376 290 376 m 361 -108 q 447 -95 419 -108 q 476 -51 475 -82 q 460 1 481 -15 q 386 25 440 18 l 265 39 q 236 -3 247 17 q 225 -46 225 -24 q 255 -94 225 -79 q 361 -108 285 -108 m 424 1199 q 356 1167 381 1192 q 331 1092 331 1143 l 439 1092 l 439 893 l 239 893 l 239 1067 q 278 1219 240 1167 q 403 1274 317 1272 l 424 1199 z "},"ġ":{"ha":676,"x_min":33,"x_max":696,"o":"m 363 -243 q 128 -214 224 -243 q 33 -94 33 -185 q 149 69 33 -10 q 73 114 96 89 q 50 172 50 139 q 75 244 50 211 q 149 315 100 276 q 83 396 106 347 q 60 522 60 444 q 130 743 60 669 q 329 817 200 817 q 436 797 390 817 q 508 742 482 778 q 558 790 529 765 q 618 831 588 815 l 646 844 l 696 739 q 628 713 672 732 q 560 678 583 693 q 586 613 575 654 q 597 522 597 571 q 535 321 597 393 q 342 249 472 249 q 224 269 276 249 q 197 211 194 232 q 269 179 199 188 q 435 158 299 174 q 594 98 547 144 q 642 -36 642 51 q 577 -190 642 -136 q 363 -243 513 -243 m 332 376 q 390 411 376 376 q 403 531 403 446 q 390 654 403 619 q 333 689 378 689 q 275 653 288 689 q 263 531 263 617 q 276 413 263 450 q 332 376 290 376 m 361 -108 q 447 -95 419 -108 q 476 -51 475 -82 q 460 1 481 -15 q 386 25 440 18 l 265 39 q 236 -3 247 17 q 225 -46 225 -24 q 255 -94 225 -79 q 361 -108 285 -108 m 239 1114 l 439 1114 l 439 911 l 239 911 l 239 1114 z "},"h":{"ha":689,"x_min":74,"x_max":621,"o":"m 74 1125 l 283 1125 l 283 729 q 481 817 371 817 q 585 765 549 817 q 621 633 621 714 l 621 0 l 413 0 l 413 600 q 401 649 413 633 q 364 665 390 665 q 283 631 326 663 l 283 0 l 74 0 l 74 1125 z "},"ħ":{"ha":689,"x_min":4,"x_max":622,"o":"m 74 938 l 4 938 l 4 1038 l 74 1038 l 74 1125 l 283 1125 l 283 1038 l 449 1038 l 449 938 l 283 938 l 283 729 q 481 817 371 817 q 586 765 550 817 q 622 633 622 714 l 622 0 l 414 0 l 414 600 q 403 649 414 633 q 364 665 392 665 q 283 631 329 663 l 283 0 l 74 0 l 74 938 z "},"ĥ":{"ha":689,"x_min":-40,"x_max":621,"o":"m 74 1125 l 283 1125 l 283 729 q 481 817 371 817 q 585 765 549 817 q 621 633 621 714 l 621 0 l 413 0 l 413 600 q 401 649 413 633 q 364 665 390 665 q 283 631 326 663 l 283 0 l 74 0 l 74 1125 m 89 1481 l 267 1481 l 399 1219 l 244 1219 l 178 1386 l 113 1219 l -40 1219 l 89 1481 z "},"i":{"ha":358,"x_min":74,"x_max":285,"o":"m 74 1092 l 285 1092 l 285 935 l 74 935 l 74 1092 m 75 803 l 285 803 l 285 0 l 75 0 l 75 803 z "},"ı":{"ha":372,"x_min":83,"x_max":293,"o":"m 83 803 l 293 803 l 293 0 l 83 0 l 83 803 z "},"í":{"ha":372,"x_min":83,"x_max":421,"o":"m 83 803 l 293 803 l 293 0 l 83 0 l 83 803 m 207 1165 l 421 1165 l 250 886 l 122 886 l 207 1165 z "},"ĭ":{"ha":372,"x_min":-22,"x_max":399,"o":"m 83 803 l 293 803 l 293 0 l 83 0 l 83 803 m 189 892 q 34 947 90 892 q -22 1103 -22 1003 l 97 1103 q 118 1026 97 1050 q 189 1001 139 1001 q 259 1026 238 1001 q 281 1103 281 1051 l 399 1103 q 343 947 399 1003 q 189 892 288 892 z "},"î":{"ha":372,"x_min":-31,"x_max":408,"o":"m 83 803 l 293 803 l 293 0 l 83 0 l 83 803 m 99 1158 l 276 1158 l 408 897 l 254 897 l 188 1064 l 122 897 l -31 897 l 99 1158 z "},"ȉ":{"ha":372,"x_min":-114,"x_max":368,"o":"m 83 803 l 293 803 l 293 0 l 83 0 l 83 803 m -114 1163 l 54 1163 l 142 888 l 29 888 l -114 1163 m 136 1163 l 292 1163 l 368 888 l 258 888 l 136 1163 z "},"ï":{"ha":372,"x_min":-43,"x_max":421,"o":"m 83 803 l 293 803 l 293 0 l 83 0 l 83 803 m -43 1125 l 131 1125 l 131 931 l -43 931 l -43 1125 m 246 1125 l 421 1125 l 421 931 l 246 931 l 246 1125 z "},"ị":{"ha":358,"x_min":74,"x_max":285,"o":"m 74 1092 l 285 1092 l 285 935 l 74 935 l 74 1092 m 75 803 l 285 803 l 285 0 l 75 0 l 75 803 m 88 -94 l 271 -94 l 271 -279 l 88 -279 l 88 -94 z "},"ì":{"ha":372,"x_min":-43,"x_max":293,"o":"m 83 803 l 293 803 l 293 0 l 83 0 l 83 803 m -43 1165 l 172 1165 l 256 886 l 129 886 l -43 1165 z "},"ỉ":{"ha":372,"x_min":54,"x_max":356,"o":"m 83 803 l 293 803 l 293 0 l 83 0 l 83 803 m 119 942 q 194 984 172 967 q 217 1029 217 1001 q 136 1079 217 1079 q 54 1069 93 1079 l 54 1160 q 189 1178 124 1178 q 308 1144 261 1178 q 356 1043 356 1111 q 312 940 356 978 q 189 874 268 901 l 119 942 z "},"ȋ":{"ha":372,"x_min":-22,"x_max":400,"o":"m 83 803 l 293 803 l 293 0 l 83 0 l 83 803 m -22 906 q 33 1066 -21 1008 q 189 1124 88 1124 q 346 1066 292 1124 q 400 906 400 1008 l 281 906 q 260 988 281 963 q 189 1014 239 1014 q 118 989 139 1014 q 97 906 97 964 l -22 906 z "},"ĳ":{"ha":729,"x_min":74,"x_max":660,"o":"m 74 1092 l 285 1092 l 285 935 l 74 935 l 74 1092 m 75 803 l 285 803 l 285 0 l 75 0 l 75 803 m 449 1092 l 660 1092 l 660 935 l 449 935 l 449 1092 m 454 -240 q 343 -224 393 -240 l 343 -74 q 383 -78 381 -78 q 449 -4 449 -78 l 449 803 l 658 803 l 658 -29 q 606 -183 658 -126 q 454 -240 553 -240 z "},"ī":{"ha":372,"x_min":10,"x_max":368,"o":"m 83 803 l 293 803 l 293 0 l 83 0 l 83 803 m 10 1035 l 368 1035 l 368 931 l 10 931 l 10 1035 z "},"į":{"ha":358,"x_min":15,"x_max":300,"o":"m 74 1092 l 285 1092 l 285 935 l 74 935 l 74 1092 m 75 803 l 285 803 l 285 0 l 75 0 l 75 803 m 231 -353 q 76 -323 138 -353 q 15 -208 15 -293 q 51 -94 15 -154 q 133 0 86 -35 l 229 0 q 165 -171 165 -94 q 258 -249 165 -249 q 300 -246 278 -249 l 278 -349 q 231 -353 258 -353 z "},"ĩ":{"ha":372,"x_min":-28,"x_max":406,"o":"m 83 803 l 293 803 l 293 0 l 83 0 l 83 803 m 300 938 q 252 947 275 938 q 200 974 229 956 q 125 1003 153 1003 q 75 946 75 1003 l -28 946 q 93 1133 -31 1133 q 138 1125 117 1133 q 186 1100 160 1117 q 229 1078 211 1086 q 267 1071 247 1071 q 310 1125 310 1071 l 406 1125 q 384 990 406 1042 q 300 938 363 938 z "},"j":{"ha":371,"x_min":-15,"x_max":301,"o":"m 90 1092 l 301 1092 l 301 935 l 90 935 l 90 1092 m 96 -240 q -15 -224 35 -240 l -15 -74 q 25 -78 22 -78 q 90 -4 90 -78 l 90 803 l 300 803 l 300 -29 q 247 -183 300 -126 q 96 -240 194 -240 z "},"ȷ":{"ha":371,"x_min":-15,"x_max":300,"o":"m 96 -240 q -15 -224 35 -240 l -15 -74 q 25 -78 22 -78 q 90 -4 90 -78 l 90 803 l 300 803 l 300 -29 q 247 -183 300 -126 q 96 -240 194 -240 z "},"ĵ":{"ha":371,"x_min":-24,"x_max":415,"o":"m 96 -240 q -15 -224 35 -240 l -15 -74 q 25 -78 22 -78 q 90 -4 90 -78 l 90 803 l 300 803 l 300 -29 q 247 -183 300 -126 q 96 -240 194 -240 m 106 1158 l 283 1158 l 415 897 l 261 897 l 194 1064 l 129 897 l -24 897 l 106 1158 z "},"k":{"ha":718,"x_min":72,"x_max":715,"o":"m 72 1125 l 281 1125 l 281 492 l 482 803 l 715 803 l 507 476 l 713 0 l 486 0 l 343 389 l 281 306 l 281 0 l 72 0 l 72 1125 z "},"ķ":{"ha":718,"x_min":72,"x_max":715,"o":"m 72 1125 l 281 1125 l 281 492 l 482 803 l 715 803 l 507 476 l 713 0 l 486 0 l 343 389 l 281 306 l 281 0 l 72 0 l 72 1125 m 275 -399 q 343 -367 318 -392 q 368 -292 368 -343 l 260 -292 l 260 -93 l 460 -93 l 460 -267 q 420 -419 458 -367 q 296 -474 382 -472 l 275 -399 z "},"ĸ":{"ha":683,"x_min":72,"x_max":675,"o":"m 72 803 l 282 803 l 282 464 l 449 803 l 672 803 l 504 456 l 675 0 l 456 0 l 326 376 l 282 310 l 282 0 l 72 0 l 72 803 z "},"l":{"ha":367,"x_min":82,"x_max":290,"o":"m 82 1125 l 290 1125 l 290 0 l 82 0 l 82 1125 z "},"ĺ":{"ha":367,"x_min":82,"x_max":418,"o":"m 82 1125 l 290 1125 l 290 0 l 82 0 l 82 1125 m 204 1488 l 418 1488 l 247 1208 l 119 1208 l 204 1488 z "},"ľ":{"ha":538,"x_min":82,"x_max":561,"o":"m 82 1125 l 290 1125 l 290 0 l 82 0 l 82 1125 m 375 801 q 471 922 471 828 l 360 922 l 360 1125 l 561 1125 l 561 946 q 392 732 561 751 l 375 801 z "},"ļ":{"ha":367,"x_min":82,"x_max":290,"o":"m 82 1125 l 290 1125 l 290 0 l 82 0 l 82 1125 m 101 -399 q 169 -367 144 -392 q 194 -292 194 -343 l 86 -292 l 86 -93 l 286 -93 l 286 -267 q 247 -419 285 -367 q 122 -474 208 -472 l 101 -399 z "},"ŀ":{"ha":481,"x_min":82,"x_max":500,"o":"m 82 1125 l 290 1125 l 290 0 l 82 0 l 82 1125 m 356 711 l 500 711 l 500 513 l 356 513 l 356 711 z "},"ǉ":{"ha":738,"x_min":82,"x_max":668,"o":"m 82 1125 l 290 1125 l 290 0 l 82 0 l 82 1125 m 457 1092 l 668 1092 l 668 935 l 457 935 l 457 1092 m 463 -240 q 351 -224 401 -240 l 351 -74 q 392 -78 389 -78 q 457 -4 457 -78 l 457 803 l 667 803 l 667 -29 q 614 -183 667 -126 q 463 -240 561 -240 z "},"ł":{"ha":443,"x_min":26,"x_max":431,"o":"m 119 575 l 26 533 l 26 658 l 119 700 l 119 1125 l 329 1125 l 329 790 l 431 835 l 431 710 l 329 667 l 329 0 l 119 0 l 119 575 z "},"m":{"ha":1024,"x_min":72,"x_max":957,"o":"m 72 803 l 276 803 l 276 736 q 465 818 357 818 q 548 794 513 818 q 601 721 583 769 q 806 818 688 818 q 916 767 875 818 q 957 625 957 717 l 957 0 l 754 0 l 754 604 q 742 658 754 642 q 704 675 729 675 q 661 665 685 675 q 617 638 638 656 l 617 625 l 617 0 l 414 0 l 414 604 q 401 658 414 642 q 364 675 389 675 q 322 665 346 675 q 276 638 297 656 l 276 0 l 72 0 l 72 803 z "},"ṁ":{"ha":1024,"x_min":72,"x_max":957,"o":"m 72 803 l 276 803 l 276 736 q 465 818 357 818 q 548 794 513 818 q 601 721 583 769 q 806 818 688 818 q 916 767 875 818 q 957 625 957 717 l 957 0 l 754 0 l 754 604 q 742 658 754 642 q 704 675 729 675 q 661 665 685 675 q 617 638 638 656 l 617 625 l 617 0 l 414 0 l 414 604 q 401 658 414 642 q 364 675 389 675 q 322 665 346 675 q 276 638 297 656 l 276 0 l 72 0 l 72 803 m 413 1114 l 613 1114 l 613 911 l 413 911 l 413 1114 z "},"n":{"ha":685,"x_min":72,"x_max":618,"o":"m 72 803 l 281 803 l 281 722 q 475 817 378 817 q 581 765 544 817 q 618 633 618 714 l 618 0 l 408 0 l 408 600 q 397 649 408 633 q 360 665 386 665 q 281 632 324 663 l 281 0 l 72 0 l 72 803 z "},"ń":{"ha":685,"x_min":72,"x_max":618,"o":"m 72 803 l 281 803 l 281 722 q 475 817 378 817 q 581 765 544 817 q 618 633 618 714 l 618 0 l 408 0 l 408 600 q 397 649 408 633 q 360 665 386 665 q 281 632 324 663 l 281 0 l 72 0 l 72 803 m 361 1165 l 575 1165 l 404 886 l 276 886 l 361 1165 z "},"ŉ":{"ha":788,"x_min":39,"x_max":739,"o":"m 54 935 q 149 1056 149 961 l 39 1056 l 39 1258 l 240 1258 l 240 1079 q 71 864 238 885 l 54 935 m 193 803 l 401 803 l 401 722 q 596 817 499 817 q 702 765 665 817 q 739 633 739 714 l 739 0 l 529 0 l 529 600 q 518 649 529 633 q 481 665 507 665 q 401 632 444 663 l 401 0 l 193 0 l 193 803 z "},"ň":{"ha":685,"x_min":72,"x_max":618,"o":"m 72 803 l 281 803 l 281 722 q 475 817 378 817 q 581 765 544 817 q 618 633 618 714 l 618 0 l 408 0 l 408 600 q 397 649 408 633 q 360 665 386 665 q 281 632 324 663 l 281 0 l 72 0 l 72 803 m 119 1142 l 269 1142 l 343 988 l 417 1142 l 567 1142 l 444 888 l 240 888 l 119 1142 z "},"ņ":{"ha":685,"x_min":72,"x_max":618,"o":"m 72 803 l 281 803 l 281 722 q 475 817 378 817 q 581 765 544 817 q 618 633 618 714 l 618 0 l 408 0 l 408 600 q 397 649 408 633 q 360 665 386 665 q 281 632 324 663 l 281 0 l 72 0 l 72 803 m 258 -399 q 326 -367 301 -392 q 351 -292 351 -343 l 243 -292 l 243 -93 l 443 -93 l 443 -267 q 403 -419 442 -367 q 279 -474 365 -472 l 258 -399 z "},"ŋ":{"ha":636,"x_min":60,"x_max":606,"o":"m 240 -131 q 338 -119 306 -131 q 383 -83 371 -108 q 396 -7 396 -57 l 396 600 q 385 649 396 633 q 347 665 375 665 q 269 632 308 663 l 269 0 l 60 0 l 60 803 l 269 803 l 269 731 q 464 817 356 817 q 569 765 533 817 q 606 633 606 714 l 606 -8 q 538 -207 606 -146 q 314 -268 471 -268 l 240 -268 l 240 -131 z "},"ǌ":{"ha":1056,"x_min":72,"x_max":986,"o":"m 72 803 l 281 803 l 281 722 q 475 817 378 817 q 581 765 544 817 q 618 633 618 714 l 618 0 l 408 0 l 408 600 q 397 649 408 633 q 360 665 386 665 q 281 632 324 663 l 281 0 l 72 0 l 72 803 m 775 1092 l 986 1092 l 986 935 l 775 935 l 775 1092 m 781 -240 q 669 -224 719 -240 l 669 -74 q 710 -78 707 -78 q 775 -4 775 -78 l 775 803 l 985 803 l 985 -29 q 932 -183 985 -126 q 781 -240 879 -240 z "},"ñ":{"ha":685,"x_min":72,"x_max":618,"o":"m 72 803 l 281 803 l 281 722 q 475 817 378 817 q 581 765 544 817 q 618 633 618 714 l 618 0 l 408 0 l 408 600 q 397 649 408 633 q 360 665 386 665 q 281 632 324 663 l 281 0 l 72 0 l 72 803 m 454 938 q 406 947 429 938 q 354 974 383 956 q 279 1003 307 1003 q 229 946 229 1003 l 126 946 q 247 1133 124 1133 q 292 1125 271 1133 q 340 1100 314 1117 q 383 1078 365 1086 q 421 1071 401 1071 q 464 1125 464 1071 l 560 1125 q 538 990 560 1042 q 454 938 517 938 z "},"o":{"ha":653,"x_min":56,"x_max":597,"o":"m 326 -14 q 126 56 196 -14 q 56 257 56 125 l 56 546 q 126 747 56 678 q 326 817 196 817 q 527 747 457 817 q 597 546 597 678 l 597 257 q 527 56 597 125 q 326 -14 457 -14 m 326 128 q 377 156 364 128 q 390 242 390 185 l 390 560 q 377 646 390 617 q 326 675 364 675 q 276 645 290 675 q 263 560 263 615 l 263 242 q 276 157 263 186 q 326 128 289 128 z "},"ó":{"ha":653,"x_min":56,"x_max":597,"o":"m 326 -14 q 126 56 196 -14 q 56 257 56 125 l 56 546 q 126 747 56 678 q 326 817 196 817 q 527 747 457 817 q 597 546 597 678 l 597 257 q 527 56 597 125 q 326 -14 457 -14 m 326 128 q 377 156 364 128 q 390 242 390 185 l 390 560 q 377 646 390 617 q 326 675 364 675 q 276 645 290 675 q 263 560 263 615 l 263 242 q 276 157 263 186 q 326 128 289 128 m 344 1165 l 558 1165 l 388 886 l 260 886 l 344 1165 z "},"ŏ":{"ha":653,"x_min":56,"x_max":597,"o":"m 326 -14 q 126 56 196 -14 q 56 257 56 125 l 56 546 q 126 747 56 678 q 326 817 196 817 q 527 747 457 817 q 597 546 597 678 l 597 257 q 527 56 597 125 q 326 -14 457 -14 m 326 128 q 377 156 364 128 q 390 242 390 185 l 390 560 q 377 646 390 617 q 326 675 364 675 q 276 645 290 675 q 263 560 263 615 l 263 242 q 276 157 263 186 q 326 128 289 128 m 326 892 q 172 947 228 892 q 115 1103 115 1003 l 235 1103 q 256 1026 235 1050 q 326 1001 276 1001 q 397 1026 375 1001 q 418 1103 418 1051 l 536 1103 q 481 947 536 1003 q 326 892 425 892 z "},"ô":{"ha":653,"x_min":56,"x_max":597,"o":"m 326 -14 q 126 56 196 -14 q 56 257 56 125 l 56 546 q 126 747 56 678 q 326 817 196 817 q 527 747 457 817 q 597 546 597 678 l 597 257 q 527 56 597 125 q 326 -14 457 -14 m 326 128 q 377 156 364 128 q 390 242 390 185 l 390 560 q 377 646 390 617 q 326 675 364 675 q 276 645 290 675 q 263 560 263 615 l 263 242 q 276 157 263 186 q 326 128 289 128 m 236 1158 l 414 1158 l 546 897 l 392 897 l 325 1064 l 260 897 l 107 897 l 236 1158 z "},"ố":{"ha":653,"x_min":56,"x_max":746,"o":"m 326 -14 q 126 56 196 -14 q 56 257 56 125 l 56 546 q 126 747 56 678 q 326 817 196 817 q 527 747 457 817 q 597 546 597 678 l 597 257 q 527 56 597 125 q 326 -14 457 -14 m 326 128 q 377 156 364 128 q 390 242 390 185 l 390 560 q 377 646 390 617 q 326 675 364 675 q 276 645 290 675 q 263 560 263 615 l 263 242 q 276 157 263 186 q 326 128 289 128 m 585 1225 l 746 1225 l 625 1057 l 511 1057 l 585 1225 m 236 1125 l 414 1125 l 546 897 l 396 897 l 325 1036 l 256 897 l 107 897 l 236 1125 z "},"ộ":{"ha":653,"x_min":56,"x_max":597,"o":"m 326 -14 q 126 56 196 -14 q 56 257 56 125 l 56 546 q 126 747 56 678 q 326 817 196 817 q 527 747 457 817 q 597 546 597 678 l 597 257 q 527 56 597 125 q 326 -14 457 -14 m 326 128 q 377 156 364 128 q 390 242 390 185 l 390 560 q 377 646 390 617 q 326 675 364 675 q 276 645 290 675 q 263 560 263 615 l 263 242 q 276 157 263 186 q 326 128 289 128 m 235 -94 l 418 -94 l 418 -279 l 235 -279 l 235 -94 m 236 1125 l 414 1125 l 546 897 l 396 897 l 325 1036 l 256 897 l 107 897 l 236 1125 z "},"ồ":{"ha":653,"x_min":56,"x_max":665,"o":"m 326 -14 q 126 56 196 -14 q 56 257 56 125 l 56 546 q 126 747 56 678 q 326 817 196 817 q 527 747 457 817 q 597 546 597 678 l 597 257 q 527 56 597 125 q 326 -14 457 -14 m 326 128 q 377 156 364 128 q 390 242 390 185 l 390 560 q 377 646 390 617 q 326 675 364 675 q 276 645 290 675 q 263 560 263 615 l 263 242 q 276 157 263 186 q 326 128 289 128 m 431 1225 l 592 1225 l 665 1057 l 551 1057 l 431 1225 m 236 1125 l 414 1125 l 546 897 l 396 897 l 325 1036 l 256 897 l 107 897 l 236 1125 z "},"ổ":{"ha":653,"x_min":56,"x_max":692,"o":"m 326 -14 q 126 56 196 -14 q 56 257 56 125 l 56 546 q 126 747 56 678 q 326 817 196 817 q 527 747 457 817 q 597 546 597 678 l 597 257 q 527 56 597 125 q 326 -14 457 -14 m 326 128 q 377 156 364 128 q 390 242 390 185 l 390 560 q 377 646 390 617 q 326 675 364 675 q 276 645 290 675 q 263 560 263 615 l 263 242 q 276 157 263 186 q 326 128 289 128 m 503 1088 q 544 1127 531 1108 q 557 1169 557 1146 q 540 1210 557 1196 q 493 1225 522 1225 q 424 1213 458 1225 l 424 1303 q 535 1322 474 1322 q 649 1288 606 1322 q 692 1189 692 1254 q 658 1091 692 1129 q 564 1022 624 1053 l 503 1088 m 236 1125 l 414 1125 l 546 897 l 396 897 l 325 1036 l 256 897 l 107 897 l 236 1125 z "},"ỗ":{"ha":653,"x_min":56,"x_max":597,"o":"m 326 -14 q 126 56 196 -14 q 56 257 56 125 l 56 546 q 126 747 56 678 q 326 817 196 817 q 527 747 457 817 q 597 546 597 678 l 597 257 q 527 56 597 125 q 326 -14 457 -14 m 326 128 q 377 156 364 128 q 390 242 390 185 l 390 560 q 377 646 390 617 q 326 675 364 675 q 276 645 290 675 q 263 560 263 615 l 263 242 q 276 157 263 186 q 326 128 289 128 m 236 1125 l 414 1125 l 546 897 l 396 897 l 325 1036 l 256 897 l 107 897 l 236 1125 m 438 1193 q 390 1202 413 1193 q 338 1229 367 1211 q 263 1258 290 1258 q 213 1201 213 1258 l 110 1201 q 231 1389 107 1389 q 276 1381 254 1389 q 324 1356 297 1372 q 367 1334 349 1342 q 404 1326 385 1326 q 447 1381 447 1326 l 543 1381 q 522 1245 543 1297 q 438 1193 500 1193 z "},"ȍ":{"ha":653,"x_min":24,"x_max":597,"o":"m 326 -14 q 126 56 196 -14 q 56 257 56 125 l 56 546 q 126 747 56 678 q 326 817 196 817 q 527 747 457 817 q 597 546 597 678 l 597 257 q 527 56 597 125 q 326 -14 457 -14 m 326 128 q 377 156 364 128 q 390 242 390 185 l 390 560 q 377 646 390 617 q 326 675 364 675 q 276 645 290 675 q 263 560 263 615 l 263 242 q 276 157 263 186 q 326 128 289 128 m 24 1163 l 192 1163 l 279 888 l 167 888 l 24 1163 m 274 1163 l 429 1163 l 506 888 l 396 888 l 274 1163 z "},"ö":{"ha":653,"x_min":56,"x_max":597,"o":"m 326 -14 q 126 56 196 -14 q 56 257 56 125 l 56 546 q 126 747 56 678 q 326 817 196 817 q 527 747 457 817 q 597 546 597 678 l 597 257 q 527 56 597 125 q 326 -14 457 -14 m 326 128 q 377 156 364 128 q 390 242 390 185 l 390 560 q 377 646 390 617 q 326 675 364 675 q 276 645 290 675 q 263 560 263 615 l 263 242 q 276 157 263 186 q 326 128 289 128 m 94 1125 l 268 1125 l 268 931 l 94 931 l 94 1125 m 383 1125 l 558 1125 l 558 931 l 383 931 l 383 1125 z "},"ȫ":{"ha":653,"x_min":56,"x_max":597,"o":"m 326 -14 q 126 56 196 -14 q 56 257 56 125 l 56 546 q 126 747 56 678 q 326 817 196 817 q 527 747 457 817 q 597 546 597 678 l 597 257 q 527 56 597 125 q 326 -14 457 -14 m 326 128 q 377 156 364 128 q 390 242 390 185 l 390 560 q 377 646 390 617 q 326 675 364 675 q 276 645 290 675 q 263 560 263 615 l 263 242 q 276 157 263 186 q 326 128 289 128 m 94 1125 l 268 1125 l 268 931 l 94 931 l 94 1125 m 383 1125 l 558 1125 l 558 931 l 383 931 l 383 1125 m 147 1357 l 506 1357 l 506 1253 l 147 1253 l 147 1357 z "},"ȱ":{"ha":653,"x_min":56,"x_max":597,"o":"m 326 -14 q 126 56 196 -14 q 56 257 56 125 l 56 546 q 126 747 56 678 q 326 817 196 817 q 527 747 457 817 q 597 546 597 678 l 597 257 q 527 56 597 125 q 326 -14 457 -14 m 326 128 q 377 156 364 128 q 390 242 390 185 l 390 560 q 377 646 390 617 q 326 675 364 675 q 276 645 290 675 q 263 560 263 615 l 263 242 q 276 157 263 186 q 326 128 289 128 m 226 1114 l 426 1114 l 426 911 l 226 911 l 226 1114 m 147 1346 l 506 1346 l 506 1242 l 147 1242 l 147 1346 z "},"ọ":{"ha":653,"x_min":56,"x_max":597,"o":"m 326 -14 q 126 56 196 -14 q 56 257 56 125 l 56 546 q 126 747 56 678 q 326 817 196 817 q 527 747 457 817 q 597 546 597 678 l 597 257 q 527 56 597 125 q 326 -14 457 -14 m 326 128 q 377 156 364 128 q 390 242 390 185 l 390 560 q 377 646 390 617 q 326 675 364 675 q 276 645 290 675 q 263 560 263 615 l 263 242 q 276 157 263 186 q 326 128 289 128 m 235 -94 l 418 -94 l 418 -279 l 235 -279 l 235 -94 z "},"ò":{"ha":653,"x_min":56,"x_max":597,"o":"m 326 -14 q 126 56 196 -14 q 56 257 56 125 l 56 546 q 126 747 56 678 q 326 817 196 817 q 527 747 457 817 q 597 546 597 678 l 597 257 q 527 56 597 125 q 326 -14 457 -14 m 326 128 q 377 156 364 128 q 390 242 390 185 l 390 560 q 377 646 390 617 q 326 675 364 675 q 276 645 290 675 q 263 560 263 615 l 263 242 q 276 157 263 186 q 326 128 289 128 m 94 1165 l 310 1165 l 393 886 l 267 886 l 94 1165 z "},"ỏ":{"ha":653,"x_min":56,"x_max":597,"o":"m 326 -14 q 126 56 196 -14 q 56 257 56 125 l 56 546 q 126 747 56 678 q 326 817 196 817 q 527 747 457 817 q 597 546 597 678 l 597 257 q 527 56 597 125 q 326 -14 457 -14 m 326 128 q 377 156 364 128 q 390 242 390 185 l 390 560 q 377 646 390 617 q 326 675 364 675 q 276 645 290 675 q 263 560 263 615 l 263 242 q 276 157 263 186 q 326 128 289 128 m 257 942 q 332 984 310 967 q 354 1029 354 1001 q 274 1079 354 1079 q 192 1069 231 1079 l 192 1160 q 326 1178 261 1178 q 446 1144 399 1178 q 493 1043 493 1111 q 449 940 493 978 q 326 874 406 901 l 257 942 z "},"ơ":{"ha":653,"x_min":56,"x_max":597,"o":"m 519 753 q 597 546 597 686 l 597 257 q 527 56 597 125 q 326 -14 457 -14 q 126 56 196 -14 q 56 257 56 125 l 56 546 q 126 747 56 678 q 326 817 196 817 q 407 808 369 817 q 439 845 429 818 q 449 918 449 872 l 597 918 q 519 753 597 804 m 390 560 q 377 646 390 617 q 326 675 364 675 q 276 645 290 675 q 263 560 263 615 l 263 242 q 276 157 263 186 q 326 128 289 128 q 377 156 364 128 q 390 242 390 185 l 390 560 z "},"ớ":{"ha":653,"x_min":56,"x_max":597,"o":"m 519 753 q 597 546 597 686 l 597 257 q 527 56 597 125 q 326 -14 457 -14 q 126 56 196 -14 q 56 257 56 125 l 56 546 q 126 747 56 678 q 326 817 196 817 q 407 808 369 817 q 439 845 429 818 q 449 918 449 872 l 597 918 q 519 753 597 804 m 390 560 q 377 646 390 617 q 326 675 364 675 q 276 645 290 675 q 263 560 263 615 l 263 242 q 276 157 263 186 q 326 128 289 128 q 377 156 364 128 q 390 242 390 185 l 390 560 m 344 1199 l 558 1199 l 388 919 l 260 919 l 344 1199 z "},"ợ":{"ha":653,"x_min":56,"x_max":597,"o":"m 519 753 q 597 546 597 686 l 597 257 q 527 56 597 125 q 326 -14 457 -14 q 126 56 196 -14 q 56 257 56 125 l 56 546 q 126 747 56 678 q 326 817 196 817 q 407 808 369 817 q 439 845 429 818 q 449 918 449 872 l 597 918 q 519 753 597 804 m 390 560 q 377 646 390 617 q 326 675 364 675 q 276 645 290 675 q 263 560 263 615 l 263 242 q 276 157 263 186 q 326 128 289 128 q 377 156 364 128 q 390 242 390 185 l 390 560 m 235 -94 l 418 -94 l 418 -279 l 235 -279 l 235 -94 z "},"ờ":{"ha":653,"x_min":56,"x_max":597,"o":"m 519 753 q 597 546 597 686 l 597 257 q 527 56 597 125 q 326 -14 457 -14 q 126 56 196 -14 q 56 257 56 125 l 56 546 q 126 747 56 678 q 326 817 196 817 q 407 808 369 817 q 439 845 429 818 q 449 918 449 872 l 597 918 q 519 753 597 804 m 390 560 q 377 646 390 617 q 326 675 364 675 q 276 645 290 675 q 263 560 263 615 l 263 242 q 276 157 263 186 q 326 128 289 128 q 377 156 364 128 q 390 242 390 185 l 390 560 m 94 1199 l 310 1199 l 393 919 l 267 919 l 94 1199 z "},"ở":{"ha":653,"x_min":56,"x_max":597,"o":"m 519 753 q 597 546 597 686 l 597 257 q 527 56 597 125 q 326 -14 457 -14 q 126 56 196 -14 q 56 257 56 125 l 56 546 q 126 747 56 678 q 326 817 196 817 q 407 808 369 817 q 439 845 429 818 q 449 918 449 872 l 597 918 q 519 753 597 804 m 390 560 q 377 646 390 617 q 326 675 364 675 q 276 645 290 675 q 263 560 263 615 l 263 242 q 276 157 263 186 q 326 128 289 128 q 377 156 364 128 q 390 242 390 185 l 390 560 m 257 975 q 332 1017 310 1000 q 354 1063 354 1035 q 274 1113 354 1113 q 192 1103 231 1113 l 192 1193 q 326 1211 261 1211 q 446 1178 399 1211 q 493 1076 493 1144 q 449 973 493 1011 q 326 907 406 935 l 257 975 z "},"ỡ":{"ha":653,"x_min":56,"x_max":597,"o":"m 519 753 q 597 546 597 686 l 597 257 q 527 56 597 125 q 326 -14 457 -14 q 126 56 196 -14 q 56 257 56 125 l 56 546 q 126 747 56 678 q 326 817 196 817 q 407 808 369 817 q 439 845 429 818 q 449 918 449 872 l 597 918 q 519 753 597 804 m 390 560 q 377 646 390 617 q 326 675 364 675 q 276 645 290 675 q 263 560 263 615 l 263 242 q 276 157 263 186 q 326 128 289 128 q 377 156 364 128 q 390 242 390 185 l 390 560 m 438 971 q 390 980 413 971 q 338 1007 367 989 q 263 1036 290 1036 q 213 979 213 1036 l 110 979 q 231 1167 107 1167 q 276 1158 254 1167 q 324 1133 297 1150 q 367 1112 349 1119 q 404 1104 385 1104 q 447 1158 447 1104 l 543 1158 q 522 1023 543 1075 q 438 971 500 971 z "},"ő":{"ha":653,"x_min":56,"x_max":657,"o":"m 326 -14 q 126 56 196 -14 q 56 257 56 125 l 56 546 q 126 747 56 678 q 326 817 196 817 q 527 747 457 817 q 597 546 597 678 l 597 257 q 527 56 597 125 q 326 -14 457 -14 m 326 128 q 377 156 364 128 q 390 242 390 185 l 390 560 q 377 646 390 617 q 326 675 364 675 q 276 645 290 675 q 263 560 263 615 l 263 242 q 276 157 263 186 q 326 128 289 128 m 229 1168 l 400 1168 l 260 882 l 153 882 l 229 1168 m 471 1168 l 657 1168 l 492 882 l 383 882 l 471 1168 z "},"ȏ":{"ha":653,"x_min":56,"x_max":597,"o":"m 326 -14 q 126 56 196 -14 q 56 257 56 125 l 56 546 q 126 747 56 678 q 326 817 196 817 q 527 747 457 817 q 597 546 597 678 l 597 257 q 527 56 597 125 q 326 -14 457 -14 m 326 128 q 377 156 364 128 q 390 242 390 185 l 390 560 q 377 646 390 617 q 326 675 364 675 q 276 645 290 675 q 263 560 263 615 l 263 242 q 276 157 263 186 q 326 128 289 128 m 115 906 q 171 1066 117 1008 q 326 1124 225 1124 q 483 1066 429 1124 q 538 906 538 1008 l 418 906 q 397 988 418 963 q 326 1014 376 1014 q 256 989 276 1014 q 235 906 235 964 l 115 906 z "},"ō":{"ha":653,"x_min":56,"x_max":597,"o":"m 326 -14 q 126 56 196 -14 q 56 257 56 125 l 56 546 q 126 747 56 678 q 326 817 196 817 q 527 747 457 817 q 597 546 597 678 l 597 257 q 527 56 597 125 q 326 -14 457 -14 m 326 128 q 377 156 364 128 q 390 242 390 185 l 390 560 q 377 646 390 617 q 326 675 364 675 q 276 645 290 675 q 263 560 263 615 l 263 242 q 276 157 263 186 q 326 128 289 128 m 147 1035 l 506 1035 l 506 931 l 147 931 l 147 1035 z "},"ǫ":{"ha":653,"x_min":56,"x_max":597,"o":"m 326 817 q 527 747 457 817 q 597 546 597 678 l 597 257 q 553 88 597 153 q 424 -1 508 22 q 364 -167 364 -93 q 457 -244 364 -244 q 499 -242 476 -244 l 476 -344 q 429 -349 458 -349 q 275 -319 336 -349 q 214 -204 214 -289 q 242 -104 214 -157 q 311 -14 271 -51 q 122 60 188 -10 q 56 257 56 129 l 56 546 q 126 747 56 678 q 326 817 196 817 m 263 242 q 276 157 263 186 q 326 128 289 128 q 377 156 364 128 q 390 242 390 185 l 390 560 q 377 646 390 617 q 326 675 364 675 q 276 645 290 675 q 263 560 263 615 l 263 242 z "},"ø":{"ha":647,"x_min":56,"x_max":597,"o":"m 497 772 q 597 546 597 704 l 597 257 q 527 56 597 125 q 326 -14 457 -14 q 194 10 253 -14 l 142 -125 l 92 -104 l 147 38 q 56 257 56 106 l 56 546 q 126 747 56 678 q 326 817 196 817 q 446 797 392 817 l 499 933 l 553 913 l 497 772 m 263 332 l 382 635 q 326 675 368 675 q 276 645 290 675 q 263 560 263 615 l 263 332 m 326 128 q 377 156 364 128 q 390 242 390 185 l 390 503 l 267 189 q 326 128 276 128 z "},"ǿ":{"ha":647,"x_min":56,"x_max":597,"o":"m 497 772 q 597 546 597 704 l 597 257 q 527 56 597 125 q 326 -14 457 -14 q 194 10 253 -14 l 142 -125 l 92 -104 l 147 38 q 56 257 56 106 l 56 546 q 126 747 56 678 q 326 817 196 817 q 446 797 392 817 l 499 933 l 553 913 l 497 772 m 263 332 l 382 635 q 326 675 368 675 q 276 645 290 675 q 263 560 263 615 l 263 332 m 326 128 q 377 156 364 128 q 390 242 390 185 l 390 503 l 267 189 q 326 128 276 128 m 342 1165 l 556 1165 l 385 886 l 257 886 l 342 1165 z "},"õ":{"ha":653,"x_min":56,"x_max":597,"o":"m 326 -14 q 126 56 196 -14 q 56 257 56 125 l 56 546 q 126 747 56 678 q 326 817 196 817 q 527 747 457 817 q 597 546 597 678 l 597 257 q 527 56 597 125 q 326 -14 457 -14 m 326 128 q 377 156 364 128 q 390 242 390 185 l 390 560 q 377 646 390 617 q 326 675 364 675 q 276 645 290 675 q 263 560 263 615 l 263 242 q 276 157 263 186 q 326 128 289 128 m 438 938 q 390 947 413 938 q 338 974 367 956 q 263 1003 290 1003 q 213 946 213 1003 l 110 946 q 231 1133 107 1133 q 276 1125 254 1133 q 324 1100 297 1117 q 367 1078 349 1086 q 404 1071 385 1071 q 447 1125 447 1071 l 543 1125 q 522 990 543 1042 q 438 938 500 938 z "},"ȭ":{"ha":653,"x_min":56,"x_max":597,"o":"m 326 -14 q 126 56 196 -14 q 56 257 56 125 l 56 546 q 126 747 56 678 q 326 817 196 817 q 527 747 457 817 q 597 546 597 678 l 597 257 q 527 56 597 125 q 326 -14 457 -14 m 326 128 q 377 156 364 128 q 390 242 390 185 l 390 560 q 377 646 390 617 q 326 675 364 675 q 276 645 290 675 q 263 560 263 615 l 263 242 q 276 157 263 186 q 326 128 289 128 m 438 938 q 390 947 413 938 q 338 974 367 956 q 263 1003 290 1003 q 213 946 213 1003 l 110 946 q 231 1133 107 1133 q 276 1125 254 1133 q 324 1100 297 1117 q 367 1078 349 1086 q 404 1071 385 1071 q 447 1125 447 1071 l 543 1125 q 522 990 543 1042 q 438 938 500 938 m 147 1365 l 506 1365 l 506 1261 l 147 1261 l 147 1365 z "},"œ":{"ha":974,"x_min":61,"x_max":918,"o":"m 297 -17 q 125 52 189 -17 q 61 250 61 121 l 61 576 q 125 766 61 701 q 306 831 189 831 q 422 804 368 831 q 494 731 475 778 q 570 804 515 778 q 683 831 625 831 q 865 756 811 831 q 918 538 918 681 l 918 390 l 607 390 l 607 267 q 619 161 607 200 q 665 121 631 122 q 707 141 694 119 q 719 213 719 163 l 719 308 l 918 308 l 918 214 q 859 44 918 104 q 688 -17 800 -17 q 564 9 615 -17 q 490 83 513 35 q 297 -17 438 -17 m 326 121 q 376 150 361 121 q 390 244 390 179 l 390 585 q 376 668 390 640 q 329 696 363 696 q 282 669 296 696 q 268 585 268 642 l 268 246 q 281 153 268 186 q 326 121 293 121 m 721 500 l 721 597 q 707 669 721 642 q 664 696 693 696 q 622 669 636 696 q 607 597 607 643 l 607 500 l 721 500 z "},"p":{"ha":683,"x_min":72,"x_max":625,"o":"m 72 803 l 281 803 l 281 743 q 451 817 361 817 q 583 742 542 814 q 625 565 625 671 l 625 251 q 579 59 625 132 q 444 -14 533 -14 q 281 61 365 -14 l 281 -264 l 72 -264 l 72 803 m 351 126 q 415 243 415 126 l 415 579 q 401 656 415 626 q 354 685 386 685 q 281 654 321 685 l 281 150 q 351 126 318 126 z "},"ṗ":{"ha":683,"x_min":72,"x_max":625,"o":"m 72 803 l 281 803 l 281 743 q 451 817 361 817 q 583 742 542 814 q 625 565 625 671 l 625 251 q 579 59 625 132 q 444 -14 533 -14 q 281 61 365 -14 l 281 -264 l 72 -264 l 72 803 m 351 126 q 415 243 415 126 l 415 579 q 401 656 415 626 q 354 685 386 685 q 281 654 321 685 l 281 150 q 351 126 318 126 m 242 1114 l 442 1114 l 442 911 l 242 911 l 242 1114 z "},"þ":{"ha":672,"x_min":67,"x_max":618,"o":"m 67 1125 l 276 1125 l 276 743 q 446 817 357 817 q 577 742 536 814 q 618 565 618 671 l 618 251 q 573 59 618 132 q 439 -14 528 -14 q 276 60 360 -14 l 276 -264 l 67 -264 l 67 1125 m 346 126 q 408 243 408 126 l 408 579 q 347 685 408 685 q 276 654 314 685 l 276 150 q 346 126 313 126 z "},"q":{"ha":682,"x_min":58,"x_max":613,"o":"m 403 64 q 249 -14 328 -14 q 58 251 58 -14 l 58 546 q 106 743 58 669 q 247 817 153 817 q 403 750 326 817 l 403 803 l 613 803 l 613 -264 l 403 -264 l 403 64 m 335 125 q 403 150 365 125 l 403 657 q 335 681 367 681 q 285 652 301 681 q 269 576 269 624 l 269 236 q 335 125 269 125 z "},"r":{"ha":501,"x_min":75,"x_max":479,"o":"m 75 803 l 285 803 l 285 674 q 449 813 360 813 q 479 808 460 813 l 479 618 q 435 624 454 624 q 352 599 388 622 q 285 529 317 576 l 285 0 l 75 0 l 75 803 z "},"ŕ":{"ha":501,"x_min":75,"x_max":503,"o":"m 75 803 l 285 803 l 285 674 q 449 813 360 813 q 479 808 460 813 l 479 618 q 435 624 454 624 q 352 599 388 622 q 285 529 317 576 l 285 0 l 75 0 l 75 803 m 289 1165 l 503 1165 l 332 886 l 204 886 l 289 1165 z "},"ř":{"ha":501,"x_min":47,"x_max":494,"o":"m 75 803 l 285 803 l 285 674 q 449 813 360 813 q 479 808 460 813 l 479 618 q 435 624 454 624 q 352 599 388 622 q 285 529 317 576 l 285 0 l 75 0 l 75 803 m 47 1142 l 197 1142 l 271 988 l 344 1142 l 494 1142 l 372 888 l 168 888 l 47 1142 z "},"ŗ":{"ha":501,"x_min":75,"x_max":479,"o":"m 75 803 l 285 803 l 285 674 q 449 813 360 813 q 479 808 460 813 l 479 618 q 435 624 454 624 q 352 599 388 622 q 285 529 317 576 l 285 0 l 75 0 l 75 803 m 96 -399 q 164 -367 139 -392 q 189 -292 189 -343 l 81 -292 l 81 -93 l 281 -93 l 281 -267 q 241 -419 279 -367 q 117 -474 203 -472 l 96 -399 z "},"ȑ":{"ha":501,"x_min":-32,"x_max":479,"o":"m 75 803 l 285 803 l 285 674 q 449 813 360 813 q 479 808 460 813 l 479 618 q 435 624 454 624 q 352 599 388 622 q 285 529 317 576 l 285 0 l 75 0 l 75 803 m -32 1163 l 136 1163 l 224 888 l 111 888 l -32 1163 m 218 1163 l 374 1163 l 450 888 l 340 888 l 218 1163 z "},"ȓ":{"ha":501,"x_min":60,"x_max":482,"o":"m 75 803 l 285 803 l 285 674 q 449 813 360 813 q 479 808 460 813 l 479 618 q 435 624 454 624 q 352 599 388 622 q 285 529 317 576 l 285 0 l 75 0 l 75 803 m 60 906 q 115 1066 61 1008 q 271 1124 169 1124 q 428 1066 374 1124 q 482 906 482 1008 l 363 906 q 342 988 363 963 q 271 1014 321 1014 q 200 989 221 1014 q 179 906 179 964 l 60 906 z "},"s":{"ha":574,"x_min":29,"x_max":547,"o":"m 297 -14 q 130 37 196 -14 q 29 193 64 88 l 176 254 q 292 131 218 131 q 336 147 319 131 q 353 190 353 163 q 328 242 353 214 q 253 314 303 271 l 178 378 q 79 483 111 435 q 47 600 47 532 q 80 713 47 664 q 167 790 113 763 q 286 817 221 817 q 447 762 383 817 q 533 608 510 707 l 397 547 q 357 633 385 597 q 292 668 329 668 q 251 653 267 668 q 236 615 236 639 q 259 564 236 590 q 333 494 282 538 l 408 428 q 511 319 475 369 q 547 201 547 269 q 513 86 547 135 q 422 12 479 38 q 297 -14 365 -14 z "},"ś":{"ha":574,"x_min":29,"x_max":547,"o":"m 297 -14 q 130 37 196 -14 q 29 193 64 88 l 176 254 q 292 131 218 131 q 336 147 319 131 q 353 190 353 163 q 328 242 353 214 q 253 314 303 271 l 178 378 q 79 483 111 435 q 47 600 47 532 q 80 713 47 664 q 167 790 113 763 q 286 817 221 817 q 447 762 383 817 q 533 608 510 707 l 397 547 q 357 633 385 597 q 292 668 329 668 q 251 653 267 668 q 236 615 236 639 q 259 564 236 590 q 333 494 282 538 l 408 428 q 511 319 475 369 q 547 201 547 269 q 513 86 547 135 q 422 12 479 38 q 297 -14 365 -14 m 306 1165 l 519 1165 l 349 886 l 221 886 l 306 1165 z "},"š":{"ha":574,"x_min":29,"x_max":547,"o":"m 297 -14 q 130 37 196 -14 q 29 193 64 88 l 176 254 q 292 131 218 131 q 336 147 319 131 q 353 190 353 163 q 328 242 353 214 q 253 314 303 271 l 178 378 q 79 483 111 435 q 47 600 47 532 q 80 713 47 664 q 167 790 113 763 q 286 817 221 817 q 447 762 383 817 q 533 608 510 707 l 397 547 q 357 633 385 597 q 292 668 329 668 q 251 653 267 668 q 236 615 236 639 q 259 564 236 590 q 333 494 282 538 l 408 428 q 511 319 475 369 q 547 201 547 269 q 513 86 547 135 q 422 12 479 38 q 297 -14 365 -14 m 64 1142 l 214 1142 l 288 988 l 361 1142 l 511 1142 l 389 888 l 185 888 l 64 1142 z "},"ş":{"ha":574,"x_min":29,"x_max":547,"o":"m 328 -89 q 463 -124 414 -89 q 511 -228 511 -160 q 455 -336 511 -300 q 313 -372 399 -372 q 210 -357 263 -372 l 210 -264 q 288 -275 251 -275 q 350 -263 326 -275 q 374 -225 374 -251 q 338 -173 374 -190 q 247 -151 301 -156 l 247 -11 q 113 50 167 0 q 29 193 60 100 l 176 254 q 292 131 218 131 q 336 147 319 131 q 353 190 353 163 q 328 242 353 214 q 253 314 303 271 l 178 378 q 79 483 111 435 q 47 600 47 532 q 80 713 47 664 q 167 790 113 763 q 286 817 221 817 q 447 762 383 817 q 533 608 510 707 l 397 547 q 357 633 385 597 q 292 668 329 668 q 251 653 267 668 q 236 615 236 639 q 259 564 236 590 q 333 494 282 538 l 408 428 q 511 319 475 369 q 547 201 547 269 q 485 53 547 110 q 328 -12 422 -4 l 328 -89 z "},"ŝ":{"ha":574,"x_min":29,"x_max":547,"o":"m 297 -14 q 130 37 196 -14 q 29 193 64 88 l 176 254 q 292 131 218 131 q 336 147 319 131 q 353 190 353 163 q 328 242 353 214 q 253 314 303 271 l 178 378 q 79 483 111 435 q 47 600 47 532 q 80 713 47 664 q 167 790 113 763 q 286 817 221 817 q 447 762 383 817 q 533 608 510 707 l 397 547 q 357 633 385 597 q 292 668 329 668 q 251 653 267 668 q 236 615 236 639 q 259 564 236 590 q 333 494 282 538 l 408 428 q 511 319 475 369 q 547 201 547 269 q 513 86 547 135 q 422 12 479 38 q 297 -14 365 -14 m 197 1158 l 375 1158 l 507 897 l 353 897 l 286 1064 l 221 897 l 68 897 l 197 1158 z "},"ș":{"ha":574,"x_min":29,"x_max":547,"o":"m 297 -14 q 130 37 196 -14 q 29 193 64 88 l 176 254 q 292 131 218 131 q 336 147 319 131 q 353 190 353 163 q 328 242 353 214 q 253 314 303 271 l 178 378 q 79 483 111 435 q 47 600 47 532 q 80 713 47 664 q 167 790 113 763 q 286 817 221 817 q 447 762 383 817 q 533 608 510 707 l 397 547 q 357 633 385 597 q 292 668 329 668 q 251 653 267 668 q 236 615 236 639 q 259 564 236 590 q 333 494 282 538 l 408 428 q 511 319 475 369 q 547 201 547 269 q 513 86 547 135 q 422 12 479 38 q 297 -14 365 -14 m 203 -399 q 271 -367 246 -392 q 296 -292 296 -343 l 188 -292 l 188 -93 l 388 -93 l 388 -267 q 348 -419 386 -367 q 224 -474 310 -472 l 203 -399 z "},"ṡ":{"ha":574,"x_min":29,"x_max":547,"o":"m 297 -14 q 130 37 196 -14 q 29 193 64 88 l 176 254 q 292 131 218 131 q 336 147 319 131 q 353 190 353 163 q 328 242 353 214 q 253 314 303 271 l 178 378 q 79 483 111 435 q 47 600 47 532 q 80 713 47 664 q 167 790 113 763 q 286 817 221 817 q 447 762 383 817 q 533 608 510 707 l 397 547 q 357 633 385 597 q 292 668 329 668 q 251 653 267 668 q 236 615 236 639 q 259 564 236 590 q 333 494 282 538 l 408 428 q 511 319 475 369 q 547 201 547 269 q 513 86 547 135 q 422 12 479 38 q 297 -14 365 -14 m 188 1114 l 388 1114 l 388 911 l 188 911 l 188 1114 z "},"ß":{"ha":744,"x_min":68,"x_max":701,"o":"m 343 143 q 462 188 425 143 q 493 338 499 233 q 453 451 490 407 q 356 496 415 496 l 356 658 q 435 706 408 658 q 463 838 463 753 q 440 952 463 913 q 368 992 418 992 q 295 951 315 992 q 278 835 275 911 l 278 0 l 68 0 l 68 835 q 138 1054 68 968 q 351 1140 207 1140 q 572 1063 500 1140 q 644 842 644 986 q 486 597 644 664 q 644 493 588 568 q 701 317 701 418 q 611 63 701 144 q 343 -19 521 -19 l 343 143 z "},"t":{"ha":478,"x_min":19,"x_max":442,"o":"m 296 -10 q 140 65 181 -6 q 99 261 99 135 l 99 665 l 19 665 l 19 803 l 99 803 l 99 1044 l 311 1044 l 311 803 l 428 803 l 428 665 l 311 665 l 311 231 q 331 176 311 193 q 390 160 351 160 q 442 165 414 160 l 442 1 q 393 -6 433 0 q 296 -10 353 -12 z "},"ŧ":{"ha":440,"x_min":19,"x_max":442,"o":"m 390 160 q 442 165 414 160 l 442 1 q 393 -6 433 0 q 296 -10 353 -12 q 140 65 181 -6 q 99 261 99 135 l 99 432 l 22 432 l 22 525 l 99 525 l 99 665 l 19 665 l 19 803 l 99 803 l 99 1044 l 311 1044 l 311 803 l 428 803 l 428 665 l 311 665 l 311 525 l 431 525 l 431 432 l 311 432 l 311 231 q 331 176 311 193 q 390 160 351 160 z "},"ť":{"ha":575,"x_min":19,"x_max":574,"o":"m 296 -10 q 140 65 181 -6 q 99 261 99 135 l 99 665 l 19 665 l 19 803 l 99 803 l 99 1044 l 311 1044 l 311 803 l 428 803 l 428 665 l 311 665 l 311 231 q 331 176 311 193 q 390 160 351 160 q 442 165 414 160 l 442 1 q 393 -6 433 0 q 296 -10 353 -12 m 388 936 q 483 1057 483 963 l 372 1057 l 372 1260 l 574 1260 l 574 1081 q 404 867 574 886 l 388 936 z "},"ţ":{"ha":478,"x_min":19,"x_max":524,"o":"m 340 -89 q 475 -124 426 -89 q 524 -228 524 -160 q 467 -336 524 -300 q 325 -372 411 -372 q 222 -357 275 -372 l 222 -264 q 300 -275 264 -275 q 363 -263 339 -275 q 386 -225 386 -251 q 350 -173 386 -190 q 260 -151 314 -156 l 260 -7 q 132 76 165 7 q 99 261 99 146 l 99 665 l 19 665 l 19 803 l 99 803 l 99 1044 l 311 1044 l 311 803 l 428 803 l 428 665 l 311 665 l 311 231 q 331 176 311 193 q 390 160 351 160 q 442 165 414 160 l 442 1 q 402 -4 432 0 q 340 -10 372 -8 l 340 -89 z "},"ț":{"ha":478,"x_min":19,"x_max":442,"o":"m 296 -10 q 140 65 181 -6 q 99 261 99 135 l 99 665 l 19 665 l 19 803 l 99 803 l 99 1044 l 311 1044 l 311 803 l 428 803 l 428 665 l 311 665 l 311 231 q 331 176 311 193 q 390 160 351 160 q 442 165 414 160 l 442 1 q 393 -6 433 0 q 296 -10 353 -12 m 215 -399 q 283 -367 258 -392 q 308 -292 308 -343 l 200 -292 l 200 -93 l 400 -93 l 400 -267 q 360 -419 399 -367 q 236 -474 322 -472 l 215 -399 z "},"ṫ":{"ha":478,"x_min":19,"x_max":442,"o":"m 296 -10 q 140 65 181 -6 q 99 261 99 135 l 99 665 l 19 665 l 19 803 l 99 803 l 99 1044 l 311 1044 l 311 803 l 428 803 l 428 665 l 311 665 l 311 231 q 331 176 311 193 q 390 160 351 160 q 442 165 414 160 l 442 1 q 393 -6 433 0 q 296 -10 353 -12 m 104 1356 l 304 1356 l 304 1153 l 104 1153 l 104 1356 z "},"u":{"ha":681,"x_min":64,"x_max":608,"o":"m 207 -14 q 101 38 138 -14 q 64 169 64 89 l 64 803 l 274 803 l 274 199 q 322 132 274 132 q 399 163 356 132 l 399 803 l 608 803 l 608 0 l 399 0 l 399 75 q 207 -14 303 -14 z "},"ú":{"ha":681,"x_min":64,"x_max":608,"o":"m 207 -14 q 101 38 138 -14 q 64 169 64 89 l 64 803 l 274 803 l 274 199 q 322 132 274 132 q 399 163 356 132 l 399 803 l 608 803 l 608 0 l 399 0 l 399 75 q 207 -14 303 -14 m 358 1165 l 572 1165 l 401 886 l 274 886 l 358 1165 z "},"ŭ":{"ha":681,"x_min":64,"x_max":608,"o":"m 207 -14 q 101 38 138 -14 q 64 169 64 89 l 64 803 l 274 803 l 274 199 q 322 132 274 132 q 399 163 356 132 l 399 803 l 608 803 l 608 0 l 399 0 l 399 75 q 207 -14 303 -14 m 340 892 q 185 947 242 892 q 129 1103 129 1003 l 249 1103 q 269 1026 249 1050 q 340 1001 290 1001 q 410 1026 389 1001 q 432 1103 432 1051 l 550 1103 q 494 947 550 1003 q 340 892 439 892 z "},"û":{"ha":681,"x_min":64,"x_max":608,"o":"m 207 -14 q 101 38 138 -14 q 64 169 64 89 l 64 803 l 274 803 l 274 199 q 322 132 274 132 q 399 163 356 132 l 399 803 l 608 803 l 608 0 l 399 0 l 399 75 q 207 -14 303 -14 m 250 1158 l 428 1158 l 560 897 l 406 897 l 339 1064 l 274 897 l 121 897 l 250 1158 z "},"ȕ":{"ha":681,"x_min":38,"x_max":608,"o":"m 207 -14 q 101 38 138 -14 q 64 169 64 89 l 64 803 l 274 803 l 274 199 q 322 132 274 132 q 399 163 356 132 l 399 803 l 608 803 l 608 0 l 399 0 l 399 75 q 207 -14 303 -14 m 38 1163 l 206 1163 l 293 888 l 181 888 l 38 1163 m 288 1163 l 443 1163 l 519 888 l 410 888 l 288 1163 z "},"ü":{"ha":681,"x_min":64,"x_max":608,"o":"m 207 -14 q 101 38 138 -14 q 64 169 64 89 l 64 803 l 274 803 l 274 199 q 322 132 274 132 q 399 163 356 132 l 399 803 l 608 803 l 608 0 l 399 0 l 399 75 q 207 -14 303 -14 m 108 1125 l 282 1125 l 282 931 l 108 931 l 108 1125 m 397 1125 l 572 1125 l 572 931 l 397 931 l 397 1125 z "},"ụ":{"ha":681,"x_min":64,"x_max":608,"o":"m 207 -14 q 101 38 138 -14 q 64 169 64 89 l 64 803 l 274 803 l 274 199 q 322 132 274 132 q 399 163 356 132 l 399 803 l 608 803 l 608 0 l 399 0 l 399 75 q 207 -14 303 -14 m 249 -94 l 432 -94 l 432 -279 l 249 -279 l 249 -94 z "},"ù":{"ha":681,"x_min":64,"x_max":608,"o":"m 207 -14 q 101 38 138 -14 q 64 169 64 89 l 64 803 l 274 803 l 274 199 q 322 132 274 132 q 399 163 356 132 l 399 803 l 608 803 l 608 0 l 399 0 l 399 75 q 207 -14 303 -14 m 108 1165 l 324 1165 l 407 886 l 281 886 l 108 1165 z "},"ủ":{"ha":681,"x_min":64,"x_max":608,"o":"m 207 -14 q 101 38 138 -14 q 64 169 64 89 l 64 803 l 274 803 l 274 199 q 322 132 274 132 q 399 163 356 132 l 399 803 l 608 803 l 608 0 l 399 0 l 399 75 q 207 -14 303 -14 m 271 942 q 346 984 324 967 q 368 1029 368 1001 q 288 1079 368 1079 q 206 1069 244 1079 l 206 1160 q 340 1178 275 1178 q 460 1144 413 1178 q 507 1043 507 1111 q 463 940 507 978 q 340 874 419 901 l 271 942 z "},"ư":{"ha":681,"x_min":64,"x_max":696,"o":"m 696 918 q 608 747 696 797 l 608 0 l 399 0 l 399 75 q 207 -14 303 -14 q 101 38 138 -14 q 64 169 64 89 l 64 803 l 274 803 l 274 199 q 322 132 274 132 q 399 163 356 132 l 399 803 l 472 803 q 530 831 513 803 q 547 918 547 858 l 696 918 z "},"ứ":{"ha":681,"x_min":64,"x_max":696,"o":"m 696 918 q 608 747 696 797 l 608 0 l 399 0 l 399 75 q 207 -14 303 -14 q 101 38 138 -14 q 64 169 64 89 l 64 803 l 274 803 l 274 199 q 322 132 274 132 q 399 163 356 132 l 399 803 l 472 803 q 530 831 513 803 q 547 918 547 858 l 696 918 m 356 1165 l 569 1165 l 399 886 l 271 886 l 356 1165 z "},"ự":{"ha":681,"x_min":64,"x_max":696,"o":"m 696 918 q 608 747 696 797 l 608 0 l 399 0 l 399 75 q 207 -14 303 -14 q 101 38 138 -14 q 64 169 64 89 l 64 803 l 274 803 l 274 199 q 322 132 274 132 q 399 163 356 132 l 399 803 l 472 803 q 530 831 513 803 q 547 918 547 858 l 696 918 m 254 -94 l 438 -94 l 438 -279 l 254 -279 l 254 -94 z "},"ừ":{"ha":681,"x_min":64,"x_max":696,"o":"m 696 918 q 608 747 696 797 l 608 0 l 399 0 l 399 75 q 207 -14 303 -14 q 101 38 138 -14 q 64 169 64 89 l 64 803 l 274 803 l 274 199 q 322 132 274 132 q 399 163 356 132 l 399 803 l 472 803 q 530 831 513 803 q 547 918 547 858 l 696 918 m 106 1165 l 321 1165 l 404 886 l 278 886 l 106 1165 z "},"ử":{"ha":681,"x_min":64,"x_max":696,"o":"m 696 918 q 608 747 696 797 l 608 0 l 399 0 l 399 75 q 207 -14 303 -14 q 101 38 138 -14 q 64 169 64 89 l 64 803 l 274 803 l 274 199 q 322 132 274 132 q 399 163 356 132 l 399 803 l 472 803 q 530 831 513 803 q 547 918 547 858 l 696 918 m 268 942 q 343 984 321 967 q 365 1029 365 1001 q 285 1079 365 1079 q 203 1069 242 1079 l 203 1160 q 338 1178 272 1178 q 457 1144 410 1178 q 504 1043 504 1111 q 460 940 504 978 q 338 874 417 901 l 268 942 z "},"ữ":{"ha":681,"x_min":64,"x_max":696,"o":"m 696 918 q 608 747 696 797 l 608 0 l 399 0 l 399 75 q 207 -14 303 -14 q 101 38 138 -14 q 64 169 64 89 l 64 803 l 274 803 l 274 199 q 322 132 274 132 q 399 163 356 132 l 399 803 l 472 803 q 530 831 513 803 q 547 918 547 858 l 696 918 m 449 938 q 401 947 424 938 q 349 974 378 956 q 274 1003 301 1003 q 224 946 224 1003 l 121 946 q 242 1133 118 1133 q 287 1125 265 1133 q 335 1100 308 1117 q 378 1078 360 1086 q 415 1071 396 1071 q 458 1125 458 1071 l 554 1125 q 533 990 554 1042 q 449 938 511 938 z "},"ű":{"ha":681,"x_min":64,"x_max":671,"o":"m 207 -14 q 101 38 138 -14 q 64 169 64 89 l 64 803 l 274 803 l 274 199 q 322 132 274 132 q 399 163 356 132 l 399 803 l 608 803 l 608 0 l 399 0 l 399 75 q 207 -14 303 -14 m 243 1168 l 414 1168 l 274 882 l 167 882 l 243 1168 m 485 1168 l 671 1168 l 506 882 l 397 882 l 485 1168 z "},"ȗ":{"ha":681,"x_min":64,"x_max":608,"o":"m 207 -14 q 101 38 138 -14 q 64 169 64 89 l 64 803 l 274 803 l 274 199 q 322 132 274 132 q 399 163 356 132 l 399 803 l 608 803 l 608 0 l 399 0 l 399 75 q 207 -14 303 -14 m 129 906 q 185 1066 131 1008 q 340 1124 239 1124 q 497 1066 443 1124 q 551 906 551 1008 l 432 906 q 411 988 432 963 q 340 1014 390 1014 q 269 989 290 1014 q 249 906 249 964 l 129 906 z "},"ū":{"ha":681,"x_min":64,"x_max":608,"o":"m 207 -14 q 101 38 138 -14 q 64 169 64 89 l 64 803 l 274 803 l 274 199 q 322 132 274 132 q 399 163 356 132 l 399 803 l 608 803 l 608 0 l 399 0 l 399 75 q 207 -14 303 -14 m 161 1035 l 519 1035 l 519 931 l 161 931 l 161 1035 z "},"ų":{"ha":681,"x_min":64,"x_max":624,"o":"m 582 -249 q 624 -246 601 -249 l 601 -349 q 554 -353 583 -353 q 400 -323 461 -353 q 339 -208 339 -293 q 374 -94 339 -154 q 457 0 410 -35 l 399 0 l 399 75 q 207 -14 303 -14 q 101 38 138 -14 q 64 169 64 89 l 64 803 l 274 803 l 274 199 q 322 132 274 132 q 399 163 356 132 l 399 803 l 608 803 l 608 0 l 553 0 q 489 -171 489 -94 q 582 -249 489 -249 z "},"ů":{"ha":681,"x_min":64,"x_max":608,"o":"m 207 -14 q 101 38 138 -14 q 64 169 64 89 l 64 803 l 274 803 l 274 199 q 322 132 274 132 q 399 163 356 132 l 399 803 l 608 803 l 608 0 l 399 0 l 399 75 q 207 -14 303 -14 m 339 856 q 224 896 269 856 q 179 1008 179 936 q 224 1121 179 1081 q 339 1161 269 1161 q 455 1120 408 1161 q 501 1008 501 1079 q 456 896 501 936 q 339 856 410 856 m 339 935 q 392 956 374 935 q 411 1008 411 976 q 392 1063 411 1042 q 339 1083 374 1083 q 287 1063 306 1083 q 268 1008 268 1042 q 287 956 268 976 q 339 935 306 935 z "},"ũ":{"ha":681,"x_min":64,"x_max":608,"o":"m 207 -14 q 101 38 138 -14 q 64 169 64 89 l 64 803 l 274 803 l 274 199 q 322 132 274 132 q 399 163 356 132 l 399 803 l 608 803 l 608 0 l 399 0 l 399 75 q 207 -14 303 -14 m 451 938 q 403 947 426 938 q 351 974 381 956 q 276 1003 304 1003 q 226 946 226 1003 l 124 946 q 244 1133 121 1133 q 290 1125 268 1133 q 338 1100 311 1117 q 381 1078 363 1086 q 418 1071 399 1071 q 461 1125 461 1071 l 557 1125 q 535 990 557 1042 q 451 938 514 938 z "},"v":{"ha":575,"x_min":15,"x_max":563,"o":"m 15 803 l 218 803 l 292 263 l 361 803 l 563 803 l 399 0 l 176 0 l 15 803 z "},"w":{"ha":826,"x_min":32,"x_max":796,"o":"m 32 803 l 206 803 l 269 318 l 342 803 l 494 803 l 560 311 l 631 803 l 796 803 l 672 0 l 493 0 l 415 476 l 331 0 l 151 0 l 32 803 z "},"ẃ":{"ha":826,"x_min":32,"x_max":796,"o":"m 32 803 l 206 803 l 269 318 l 342 803 l 494 803 l 560 311 l 631 803 l 796 803 l 672 0 l 493 0 l 415 476 l 331 0 l 151 0 l 32 803 m 432 1165 l 646 1165 l 475 886 l 347 886 l 432 1165 z "},"ŵ":{"ha":826,"x_min":32,"x_max":796,"o":"m 32 803 l 206 803 l 269 318 l 342 803 l 494 803 l 560 311 l 631 803 l 796 803 l 672 0 l 493 0 l 415 476 l 331 0 l 151 0 l 32 803 m 324 1158 l 501 1158 l 633 897 l 479 897 l 413 1064 l 347 897 l 194 897 l 324 1158 z "},"ẅ":{"ha":826,"x_min":32,"x_max":796,"o":"m 32 803 l 206 803 l 269 318 l 342 803 l 494 803 l 560 311 l 631 803 l 796 803 l 672 0 l 493 0 l 415 476 l 331 0 l 151 0 l 32 803 m 182 1125 l 356 1125 l 356 931 l 182 931 l 182 1125 m 471 1125 l 646 1125 l 646 931 l 471 931 l 471 1125 z "},"ẁ":{"ha":826,"x_min":32,"x_max":796,"o":"m 32 803 l 206 803 l 269 318 l 342 803 l 494 803 l 560 311 l 631 803 l 796 803 l 672 0 l 493 0 l 415 476 l 331 0 l 151 0 l 32 803 m 182 1165 l 397 1165 l 481 886 l 354 886 l 182 1165 z "},"x":{"ha":599,"x_min":14,"x_max":593,"o":"m 188 436 l 22 803 l 231 803 l 325 597 l 407 803 l 575 803 l 411 406 l 593 0 l 382 0 l 278 232 l 192 0 l 14 0 l 188 436 z "},"y":{"ha":606,"x_min":7,"x_max":592,"o":"m 86 -79 q 188 -67 158 -79 q 218 -15 218 -54 q 217 1 218 -4 q 190 125 214 24 l 111 415 q 7 803 18 756 l 207 803 l 308 310 l 392 803 l 592 803 l 401 -44 q 303 -186 378 -144 q 115 -226 229 -228 l 86 -226 l 86 -79 z "},"ý":{"ha":606,"x_min":7,"x_max":592,"o":"m 86 -79 q 188 -67 158 -79 q 218 -15 218 -54 q 217 1 218 -4 q 190 125 214 24 l 111 415 q 7 803 18 756 l 207 803 l 308 310 l 392 803 l 592 803 l 401 -44 q 303 -186 378 -144 q 115 -226 229 -228 l 86 -226 l 86 -79 m 321 1165 l 535 1165 l 364 886 l 236 886 l 321 1165 z "},"ŷ":{"ha":606,"x_min":7,"x_max":592,"o":"m 86 -79 q 188 -67 158 -79 q 218 -15 218 -54 q 217 1 218 -4 q 190 125 214 24 l 111 415 q 7 803 18 756 l 207 803 l 308 310 l 392 803 l 592 803 l 401 -44 q 303 -186 378 -144 q 115 -226 229 -228 l 86 -226 l 86 -79 m 213 1158 l 390 1158 l 522 897 l 368 897 l 301 1064 l 236 897 l 83 897 l 213 1158 z "},"ÿ":{"ha":606,"x_min":7,"x_max":592,"o":"m 86 -79 q 188 -67 158 -79 q 218 -15 218 -54 q 217 1 218 -4 q 190 125 214 24 l 111 415 q 7 803 18 756 l 207 803 l 308 310 l 392 803 l 592 803 l 401 -44 q 303 -186 378 -144 q 115 -226 229 -228 l 86 -226 l 86 -79 m 71 1125 l 244 1125 l 244 931 l 71 931 l 71 1125 m 360 1125 l 535 1125 l 535 931 l 360 931 l 360 1125 z "},"ỵ":{"ha":606,"x_min":7,"x_max":626,"o":"m 86 -79 q 188 -67 158 -79 q 218 -15 218 -54 q 217 1 218 -4 q 190 125 214 24 l 111 415 q 7 803 18 756 l 207 803 l 308 310 l 392 803 l 592 803 l 401 -44 q 303 -186 378 -144 q 115 -226 229 -228 l 86 -226 l 86 -79 m 443 -94 l 626 -94 l 626 -279 l 443 -279 l 443 -94 z "},"ỳ":{"ha":606,"x_min":7,"x_max":592,"o":"m 86 -79 q 188 -67 158 -79 q 218 -15 218 -54 q 217 1 218 -4 q 190 125 214 24 l 111 415 q 7 803 18 756 l 207 803 l 308 310 l 392 803 l 592 803 l 401 -44 q 303 -186 378 -144 q 115 -226 229 -228 l 86 -226 l 86 -79 m 71 1165 l 286 1165 l 369 886 l 243 886 l 71 1165 z "},"ỷ":{"ha":606,"x_min":7,"x_max":592,"o":"m 86 -79 q 188 -67 158 -79 q 218 -15 218 -54 q 217 1 218 -4 q 190 125 214 24 l 111 415 q 7 803 18 756 l 207 803 l 308 310 l 392 803 l 592 803 l 401 -44 q 303 -186 378 -144 q 115 -226 229 -228 l 86 -226 l 86 -79 m 233 942 q 308 984 286 967 q 331 1029 331 1001 q 250 1079 331 1079 q 168 1069 207 1079 l 168 1160 q 303 1178 238 1178 q 422 1144 375 1178 q 469 1043 469 1111 q 426 940 469 978 q 303 874 382 901 l 233 942 z "},"ȳ":{"ha":606,"x_min":7,"x_max":592,"o":"m 86 -79 q 188 -67 158 -79 q 218 -15 218 -54 q 217 1 218 -4 q 190 125 214 24 l 111 415 q 7 803 18 756 l 207 803 l 308 310 l 392 803 l 592 803 l 401 -44 q 303 -186 378 -144 q 115 -226 229 -228 l 86 -226 l 86 -79 m 124 1035 l 482 1035 l 482 931 l 124 931 l 124 1035 z "},"ỹ":{"ha":606,"x_min":7,"x_max":592,"o":"m 86 -79 q 188 -67 158 -79 q 218 -15 218 -54 q 217 1 218 -4 q 190 125 214 24 l 111 415 q 7 803 18 756 l 207 803 l 308 310 l 392 803 l 592 803 l 401 -44 q 303 -186 378 -144 q 115 -226 229 -228 l 86 -226 l 86 -79 m 414 938 q 366 947 389 938 q 314 974 343 956 q 239 1003 267 1003 q 189 946 189 1003 l 86 946 q 207 1133 83 1133 q 252 1125 231 1133 q 300 1100 274 1117 q 343 1078 325 1086 q 381 1071 361 1071 q 424 1125 424 1071 l 519 1125 q 498 990 519 1042 q 414 938 476 938 z "},"z":{"ha":531,"x_min":47,"x_max":494,"o":"m 47 136 l 274 650 l 67 650 l 67 803 l 493 803 l 493 678 l 265 154 l 494 154 l 494 0 l 47 0 l 47 136 z "},"ź":{"ha":531,"x_min":47,"x_max":499,"o":"m 47 136 l 274 650 l 67 650 l 67 803 l 493 803 l 493 678 l 265 154 l 494 154 l 494 0 l 47 0 l 47 136 m 285 1165 l 499 1165 l 328 886 l 200 886 l 285 1165 z "},"ž":{"ha":531,"x_min":43,"x_max":494,"o":"m 47 136 l 274 650 l 67 650 l 67 803 l 493 803 l 493 678 l 265 154 l 494 154 l 494 0 l 47 0 l 47 136 m 43 1142 l 193 1142 l 267 988 l 340 1142 l 490 1142 l 368 888 l 164 888 l 43 1142 z "},"ż":{"ha":531,"x_min":47,"x_max":494,"o":"m 47 136 l 274 650 l 67 650 l 67 803 l 493 803 l 493 678 l 265 154 l 494 154 l 494 0 l 47 0 l 47 136 m 167 1114 l 367 1114 l 367 911 l 167 911 l 167 1114 z "},"ﬁ":{"ha":749,"x_min":21,"x_max":675,"o":"m 101 660 l 21 660 l 21 803 l 101 803 l 101 858 q 148 1036 101 976 q 311 1096 194 1096 q 404 1088 351 1096 l 404 942 q 368 946 385 946 q 325 929 339 946 q 311 871 311 913 l 311 803 l 675 803 l 675 0 l 467 0 l 467 660 l 311 660 l 311 0 l 101 0 l 101 660 m 481 1092 l 675 1092 l 675 935 l 481 935 l 481 1092 z "},"ﬂ":{"ha":756,"x_min":17,"x_max":690,"o":"m 97 656 l 17 656 l 17 803 l 97 803 l 97 858 q 116 990 97 936 q 202 1082 135 1044 q 404 1119 269 1119 q 690 1088 522 1119 l 690 0 l 481 0 l 481 974 q 424 976 436 976 q 346 962 371 976 q 314 923 321 947 q 307 858 307 899 l 307 803 l 400 803 l 400 656 l 307 656 l 307 0 l 97 0 l 97 656 z "},"ª":{"ha":658,"x_min":85,"x_max":572,"o":"m 253 438 q 130 487 175 439 q 85 601 85 535 q 123 719 85 672 q 214 790 161 765 q 344 842 267 815 l 385 856 l 385 931 q 340 1003 385 1003 q 301 979 313 1003 q 285 897 290 956 l 106 901 q 172 1080 107 1019 q 354 1140 238 1140 q 519 1080 467 1140 q 572 911 572 1019 l 572 449 l 407 449 l 397 540 q 340 467 378 496 q 253 438 303 438 m 321 567 q 356 578 339 567 q 385 608 374 590 l 385 782 q 297 717 331 757 q 264 635 264 676 q 280 585 264 603 q 321 567 296 567 z "},"º":{"ha":658,"x_min":94,"x_max":564,"o":"m 329 438 q 156 496 217 438 q 94 664 94 554 l 94 915 q 156 1083 94 1025 q 329 1142 217 1142 q 501 1082 439 1142 q 564 915 564 1022 l 564 664 q 501 497 564 556 q 329 438 439 438 m 328 567 q 376 593 363 567 q 390 668 390 619 l 390 911 q 376 986 390 961 q 328 1011 363 1011 q 279 985 293 1011 q 265 911 265 960 l 265 668 q 279 593 265 619 q 328 567 293 567 z "},"А":{"ha":729,"x_min":19,"x_max":708,"o":"m 238 1125 l 492 1125 l 708 0 l 497 0 l 456 247 l 276 247 l 236 0 l 19 0 l 238 1125 m 433 389 l 365 842 l 299 389 l 433 389 z "},"Б":{"ha":751,"x_min":88,"x_max":704,"o":"m 88 1125 l 631 1125 l 631 951 l 317 951 l 317 651 l 365 651 q 619 574 535 651 q 704 326 704 496 q 660 127 704 199 q 540 28 617 56 q 350 0 463 0 l 88 0 l 88 1125 m 351 153 q 460 192 428 153 q 492 324 492 231 q 461 449 492 407 q 349 492 431 492 l 317 492 l 317 153 l 351 153 z "},"В":{"ha":799,"x_min":88,"x_max":754,"o":"m 88 1125 l 374 1125 q 628 1064 536 1125 q 719 843 719 1003 q 556 604 719 632 q 704 519 654 590 q 754 326 754 449 q 669 81 754 163 q 424 0 585 0 l 88 0 l 88 1125 m 375 671 q 489 708 458 671 q 519 828 519 746 q 481 935 519 903 q 360 968 442 968 l 317 968 l 317 671 l 375 671 m 382 161 q 499 203 465 161 q 533 335 533 244 q 498 474 533 432 q 378 517 463 517 l 317 517 l 317 161 l 382 161 z "},"Г":{"ha":619,"x_min":88,"x_max":588,"o":"m 88 1125 l 588 1125 l 588 956 l 317 956 l 317 0 l 88 0 l 88 1125 z "},"Ѓ":{"ha":619,"x_min":88,"x_max":588,"o":"m 88 1125 l 588 1125 l 588 956 l 317 956 l 317 0 l 88 0 l 88 1125 z "},"Ґ":{"ha":615,"x_min":88,"x_max":589,"o":"m 88 1125 l 453 1125 l 453 1300 l 589 1300 l 589 956 l 317 956 l 317 0 l 88 0 l 88 1125 z "},"Д":{"ha":943,"x_min":22,"x_max":917,"o":"m 22 164 l 60 164 q 151 244 113 185 q 215 425 189 304 q 254 744 242 546 l 282 1125 l 794 1125 l 794 164 l 917 164 l 917 -235 l 763 -235 l 750 0 l 197 0 l 183 -235 l 22 -235 l 22 164 m 578 164 l 578 961 l 458 961 l 446 717 q 410 411 435 521 q 354 255 385 301 q 275 164 324 208 l 578 164 z "},"Е":{"ha":611,"x_min":85,"x_max":569,"o":"m 85 1125 l 567 1125 l 567 967 l 313 967 l 313 668 l 507 668 l 507 508 l 313 508 l 313 156 l 569 156 l 569 0 l 85 0 l 85 1125 z "},"Ѐ":{"ha":611,"x_min":85,"x_max":569,"o":"m 85 1125 l 567 1125 l 567 967 l 313 967 l 313 668 l 507 668 l 507 508 l 313 508 l 313 156 l 569 156 l 569 0 l 85 0 l 85 1125 m 103 1488 l 318 1488 l 401 1208 l 275 1208 l 103 1488 z "},"Ё":{"ha":611,"x_min":85,"x_max":569,"o":"m 85 1125 l 567 1125 l 567 967 l 313 967 l 313 668 l 507 668 l 507 508 l 313 508 l 313 156 l 569 156 l 569 0 l 85 0 l 85 1125 z "},"Ж":{"ha":1068,"x_min":7,"x_max":1063,"o":"m 249 568 l 18 1125 l 232 1125 l 432 596 l 443 596 l 443 1125 l 626 1125 l 626 596 l 638 596 l 836 1125 l 1051 1125 l 819 568 l 1063 0 l 853 0 l 638 550 l 626 550 l 626 0 l 443 0 l 443 550 l 431 550 l 215 0 l 7 0 l 249 568 z "},"З":{"ha":717,"x_min":44,"x_max":664,"o":"m 363 -19 q 131 69 201 -19 q 60 321 60 158 l 60 360 l 274 360 q 275 318 274 333 q 295 197 276 233 q 365 161 314 161 q 435 199 417 161 q 453 322 453 238 q 422 457 453 413 q 311 504 392 501 l 253 504 l 253 650 l 307 650 q 422 694 390 651 q 453 826 453 736 q 430 933 453 897 q 356 969 407 969 q 284 933 306 969 q 260 828 263 896 l 260 771 l 44 771 l 44 832 q 128 1059 44 978 q 354 1140 211 1140 q 583 1063 501 1140 q 664 839 664 985 q 624 674 664 742 q 521 590 583 607 q 664 328 664 538 q 592 72 664 164 q 363 -19 519 -19 z "},"И":{"ha":806,"x_min":88,"x_max":718,"o":"m 88 1125 l 271 1125 l 271 451 l 568 1125 l 718 1125 l 718 0 l 532 0 l 532 685 l 232 0 l 88 0 l 88 1125 z "},"Й":{"ha":806,"x_min":88,"x_max":718,"o":"m 88 1125 l 271 1125 l 271 451 l 568 1125 l 718 1125 l 718 0 l 532 0 l 532 685 l 232 0 l 88 0 l 88 1125 z "},"Ѝ":{"ha":806,"x_min":88,"x_max":718,"o":"m 88 1125 l 271 1125 l 271 451 l 568 1125 l 718 1125 l 718 0 l 532 0 l 532 685 l 232 0 l 88 0 l 88 1125 m 188 1488 l 403 1488 l 486 1208 l 360 1208 l 188 1488 z "},"К":{"ha":776,"x_min":88,"x_max":761,"o":"m 88 1125 l 317 1125 l 317 668 l 349 668 l 522 1125 l 749 1125 l 540 596 l 761 0 l 526 0 l 349 503 l 317 503 l 317 0 l 88 0 l 88 1125 z "},"Ќ":{"ha":776,"x_min":88,"x_max":761,"o":"m 88 1125 l 317 1125 l 317 668 l 349 668 l 522 1125 l 749 1125 l 540 596 l 761 0 l 526 0 l 349 503 l 317 503 l 317 0 l 88 0 l 88 1125 z "},"Л":{"ha":889,"x_min":8,"x_max":800,"o":"m 8 163 q 116 186 86 161 q 159 293 146 211 q 189 601 172 375 l 226 1125 l 800 1125 l 800 0 l 572 0 l 572 951 l 431 951 l 408 564 q 369 214 392 322 q 281 52 347 106 q 71 -1 215 -1 q 8 0 31 -1 l 8 163 z "},"М":{"ha":965,"x_min":81,"x_max":885,"o":"m 100 1125 l 338 1125 l 482 435 l 633 1125 l 864 1125 l 885 0 l 719 0 l 703 739 l 544 0 l 426 0 l 263 743 l 247 0 l 81 0 l 100 1125 z "},"Н":{"ha":817,"x_min":85,"x_max":732,"o":"m 85 1125 l 313 1125 l 313 664 l 504 664 l 504 1125 l 732 1125 l 732 0 l 504 0 l 504 499 l 313 499 l 313 0 l 85 0 l 85 1125 z "},"О":{"ha":797,"x_min":65,"x_max":732,"o":"m 397 -15 q 142 78 218 -15 q 65 354 65 172 l 65 774 q 142 1047 65 954 q 397 1139 218 1139 q 654 1047 576 1139 q 732 774 732 954 l 732 353 q 654 78 732 172 q 397 -15 576 -15 m 397 149 q 477 188 457 149 q 497 297 497 228 l 497 829 q 477 937 497 899 q 397 975 457 975 q 319 938 338 975 q 300 829 300 900 l 300 297 q 319 188 300 226 q 397 149 338 149 z "},"П":{"ha":831,"x_min":85,"x_max":747,"o":"m 85 1125 l 747 1125 l 747 0 l 521 0 l 521 961 l 310 961 l 310 0 l 85 0 l 85 1125 z "},"Р":{"ha":763,"x_min":85,"x_max":733,"o":"m 85 1125 l 442 1125 q 733 801 733 1125 q 650 559 733 631 q 418 488 567 488 l 313 488 l 313 0 l 85 0 l 85 1125 m 394 649 q 493 683 468 649 q 518 806 518 718 q 510 895 518 863 q 474 946 501 928 q 393 964 447 964 l 313 964 l 313 649 l 394 649 z "},"С":{"ha":767,"x_min":65,"x_max":711,"o":"m 396 -15 q 141 82 217 -15 q 65 360 65 179 l 65 763 q 140 1043 65 947 q 396 1139 215 1139 q 639 1055 567 1139 q 711 814 711 971 l 711 719 l 488 719 l 488 824 q 483 905 488 875 q 459 955 479 935 q 396 975 439 975 q 317 935 335 975 q 299 817 299 894 l 299 306 q 319 188 299 226 q 396 149 339 149 q 458 169 438 149 q 483 222 478 190 q 488 306 488 254 l 488 415 l 711 415 l 711 322 q 640 73 711 161 q 396 -15 569 -15 z "},"Т":{"ha":610,"x_min":15,"x_max":596,"o":"m 193 956 l 15 956 l 15 1125 l 596 1125 l 596 956 l 422 956 l 422 0 l 193 0 l 193 956 z "},"У":{"ha":739,"x_min":29,"x_max":724,"o":"m 74 -56 l 111 -57 q 241 -29 199 -57 q 283 61 283 -1 q 276 117 283 82 l 29 1125 l 243 1125 l 339 660 l 388 346 l 425 660 l 507 1125 l 724 1125 l 496 86 q 433 -99 469 -37 q 325 -185 396 -160 q 119 -211 254 -211 l 74 -211 l 74 -56 z "},"Ў":{"ha":739,"x_min":29,"x_max":724,"o":"m 74 -56 l 111 -57 q 241 -29 199 -57 q 283 61 283 -1 q 276 117 283 82 l 29 1125 l 243 1125 l 339 660 l 388 346 l 425 660 l 507 1125 l 724 1125 l 496 86 q 433 -99 469 -37 q 325 -185 396 -160 q 119 -211 254 -211 l 74 -211 l 74 -56 z "},"Ф":{"ha":1025,"x_min":65,"x_max":960,"o":"m 417 131 q 338 126 379 126 q 140 198 214 126 q 65 407 65 269 l 65 733 q 144 939 65 864 q 354 1014 224 1014 q 417 1011 383 1014 l 417 1199 l 607 1199 l 607 1011 q 667 1014 643 1014 q 880 938 800 1014 q 960 733 960 863 l 960 406 q 926 252 960 315 q 833 157 892 189 q 701 125 774 125 q 607 129 656 125 l 607 -43 l 417 -43 l 417 131 m 386 267 q 417 269 403 267 l 417 875 q 382 878 397 878 q 268 735 268 878 l 268 404 q 294 301 268 335 q 386 267 321 267 m 640 268 q 730 301 703 268 q 757 403 757 333 l 757 735 q 731 844 757 810 q 649 878 704 878 q 607 875 632 878 l 607 271 q 640 268 626 268 z "},"Х":{"ha":700,"x_min":11,"x_max":694,"o":"m 232 603 l 19 1125 l 235 1125 l 368 800 l 483 1125 l 678 1125 l 471 549 l 694 0 l 479 0 l 333 356 l 204 0 l 11 0 l 232 603 z "},"Ч":{"ha":822,"x_min":63,"x_max":735,"o":"m 504 475 q 368 463 428 463 q 148 533 233 463 q 63 732 63 604 l 63 1125 l 285 1125 l 285 732 q 312 635 285 667 q 424 604 339 604 q 504 613 460 604 l 504 1125 l 735 1125 l 735 0 l 504 0 l 504 475 z "},"Ц":{"ha":933,"x_min":88,"x_max":906,"o":"m 708 0 l 88 0 l 88 1125 l 317 1125 l 317 156 l 533 156 l 533 1125 l 763 1125 l 763 156 l 906 156 l 906 -235 l 736 -235 l 708 0 z "},"Ш":{"ha":1124,"x_min":88,"x_max":1036,"o":"m 88 1125 l 306 1125 l 306 164 l 457 164 l 457 1125 l 674 1125 l 674 164 l 819 164 l 819 1125 l 1036 1125 l 1036 0 l 88 0 l 88 1125 z "},"Щ":{"ha":1235,"x_min":88,"x_max":1181,"o":"m 986 0 l 88 0 l 88 1125 l 306 1125 l 306 156 l 457 156 l 457 1125 l 674 1125 l 674 156 l 819 156 l 819 1125 l 1038 1125 l 1038 156 l 1181 156 l 1181 -235 l 1011 -235 l 986 0 z "},"Џ":{"ha":817,"x_min":85,"x_max":732,"o":"m 319 0 l 85 0 l 85 1125 l 313 1125 l 313 172 l 503 172 l 503 1125 l 732 1125 l 732 0 l 504 0 l 494 -235 l 328 -235 l 319 0 z "},"Ь":{"ha":754,"x_min":88,"x_max":707,"o":"m 88 1125 l 317 1125 l 317 651 l 369 651 q 622 574 538 651 q 707 326 707 496 q 663 127 707 199 q 542 28 619 56 q 353 0 465 0 l 88 0 l 88 1125 m 353 153 q 462 191 429 153 q 494 318 494 229 q 464 448 494 404 q 350 492 433 492 l 317 492 l 317 153 l 353 153 z "},"Ъ":{"ha":858,"x_min":-11,"x_max":814,"o":"m 186 965 l -11 965 l -11 1125 l 417 1125 l 417 651 l 475 651 q 729 574 644 651 q 814 326 814 497 q 770 127 814 199 q 649 28 726 56 q 460 0 572 0 l 186 0 l 186 965 m 461 153 q 569 191 536 153 q 601 318 601 229 q 571 448 601 404 q 457 492 540 492 l 417 492 l 417 153 l 461 153 z "},"Ы":{"ha":1124,"x_min":88,"x_max":1036,"o":"m 88 1125 l 317 1125 l 317 651 l 371 651 q 624 574 539 651 q 708 326 708 496 q 665 127 708 199 q 543 28 621 56 q 353 0 465 0 l 88 0 l 88 1125 m 807 1125 l 1036 1125 l 1036 0 l 807 0 l 807 1125 m 356 153 q 463 191 431 153 q 496 318 496 229 q 465 448 496 404 q 353 492 435 492 l 317 492 l 317 153 l 356 153 z "},"Љ":{"ha":1218,"x_min":15,"x_max":1185,"o":"m 15 0 l 15 163 q 109 179 76 160 q 159 253 142 199 q 185 422 176 308 l 231 1125 l 806 1125 l 806 651 l 846 651 q 1100 574 1015 651 q 1185 326 1185 497 q 1141 127 1185 199 q 1020 28 1097 56 q 831 0 943 0 l 578 0 l 578 951 l 438 951 l 404 418 q 361 167 394 257 q 264 38 328 76 q 92 0 200 -1 l 15 0 m 832 153 q 941 192 908 153 q 974 324 974 231 q 942 449 974 407 q 829 492 911 492 l 806 492 l 806 153 l 832 153 z "},"Њ":{"ha":1143,"x_min":88,"x_max":1101,"o":"m 88 1126 l 317 1126 l 317 663 l 497 663 l 497 1126 l 726 1126 l 726 651 l 764 651 q 1017 574 932 651 q 1101 326 1101 496 q 1058 127 1101 199 q 937 28 1014 56 q 747 0 860 0 l 497 1 l 497 490 l 317 490 l 317 1 l 88 1 l 88 1126 m 747 153 q 858 191 826 153 q 890 324 890 229 q 859 451 890 411 q 746 492 828 492 l 726 492 l 726 153 l 747 153 z "},"Ѕ":{"ha":663,"x_min":36,"x_max":642,"o":"m 353 -15 q 119 70 196 -15 q 36 335 42 156 l 232 368 q 261 210 235 261 q 343 160 288 160 q 401 185 383 160 q 419 251 419 211 q 390 365 419 318 q 296 467 360 411 l 179 568 q 72 694 108 631 q 36 853 36 757 q 119 1065 36 990 q 347 1139 203 1139 q 557 1051 500 1139 q 622 826 614 964 l 424 797 q 404 928 421 885 q 339 971 388 971 q 276 943 299 971 q 254 875 254 915 q 279 781 254 818 q 357 697 304 744 l 471 597 q 597 445 553 522 q 642 264 642 368 q 606 120 642 183 q 504 21 569 57 q 353 -15 439 -15 z "},"Є":{"ha":754,"x_min":68,"x_max":713,"o":"m 397 -15 q 143 81 218 -15 q 68 360 68 178 l 68 763 q 142 1044 68 949 q 397 1139 217 1139 q 641 1055 569 1139 q 713 814 713 971 l 713 753 l 490 753 l 490 824 q 485 904 490 874 q 460 955 481 935 q 399 975 440 975 q 318 935 336 975 q 300 817 300 894 l 300 635 l 500 635 l 500 507 l 300 507 l 300 306 q 321 188 300 226 q 399 149 342 149 q 474 188 457 149 q 490 306 490 228 l 490 375 l 713 375 l 713 322 q 642 73 713 161 q 397 -15 571 -15 z "},"Э":{"ha":782,"x_min":69,"x_max":714,"o":"m 385 -10 q 141 74 213 -10 q 69 314 69 158 l 69 374 l 292 374 l 292 306 q 297 225 292 256 q 322 174 301 194 q 385 154 343 154 q 463 195 444 154 q 482 314 482 236 l 482 508 l 293 508 l 293 628 l 482 628 l 482 825 q 461 942 482 903 q 385 981 440 981 q 308 942 325 981 q 292 825 292 903 l 292 754 l 69 754 l 69 808 q 140 1057 69 968 q 385 1146 211 1146 q 639 1049 564 1146 q 714 771 714 951 l 714 368 q 640 86 714 182 q 385 -10 565 -10 z "},"І":{"ha":376,"x_min":79,"x_max":307,"o":"m 79 1125 l 307 1125 l 307 0 l 79 0 l 79 1125 z "},"Ї":{"ha":376,"x_min":79,"x_max":307,"o":"m 79 1125 l 307 1125 l 307 0 l 79 0 l 79 1125 z "},"Ј":{"ha":444,"x_min":7,"x_max":376,"o":"m 7 132 q 94 140 64 131 q 136 177 124 150 q 149 258 149 204 l 149 1125 l 376 1125 l 376 249 q 352 92 375 151 q 273 2 329 32 q 118 -28 217 -28 l 7 -28 l 7 132 z "},"Ћ":{"ha":794,"x_min":4,"x_max":722,"o":"m 158 956 l 4 956 l 4 1125 l 550 1125 l 550 956 l 386 956 l 386 625 q 467 653 431 642 q 551 664 504 664 q 676 624 631 664 q 722 515 722 583 l 722 0 l 513 0 l 513 488 q 501 528 513 515 q 463 542 490 542 q 422 532 443 540 q 386 515 401 524 l 386 0 l 158 0 l 158 956 z "},"Ю":{"ha":1115,"x_min":88,"x_max":1047,"o":"m 742 -15 q 504 82 574 -15 q 435 365 435 179 l 435 486 l 313 486 l 313 0 l 88 0 l 88 1125 l 313 1125 l 313 656 l 435 656 l 435 761 q 504 1042 435 946 q 742 1139 574 1139 q 978 1042 908 1139 q 1047 761 1047 944 l 1047 365 q 978 83 1047 181 q 742 -15 908 -15 m 742 149 q 816 188 797 149 q 835 297 835 228 l 835 829 q 816 937 835 899 q 742 975 797 975 q 666 937 685 975 q 647 829 647 899 l 647 297 q 666 188 647 228 q 742 149 685 149 z "},"Я":{"ha":824,"x_min":15,"x_max":736,"o":"m 233 501 q 124 616 164 540 q 83 794 83 692 q 176 1048 83 971 q 458 1125 269 1125 l 736 1125 l 736 0 l 507 0 l 507 449 l 453 449 l 433 450 l 264 0 l 15 0 l 233 501 m 507 611 l 507 967 l 463 967 q 297 793 297 967 q 336 658 297 706 q 467 611 375 611 l 507 611 z "},"Ђ":{"ha":850,"x_min":-6,"x_max":793,"o":"m 154 964 l -6 964 l -6 1125 l 572 1125 l 572 964 l 381 964 l 381 617 q 464 661 418 646 q 557 676 510 676 q 674 652 619 676 q 760 581 728 628 q 793 469 793 533 l 793 279 q 765 116 793 176 q 673 28 736 56 q 503 0 610 0 l 456 0 l 456 135 q 553 170 524 135 q 583 279 583 206 l 583 449 q 560 513 583 485 q 490 542 536 542 q 381 503 443 542 l 381 0 l 154 0 l 154 964 z "},"Ү":{"ha":678,"x_min":11,"x_max":667,"o":"m 231 486 l 11 1125 l 226 1125 l 301 863 l 347 704 l 386 861 l 458 1125 l 667 1125 l 450 486 l 450 0 l 231 0 l 231 486 z "},"Ұ":{"ha":690,"x_min":18,"x_max":674,"o":"m 476 543 l 658 543 l 658 400 l 457 400 l 457 0 l 238 0 l 238 400 l 42 400 l 42 543 l 218 543 l 18 1125 l 233 1125 l 308 863 l 354 704 l 393 861 l 465 1125 l 674 1125 l 476 543 z "},"Ө":{"ha":800,"x_min":68,"x_max":732,"o":"m 400 1139 q 655 1047 578 1139 q 732 774 732 954 l 732 353 q 655 78 732 172 q 400 -15 578 -15 q 144 78 221 -15 q 68 354 68 172 l 68 774 q 144 1047 68 956 q 400 1139 221 1139 m 400 975 q 322 937 342 975 q 301 829 301 899 l 301 651 l 499 651 l 499 829 q 478 937 499 899 q 400 975 458 975 m 400 149 q 478 188 458 149 q 499 297 499 228 l 499 508 l 301 508 l 301 297 q 321 188 301 226 q 400 149 340 149 z "},"а":{"ha":647,"x_min":51,"x_max":594,"o":"m 233 -14 q 136 15 178 -14 q 73 88 94 43 q 51 181 51 132 q 92 327 51 269 q 191 417 133 385 q 338 482 249 449 l 379 499 l 379 574 q 367 639 379 617 q 325 661 356 661 q 282 642 294 661 q 267 586 269 622 l 263 531 l 65 539 l 67 565 q 146 756 76 696 q 343 817 215 817 q 521 751 461 817 q 581 572 581 686 l 581 199 q 587 67 581 122 q 594 0 593 13 l 407 0 q 389 115 401 40 q 333 23 372 60 q 233 -14 293 -14 m 308 135 q 347 149 328 135 q 379 181 367 163 l 379 401 q 282 324 319 372 q 244 225 244 275 q 262 159 244 183 q 308 135 279 135 z "},"б":{"ha":657,"x_min":65,"x_max":600,"o":"m 332 -12 q 124 64 182 -12 q 65 299 65 140 l 65 731 q 97 967 65 889 q 183 1074 129 1046 q 343 1128 236 1103 q 532 1185 463 1157 l 547 1024 q 460 991 499 1001 q 376 974 421 981 q 304 953 326 964 q 270 908 282 942 q 258 797 258 874 l 258 738 q 326 763 288 753 q 397 774 364 774 q 551 706 503 774 q 600 476 600 638 l 600 290 q 567 106 600 172 q 476 13 535 39 q 332 -12 418 -12 m 336 125 q 377 139 364 125 q 395 189 390 153 q 400 299 400 225 l 400 524 q 388 623 400 596 q 342 650 376 650 q 268 565 290 650 l 268 303 q 274 192 268 229 q 293 140 279 156 q 336 125 307 125 z "},"в":{"ha":675,"x_min":72,"x_max":633,"o":"m 72 803 l 343 803 q 511 777 451 803 q 592 708 571 751 q 614 600 614 664 q 583 491 614 529 q 494 436 553 453 q 603 367 574 417 q 633 232 633 317 q 567 56 633 113 q 336 0 500 0 l 72 0 l 72 803 m 340 485 q 398 510 381 485 q 415 586 415 535 q 395 662 415 636 q 324 688 375 688 l 281 688 l 281 485 l 340 485 m 321 122 q 379 130 357 122 q 415 163 401 138 q 429 239 429 188 q 417 324 429 297 q 383 358 404 351 q 324 365 363 365 l 281 365 l 281 122 l 321 122 z "},"г":{"ha":471,"x_min":72,"x_max":456,"o":"m 72 803 l 456 803 l 456 660 l 281 660 l 281 0 l 72 0 l 72 803 z "},"ѓ":{"ha":471,"x_min":72,"x_max":456,"o":"m 72 803 l 456 803 l 456 660 l 281 660 l 281 0 l 72 0 l 72 803 z "},"ґ":{"ha":474,"x_min":72,"x_max":461,"o":"m 72 803 l 353 803 l 353 964 l 461 964 l 461 660 l 282 660 l 282 0 l 72 0 l 72 803 z "},"д":{"ha":810,"x_min":36,"x_max":786,"o":"m 36 129 q 173 281 126 178 q 229 575 219 385 l 249 803 l 674 803 l 674 132 l 786 132 l 786 -215 l 635 -215 l 619 0 l 201 0 l 189 -215 l 36 -215 l 36 129 m 481 132 l 481 674 l 404 674 l 392 526 q 351 268 385 357 q 260 132 318 179 l 481 132 z "}}}
